%TF.GenerationSoftware,KiCad,Pcbnew,7.0.8*%
%TF.CreationDate,2024-02-21T10:41:43-05:00*%
%TF.ProjectId,Quad Joystick Mixer,51756164-204a-46f7-9973-7469636b204d,rev?*%
%TF.SameCoordinates,Original*%
%TF.FileFunction,Soldermask,Top*%
%TF.FilePolarity,Negative*%
%FSLAX46Y46*%
G04 Gerber Fmt 4.6, Leading zero omitted, Abs format (unit mm)*
G04 Created by KiCad (PCBNEW 7.0.8) date 2024-02-21 10:41:43*
%MOMM*%
%LPD*%
G01*
G04 APERTURE LIST*
G04 Aperture macros list*
%AMRoundRect*
0 Rectangle with rounded corners*
0 $1 Rounding radius*
0 $2 $3 $4 $5 $6 $7 $8 $9 X,Y pos of 4 corners*
0 Add a 4 corners polygon primitive as box body*
4,1,4,$2,$3,$4,$5,$6,$7,$8,$9,$2,$3,0*
0 Add four circle primitives for the rounded corners*
1,1,$1+$1,$2,$3*
1,1,$1+$1,$4,$5*
1,1,$1+$1,$6,$7*
1,1,$1+$1,$8,$9*
0 Add four rect primitives between the rounded corners*
20,1,$1+$1,$2,$3,$4,$5,0*
20,1,$1+$1,$4,$5,$6,$7,0*
20,1,$1+$1,$6,$7,$8,$9,0*
20,1,$1+$1,$8,$9,$2,$3,0*%
G04 Aperture macros list end*
%ADD10RoundRect,0.249999X-1.425001X0.450001X-1.425001X-0.450001X1.425001X-0.450001X1.425001X0.450001X0*%
%ADD11R,0.650000X1.560000*%
%ADD12RoundRect,0.250000X-0.337500X-0.475000X0.337500X-0.475000X0.337500X0.475000X-0.337500X0.475000X0*%
%ADD13C,1.500000*%
%ADD14RoundRect,0.250000X0.337500X0.475000X-0.337500X0.475000X-0.337500X-0.475000X0.337500X-0.475000X0*%
%ADD15RoundRect,0.250000X0.450000X-0.350000X0.450000X0.350000X-0.450000X0.350000X-0.450000X-0.350000X0*%
%ADD16RoundRect,0.250000X-0.475000X0.337500X-0.475000X-0.337500X0.475000X-0.337500X0.475000X0.337500X0*%
%ADD17RoundRect,0.250000X-0.350000X-0.450000X0.350000X-0.450000X0.350000X0.450000X-0.350000X0.450000X0*%
%ADD18RoundRect,0.250000X-0.450000X0.350000X-0.450000X-0.350000X0.450000X-0.350000X0.450000X0.350000X0*%
%ADD19RoundRect,0.250000X0.475000X-0.337500X0.475000X0.337500X-0.475000X0.337500X-0.475000X-0.337500X0*%
%ADD20C,2.800000*%
%ADD21C,2.000000*%
%ADD22RoundRect,0.225000X0.375000X-0.225000X0.375000X0.225000X-0.375000X0.225000X-0.375000X-0.225000X0*%
%ADD23R,1.800000X1.800000*%
%ADD24C,1.800000*%
%ADD25RoundRect,0.250000X1.000000X0.650000X-1.000000X0.650000X-1.000000X-0.650000X1.000000X-0.650000X0*%
%ADD26RoundRect,0.250000X1.500000X0.650000X-1.500000X0.650000X-1.500000X-0.650000X1.500000X-0.650000X0*%
%ADD27RoundRect,0.150000X-0.825000X-0.150000X0.825000X-0.150000X0.825000X0.150000X-0.825000X0.150000X0*%
%ADD28R,4.400000X1.700000*%
%ADD29O,3.900000X1.700000*%
%ADD30O,1.700000X3.900000*%
%ADD31RoundRect,0.150000X0.150000X-0.512500X0.150000X0.512500X-0.150000X0.512500X-0.150000X-0.512500X0*%
%ADD32RoundRect,0.250000X0.350000X0.450000X-0.350000X0.450000X-0.350000X-0.450000X0.350000X-0.450000X0*%
%ADD33C,1.700000*%
%ADD34C,4.000000*%
%ADD35C,2.200000*%
%ADD36O,2.900000X3.100000*%
%ADD37R,1.905000X2.000000*%
%ADD38O,1.905000X2.000000*%
%ADD39RoundRect,0.250000X-1.500000X-0.650000X1.500000X-0.650000X1.500000X0.650000X-1.500000X0.650000X0*%
%ADD40C,1.200000*%
%ADD41RoundRect,0.250000X-0.600000X-0.725000X0.600000X-0.725000X0.600000X0.725000X-0.600000X0.725000X0*%
%ADD42O,1.700000X1.950000*%
%ADD43RoundRect,0.250000X0.650000X-1.500000X0.650000X1.500000X-0.650000X1.500000X-0.650000X-1.500000X0*%
%ADD44RoundRect,0.225000X-0.225000X-0.375000X0.225000X-0.375000X0.225000X0.375000X-0.225000X0.375000X0*%
%ADD45RoundRect,0.225000X0.225000X0.375000X-0.225000X0.375000X-0.225000X-0.375000X0.225000X-0.375000X0*%
%ADD46RoundRect,0.250000X0.412500X0.650000X-0.412500X0.650000X-0.412500X-0.650000X0.412500X-0.650000X0*%
%ADD47O,3.700000X2.900000*%
%ADD48RoundRect,0.150000X-0.587500X-0.150000X0.587500X-0.150000X0.587500X0.150000X-0.587500X0.150000X0*%
%ADD49RoundRect,0.249999X-0.450001X-1.075001X0.450001X-1.075001X0.450001X1.075001X-0.450001X1.075001X0*%
%ADD50R,1.600000X1.600000*%
%ADD51C,1.600000*%
%ADD52RoundRect,0.235000X1.465000X-0.940000X1.465000X0.940000X-1.465000X0.940000X-1.465000X-0.940000X0*%
%ADD53RoundRect,0.249999X-1.075001X0.450001X-1.075001X-0.450001X1.075001X-0.450001X1.075001X0.450001X0*%
%ADD54RoundRect,0.225000X-0.375000X0.225000X-0.375000X-0.225000X0.375000X-0.225000X0.375000X0.225000X0*%
G04 APERTURE END LIST*
D10*
%TO.C,R6*%
X42988750Y-47711250D03*
X42988750Y-53811250D03*
%TD*%
D11*
%TO.C,U5*%
X151568750Y-114839850D03*
X152518750Y-114839850D03*
X153468750Y-114839850D03*
X153468750Y-112139850D03*
X151568750Y-112139850D03*
%TD*%
D12*
%TO.C,C72*%
X142976250Y-141126250D03*
X145051250Y-141126250D03*
%TD*%
D13*
%TO.C,TP16*%
X161988750Y-58011250D03*
%TD*%
D14*
%TO.C,C73*%
X157988750Y-145261250D03*
X155913750Y-145261250D03*
%TD*%
D15*
%TO.C,R81*%
X120651250Y-87711250D03*
X120651250Y-85711250D03*
%TD*%
D16*
%TO.C,C69*%
X228851250Y-87338750D03*
X228851250Y-89413750D03*
%TD*%
D13*
%TO.C,TP19*%
X203238750Y-58261250D03*
%TD*%
D14*
%TO.C,C71*%
X149013750Y-133126250D03*
X146938750Y-133126250D03*
%TD*%
D17*
%TO.C,R77*%
X117767750Y-137851650D03*
X119767750Y-137851650D03*
%TD*%
D18*
%TO.C,R12*%
X108238750Y-107761250D03*
X108238750Y-109761250D03*
%TD*%
D19*
%TO.C,C52*%
X205738750Y-63298750D03*
X205738750Y-61223750D03*
%TD*%
D20*
%TO.C,J4*%
X152013750Y-39859850D03*
X168243750Y-39859850D03*
X152013750Y-33509850D03*
X168243750Y-33509850D03*
X152013750Y-46209850D03*
X168243750Y-46209850D03*
%TD*%
D21*
%TO.C,C3*%
X65238750Y-64261250D03*
X57738750Y-64261250D03*
%TD*%
D17*
%TO.C,R10*%
X123098750Y-105221250D03*
X125098750Y-105221250D03*
%TD*%
D22*
%TO.C,D12*%
X191488750Y-136411250D03*
X191488750Y-133111250D03*
%TD*%
D16*
%TO.C,C25*%
X213023750Y-126723750D03*
X213023750Y-128798750D03*
%TD*%
D18*
%TO.C,R30*%
X141701250Y-84000000D03*
X141701250Y-86000000D03*
%TD*%
D14*
%TO.C,C54*%
X206238750Y-65761250D03*
X204163750Y-65761250D03*
%TD*%
D23*
%TO.C,D11*%
X146268750Y-118589850D03*
D24*
X146268750Y-116049850D03*
%TD*%
D17*
%TO.C,R21*%
X155518750Y-115739850D03*
X157518750Y-115739850D03*
%TD*%
D14*
%TO.C,C29*%
X220001250Y-138396250D03*
X217926250Y-138396250D03*
%TD*%
D25*
%TO.C,D22*%
X43678750Y-137221250D03*
X39678750Y-137221250D03*
%TD*%
D26*
%TO.C,D10*%
X46238750Y-116011250D03*
X41238750Y-116011250D03*
%TD*%
D20*
%TO.C,J3*%
X235103750Y-153912650D03*
X218873750Y-153912650D03*
X235103750Y-160262650D03*
X218873750Y-160262650D03*
X235103750Y-147562650D03*
X218873750Y-147562650D03*
%TD*%
D27*
%TO.C,U19*%
X143538750Y-135221250D03*
X143538750Y-136491250D03*
X143538750Y-137761250D03*
X143538750Y-139031250D03*
X148488750Y-139031250D03*
X148488750Y-137761250D03*
X148488750Y-136491250D03*
X148488750Y-135221250D03*
%TD*%
D23*
%TO.C,D7*%
X60528750Y-126646250D03*
D24*
X60528750Y-124106250D03*
%TD*%
D28*
%TO.C,J1*%
X63638750Y-43122650D03*
D29*
X63638750Y-37122650D03*
D30*
X58838750Y-40622650D03*
%TD*%
D23*
%TO.C,D21*%
X121151250Y-82986250D03*
D24*
X121151250Y-80446250D03*
%TD*%
D18*
%TO.C,R15*%
X210463750Y-130896250D03*
X210463750Y-132896250D03*
%TD*%
D31*
%TO.C,U3*%
X110288750Y-109898750D03*
X111238750Y-109898750D03*
X112188750Y-109898750D03*
X112188750Y-107623750D03*
X111238750Y-107623750D03*
X110288750Y-107623750D03*
%TD*%
D18*
%TO.C,R48*%
X220723750Y-116011250D03*
X220723750Y-118011250D03*
%TD*%
D12*
%TO.C,C39*%
X154226250Y-94146250D03*
X156301250Y-94146250D03*
%TD*%
D17*
%TO.C,R63*%
X116767750Y-156851650D03*
X118767750Y-156851650D03*
%TD*%
D16*
%TO.C,C80*%
X78710057Y-72946730D03*
X78710057Y-75021730D03*
%TD*%
D26*
%TO.C,D2*%
X62238750Y-49011250D03*
X57238750Y-49011250D03*
%TD*%
D32*
%TO.C,R22*%
X157518750Y-111989850D03*
X155518750Y-111989850D03*
%TD*%
D33*
%TO.C,SW6*%
X110028750Y-40711250D03*
D34*
X110028750Y-45791250D03*
D33*
X110028750Y-50871250D03*
D35*
X115108750Y-48331250D03*
X112568750Y-41981250D03*
%TD*%
D20*
%TO.C,J5*%
X172633750Y-39859850D03*
X188863750Y-39859850D03*
X172633750Y-33509850D03*
X188863750Y-33509850D03*
X172633750Y-46209850D03*
X188863750Y-46209850D03*
%TD*%
D36*
%TO.C,RV2*%
X229488750Y-138061250D03*
X229488750Y-128461250D03*
D23*
X236988750Y-135761250D03*
D24*
X236988750Y-133261250D03*
X236988750Y-130761250D03*
%TD*%
D18*
%TO.C,R19*%
X240988750Y-145261250D03*
X240988750Y-147261250D03*
%TD*%
D32*
%TO.C,R53*%
X238851250Y-85376250D03*
X236851250Y-85376250D03*
%TD*%
D12*
%TO.C,C46*%
X183738750Y-85051250D03*
X185813750Y-85051250D03*
%TD*%
D37*
%TO.C,U1*%
X61698750Y-106706250D03*
D38*
X64238750Y-106706250D03*
X66778750Y-106706250D03*
%TD*%
D33*
%TO.C,SW3*%
X39558750Y-149301250D03*
D34*
X44638750Y-149301250D03*
D33*
X49718750Y-149301250D03*
D35*
X47178750Y-144221250D03*
X40828750Y-146761250D03*
%TD*%
D17*
%TO.C,R51*%
X236763750Y-96876250D03*
X238763750Y-96876250D03*
%TD*%
D18*
%TO.C,R23*%
X166268750Y-117089850D03*
X166268750Y-119089850D03*
%TD*%
D10*
%TO.C,R7*%
X40738750Y-90711250D03*
X40738750Y-96811250D03*
%TD*%
D39*
%TO.C,D5*%
X41238750Y-112011250D03*
X46238750Y-112011250D03*
%TD*%
D13*
%TO.C,TP13*%
X200763750Y-102836250D03*
%TD*%
D22*
%TO.C,D19*%
X151488750Y-136411250D03*
X151488750Y-133111250D03*
%TD*%
D16*
%TO.C,C81*%
X123158750Y-146025150D03*
X123158750Y-148100150D03*
%TD*%
D12*
%TO.C,C8*%
X183701250Y-82551250D03*
X185776250Y-82551250D03*
%TD*%
D15*
%TO.C,R84*%
X86568750Y-134261250D03*
X86568750Y-132261250D03*
%TD*%
D17*
%TO.C,R59*%
X211763750Y-99336250D03*
X213763750Y-99336250D03*
%TD*%
D15*
%TO.C,R66*%
X98460057Y-89734230D03*
X98460057Y-87734230D03*
%TD*%
D37*
%TO.C,U2*%
X47028750Y-106066250D03*
D38*
X44488750Y-106066250D03*
X41948750Y-106066250D03*
%TD*%
D14*
%TO.C,C11*%
X41776250Y-100511250D03*
X39701250Y-100511250D03*
%TD*%
%TO.C,C9*%
X173776250Y-86051250D03*
X171701250Y-86051250D03*
%TD*%
D17*
%TO.C,R50*%
X224313750Y-80376250D03*
X226313750Y-80376250D03*
%TD*%
D12*
%TO.C,C62*%
X211726250Y-96336250D03*
X213801250Y-96336250D03*
%TD*%
D17*
%TO.C,R5*%
X59488750Y-101761250D03*
X61488750Y-101761250D03*
%TD*%
%TO.C,R17*%
X225488750Y-125261250D03*
X227488750Y-125261250D03*
%TD*%
D33*
%TO.C,SW4*%
X60908750Y-149261250D03*
D34*
X65988750Y-149261250D03*
D33*
X71068750Y-149261250D03*
D35*
X68528750Y-144181250D03*
X62178750Y-146721250D03*
%TD*%
D12*
%TO.C,C41*%
X156163750Y-83281250D03*
X158238750Y-83281250D03*
%TD*%
D20*
%TO.C,J6*%
X193253750Y-39859850D03*
X209483750Y-39859850D03*
X193253750Y-33509850D03*
X209483750Y-33509850D03*
X193253750Y-46209850D03*
X209483750Y-46209850D03*
%TD*%
D21*
%TO.C,C4*%
X64988750Y-81261250D03*
X57488750Y-81261250D03*
%TD*%
D17*
%TO.C,R73*%
X109267750Y-158351650D03*
X111267750Y-158351650D03*
%TD*%
D27*
%TO.C,U16*%
X204238750Y-80241250D03*
X204238750Y-81511250D03*
X204238750Y-82781250D03*
X204238750Y-84051250D03*
X209188750Y-84051250D03*
X209188750Y-82781250D03*
X209188750Y-81511250D03*
X209188750Y-80241250D03*
%TD*%
D32*
%TO.C,R64*%
X139488750Y-144761250D03*
X137488750Y-144761250D03*
%TD*%
D15*
%TO.C,R9*%
X64528750Y-126871250D03*
X64528750Y-124871250D03*
%TD*%
D40*
%TO.C,J9*%
X160900000Y-150475000D03*
D41*
X162500000Y-148475000D03*
D42*
X165000000Y-148475000D03*
X167500000Y-148475000D03*
%TD*%
D16*
%TO.C,C33*%
X155268750Y-117952350D03*
X155268750Y-120027350D03*
%TD*%
D12*
%TO.C,C66*%
X211676250Y-83146250D03*
X213751250Y-83146250D03*
%TD*%
D14*
%TO.C,C10*%
X41776250Y-103011250D03*
X39701250Y-103011250D03*
%TD*%
D18*
%TO.C,R37*%
X202738750Y-61261250D03*
X202738750Y-63261250D03*
%TD*%
D12*
%TO.C,C67*%
X236813750Y-80376250D03*
X238888750Y-80376250D03*
%TD*%
D14*
%TO.C,C42*%
X146238750Y-88281250D03*
X144163750Y-88281250D03*
%TD*%
D12*
%TO.C,C78*%
X109922557Y-86234230D03*
X111997557Y-86234230D03*
%TD*%
D43*
%TO.C,D3*%
X56238750Y-106511250D03*
X56238750Y-101511250D03*
%TD*%
D44*
%TO.C,D16*%
X209723750Y-120261250D03*
X213023750Y-120261250D03*
%TD*%
D21*
%TO.C,SW2*%
X119049750Y-149973650D03*
X114719750Y-154303650D03*
X108597750Y-154303650D03*
X104267750Y-149973650D03*
X104267750Y-143851650D03*
X108597750Y-139521650D03*
X114719750Y-139521650D03*
X119049750Y-143851650D03*
X111658750Y-149562650D03*
%TD*%
D45*
%TO.C,D17*%
X218373750Y-120261250D03*
X215073750Y-120261250D03*
%TD*%
D27*
%TO.C,U9*%
X146751250Y-92201250D03*
X146751250Y-93471250D03*
X146751250Y-94741250D03*
X146751250Y-96011250D03*
X146751250Y-97281250D03*
X146751250Y-98551250D03*
X146751250Y-99821250D03*
X146751250Y-101091250D03*
X151701250Y-101091250D03*
X151701250Y-99821250D03*
X151701250Y-98551250D03*
X151701250Y-97281250D03*
X151701250Y-96011250D03*
X151701250Y-94741250D03*
X151701250Y-93471250D03*
X151701250Y-92201250D03*
%TD*%
D44*
%TO.C,D18*%
X141488750Y-132761250D03*
X144788750Y-132761250D03*
%TD*%
D25*
%TO.C,D26*%
X95028750Y-57871250D03*
X91028750Y-57871250D03*
%TD*%
D27*
%TO.C,U6*%
X176288750Y-82511250D03*
X176288750Y-83781250D03*
X176288750Y-85051250D03*
X176288750Y-86321250D03*
X181238750Y-86321250D03*
X181238750Y-85051250D03*
X181238750Y-83781250D03*
X181238750Y-82511250D03*
%TD*%
D12*
%TO.C,C48*%
X156201250Y-86281250D03*
X158276250Y-86281250D03*
%TD*%
D27*
%TO.C,U17*%
X204288750Y-94391250D03*
X204288750Y-95661250D03*
X204288750Y-96931250D03*
X204288750Y-98201250D03*
X204288750Y-99471250D03*
X204288750Y-100741250D03*
X204288750Y-102011250D03*
X204288750Y-103281250D03*
X209238750Y-103281250D03*
X209238750Y-102011250D03*
X209238750Y-100741250D03*
X209238750Y-99471250D03*
X209238750Y-98201250D03*
X209238750Y-96931250D03*
X209238750Y-95661250D03*
X209238750Y-94391250D03*
%TD*%
D19*
%TO.C,C16*%
X173488750Y-111127350D03*
X173488750Y-109052350D03*
%TD*%
D12*
%TO.C,C15*%
X45201250Y-103011250D03*
X47276250Y-103011250D03*
%TD*%
D18*
%TO.C,R28*%
X169238750Y-84051250D03*
X169238750Y-86051250D03*
%TD*%
D12*
%TO.C,C20*%
X110201250Y-104761250D03*
X112276250Y-104761250D03*
%TD*%
D15*
%TO.C,R87*%
X197238750Y-90261250D03*
X197238750Y-88261250D03*
%TD*%
D14*
%TO.C,C82*%
X42716250Y-134221250D03*
X40641250Y-134221250D03*
%TD*%
D32*
%TO.C,R76*%
X105767750Y-137351650D03*
X103767750Y-137351650D03*
%TD*%
D16*
%TO.C,C23*%
X105988750Y-107723750D03*
X105988750Y-109798750D03*
%TD*%
D12*
%TO.C,C37*%
X205336250Y-120261250D03*
X207411250Y-120261250D03*
%TD*%
D15*
%TO.C,R68*%
X91460057Y-89734230D03*
X91460057Y-87734230D03*
%TD*%
D25*
%TO.C,D24*%
X85068750Y-137261250D03*
X81068750Y-137261250D03*
%TD*%
D18*
%TO.C,R62*%
X121767750Y-152351650D03*
X121767750Y-154351650D03*
%TD*%
D15*
%TO.C,R82*%
X45178750Y-134221250D03*
X45178750Y-132221250D03*
%TD*%
D13*
%TO.C,TP5*%
X148768750Y-108589850D03*
%TD*%
D23*
%TO.C,D8*%
X124098750Y-101761250D03*
D24*
X124098750Y-99221250D03*
%TD*%
D19*
%TO.C,C51*%
X216238750Y-65298750D03*
X216238750Y-63223750D03*
%TD*%
D16*
%TO.C,C26*%
X210463750Y-134896250D03*
X210463750Y-136971250D03*
%TD*%
D13*
%TO.C,TP3*%
X37028750Y-118371250D03*
%TD*%
D36*
%TO.C,RV1*%
X201988750Y-127961250D03*
X201988750Y-137561250D03*
D23*
X194488750Y-130261250D03*
D24*
X194488750Y-132761250D03*
X194488750Y-135261250D03*
%TD*%
D13*
%TO.C,TP18*%
X226738750Y-58761250D03*
%TD*%
D36*
%TO.C,RV4*%
X150288750Y-158061250D03*
X150288750Y-148461250D03*
D23*
X157788750Y-155761250D03*
D24*
X157788750Y-153261250D03*
X157788750Y-150761250D03*
%TD*%
D25*
%TO.C,D25*%
X111528750Y-57541250D03*
X107528750Y-57541250D03*
%TD*%
D13*
%TO.C,TP21*%
X154488750Y-136761250D03*
%TD*%
%TO.C,TP1*%
X109960057Y-88984230D03*
%TD*%
D15*
%TO.C,R88*%
X189788750Y-91741250D03*
X189788750Y-89741250D03*
%TD*%
D10*
%TO.C,R1*%
X66988750Y-48461250D03*
X66988750Y-54561250D03*
%TD*%
D19*
%TO.C,C22*%
X114488750Y-109836250D03*
X114488750Y-107761250D03*
%TD*%
D16*
%TO.C,C36*%
X169768750Y-119052350D03*
X169768750Y-121127350D03*
%TD*%
D14*
%TO.C,C58*%
X226351250Y-82876250D03*
X224276250Y-82876250D03*
%TD*%
%TO.C,C45*%
X173776250Y-83551250D03*
X171701250Y-83551250D03*
%TD*%
D17*
%TO.C,R39*%
X206238750Y-58761250D03*
X208238750Y-58761250D03*
%TD*%
D27*
%TO.C,U12*%
X208763750Y-61356250D03*
X208763750Y-62626250D03*
X208763750Y-63896250D03*
X208763750Y-65166250D03*
X213713750Y-65166250D03*
X213713750Y-63896250D03*
X213713750Y-62626250D03*
X213713750Y-61356250D03*
%TD*%
D12*
%TO.C,C27*%
X225451250Y-122761250D03*
X227526250Y-122761250D03*
%TD*%
D33*
%TO.C,SW7*%
X89028750Y-40791250D03*
D34*
X89028750Y-45871250D03*
D33*
X89028750Y-50951250D03*
D35*
X94108750Y-48411250D03*
X91568750Y-42061250D03*
%TD*%
D13*
%TO.C,TP6*%
X189988750Y-130261250D03*
%TD*%
D46*
%TO.C,C17*%
X112551250Y-99036250D03*
X109426250Y-99036250D03*
%TD*%
D18*
%TO.C,R8*%
X166268750Y-113089850D03*
X166268750Y-115089850D03*
%TD*%
%TO.C,R35*%
X179988750Y-60011250D03*
X179988750Y-62011250D03*
%TD*%
%TO.C,R72*%
X123158750Y-142062650D03*
X123158750Y-144062650D03*
%TD*%
D12*
%TO.C,C40*%
X154188750Y-91646250D03*
X156263750Y-91646250D03*
%TD*%
D15*
%TO.C,R85*%
X166738750Y-90011250D03*
X166738750Y-88011250D03*
%TD*%
D27*
%TO.C,U8*%
X172788750Y-90471250D03*
X172788750Y-91741250D03*
X172788750Y-93011250D03*
X172788750Y-94281250D03*
X172788750Y-95551250D03*
X172788750Y-96821250D03*
X172788750Y-98091250D03*
X172788750Y-99361250D03*
X177738750Y-99361250D03*
X177738750Y-98091250D03*
X177738750Y-96821250D03*
X177738750Y-95551250D03*
X177738750Y-94281250D03*
X177738750Y-93011250D03*
X177738750Y-91741250D03*
X177738750Y-90471250D03*
%TD*%
D32*
%TO.C,R61*%
X213713750Y-85646250D03*
X211713750Y-85646250D03*
%TD*%
D13*
%TO.C,TP9*%
X225288750Y-97741250D03*
%TD*%
D12*
%TO.C,C53*%
X216201250Y-60761250D03*
X218276250Y-60761250D03*
%TD*%
D27*
%TO.C,U7*%
X169793750Y-113184850D03*
X169793750Y-114454850D03*
X169793750Y-115724850D03*
X169793750Y-116994850D03*
X174743750Y-116994850D03*
X174743750Y-115724850D03*
X174743750Y-114454850D03*
X174743750Y-113184850D03*
%TD*%
D13*
%TO.C,TP17*%
X184488750Y-58511250D03*
%TD*%
D17*
%TO.C,R26*%
X154226250Y-97646250D03*
X156226250Y-97646250D03*
%TD*%
D13*
%TO.C,TP2*%
X56528750Y-121371250D03*
%TD*%
D19*
%TO.C,C49*%
X164488750Y-63048750D03*
X164488750Y-60973750D03*
%TD*%
D18*
%TO.C,R34*%
X166988750Y-57511250D03*
X166988750Y-59511250D03*
%TD*%
D26*
%TO.C,D6*%
X52738750Y-49011250D03*
X47738750Y-49011250D03*
%TD*%
D17*
%TO.C,R60*%
X211713750Y-88146250D03*
X213713750Y-88146250D03*
%TD*%
D12*
%TO.C,C2*%
X59451250Y-116511250D03*
X61526250Y-116511250D03*
%TD*%
D15*
%TO.C,R44*%
X166738750Y-86051250D03*
X166738750Y-84051250D03*
%TD*%
D26*
%TO.C,D1*%
X67488750Y-110761250D03*
X62488750Y-110761250D03*
%TD*%
D47*
%TO.C,SW1*%
X53988750Y-44711250D03*
X53988750Y-40011250D03*
X53988750Y-35311250D03*
X49188750Y-44711250D03*
X49188750Y-40011250D03*
X49188750Y-35311250D03*
%TD*%
D46*
%TO.C,C18*%
X112551250Y-96286250D03*
X109426250Y-96286250D03*
%TD*%
D48*
%TO.C,Q1*%
X124551250Y-69311250D03*
X124551250Y-71211250D03*
X126426250Y-70261250D03*
%TD*%
D18*
%TO.C,R36*%
X218738750Y-63261250D03*
X218738750Y-65261250D03*
%TD*%
%TO.C,R74*%
X102267750Y-152851650D03*
X102267750Y-154851650D03*
%TD*%
D19*
%TO.C,C24*%
X193488750Y-145298750D03*
X193488750Y-143223750D03*
%TD*%
D18*
%TO.C,R3*%
X146268750Y-121089850D03*
X146268750Y-123089850D03*
%TD*%
%TO.C,R24*%
X208623750Y-116011250D03*
X208623750Y-118011250D03*
%TD*%
D27*
%TO.C,U13*%
X228813750Y-91796250D03*
X228813750Y-93066250D03*
X228813750Y-94336250D03*
X228813750Y-95606250D03*
X228813750Y-96876250D03*
X228813750Y-98146250D03*
X228813750Y-99416250D03*
X228813750Y-100686250D03*
X233763750Y-100686250D03*
X233763750Y-99416250D03*
X233763750Y-98146250D03*
X233763750Y-96876250D03*
X233763750Y-95606250D03*
X233763750Y-94336250D03*
X233763750Y-93066250D03*
X233763750Y-91796250D03*
%TD*%
D13*
%TO.C,TP22*%
X127158750Y-145062650D03*
%TD*%
D15*
%TO.C,R83*%
X67178750Y-134221250D03*
X67178750Y-132221250D03*
%TD*%
D32*
%TO.C,R65*%
X153988750Y-145261250D03*
X151988750Y-145261250D03*
%TD*%
D49*
%TO.C,R40*%
X126600000Y-112314850D03*
X131400000Y-112314850D03*
%TD*%
D17*
%TO.C,R56*%
X199763750Y-99336250D03*
X201763750Y-99336250D03*
%TD*%
D50*
%TO.C,C14*%
X50391401Y-94011250D03*
D51*
X46891401Y-94011250D03*
%TD*%
D19*
%TO.C,C7*%
X54738750Y-98048750D03*
X54738750Y-95973750D03*
%TD*%
%TO.C,C28*%
X238488750Y-147336250D03*
X238488750Y-145261250D03*
%TD*%
D40*
%TO.C,J8*%
X160900000Y-158000000D03*
D41*
X162500000Y-156000000D03*
D42*
X165000000Y-156000000D03*
X167500000Y-156000000D03*
%TD*%
D15*
%TO.C,R11*%
X47028750Y-122871250D03*
X47028750Y-120871250D03*
%TD*%
D14*
%TO.C,C83*%
X64716250Y-134221250D03*
X62641250Y-134221250D03*
%TD*%
D17*
%TO.C,R58*%
X199213750Y-84146250D03*
X201213750Y-84146250D03*
%TD*%
D12*
%TO.C,C75*%
X137451250Y-142261250D03*
X139526250Y-142261250D03*
%TD*%
D22*
%TO.C,D13*%
X188488750Y-136411250D03*
X188488750Y-133111250D03*
%TD*%
D13*
%TO.C,TP14*%
X155251250Y-100971250D03*
%TD*%
D21*
%TO.C,C12*%
X47988750Y-64261250D03*
X40488750Y-64261250D03*
%TD*%
D14*
%TO.C,C55*%
X222761250Y-120261250D03*
X220686250Y-120261250D03*
%TD*%
D16*
%TO.C,C6*%
X64238750Y-98761250D03*
X64238750Y-100836250D03*
%TD*%
D15*
%TO.C,R79*%
X121988750Y-71261250D03*
X121988750Y-69261250D03*
%TD*%
D13*
%TO.C,TP4*%
X117488750Y-94761250D03*
%TD*%
D14*
%TO.C,C74*%
X143526250Y-144761250D03*
X141451250Y-144761250D03*
%TD*%
D12*
%TO.C,C1*%
X59451250Y-114261250D03*
X61526250Y-114261250D03*
%TD*%
D17*
%TO.C,R27*%
X142226250Y-97646250D03*
X144226250Y-97646250D03*
%TD*%
D10*
%TO.C,R2*%
X67238750Y-89961250D03*
X67238750Y-96061250D03*
%TD*%
D18*
%TO.C,R32*%
X177488750Y-64011250D03*
X177488750Y-66011250D03*
%TD*%
D14*
%TO.C,C19*%
X112026250Y-93536250D03*
X109951250Y-93536250D03*
%TD*%
D15*
%TO.C,R57*%
X197213750Y-86146250D03*
X197213750Y-84146250D03*
%TD*%
D14*
%TO.C,C44*%
X164488750Y-66011250D03*
X162413750Y-66011250D03*
%TD*%
D52*
%TO.C,L4*%
X117488750Y-104786250D03*
X117488750Y-98736250D03*
%TD*%
D36*
%TO.C,RV3*%
X135488750Y-158061250D03*
X135488750Y-148461250D03*
D23*
X142988750Y-155761250D03*
D24*
X142988750Y-153261250D03*
X142988750Y-150761250D03*
%TD*%
D12*
%TO.C,C57*%
X236726250Y-91241250D03*
X238801250Y-91241250D03*
%TD*%
D32*
%TO.C,R18*%
X240488750Y-142761250D03*
X238488750Y-142761250D03*
%TD*%
D27*
%TO.C,U10*%
X148751250Y-83741250D03*
X148751250Y-85011250D03*
X148751250Y-86281250D03*
X148751250Y-87551250D03*
X153701250Y-87551250D03*
X153701250Y-86281250D03*
X153701250Y-85011250D03*
X153701250Y-83741250D03*
%TD*%
D15*
%TO.C,R49*%
X221851250Y-84876250D03*
X221851250Y-82876250D03*
%TD*%
%TO.C,R29*%
X188238750Y-85051250D03*
X188238750Y-83051250D03*
%TD*%
D13*
%TO.C,TP7*%
X239988750Y-127761250D03*
%TD*%
%TO.C,TP15*%
X212488750Y-102011250D03*
%TD*%
D16*
%TO.C,C34*%
X163768750Y-113052350D03*
X163768750Y-115127350D03*
%TD*%
D12*
%TO.C,C56*%
X236726250Y-93741250D03*
X238801250Y-93741250D03*
%TD*%
D39*
%TO.C,D4*%
X60738750Y-119761250D03*
X65738750Y-119761250D03*
%TD*%
D12*
%TO.C,C38*%
X180251250Y-90281250D03*
X182326250Y-90281250D03*
%TD*%
%TO.C,C32*%
X151731250Y-109489850D03*
X153806250Y-109489850D03*
%TD*%
D33*
%TO.C,SW5*%
X81488750Y-149261250D03*
D34*
X86568750Y-149261250D03*
D33*
X91648750Y-149261250D03*
D35*
X89108750Y-144181250D03*
X82758750Y-146721250D03*
%TD*%
D13*
%TO.C,TP23*%
X178668750Y-113589850D03*
%TD*%
D19*
%TO.C,C50*%
X174988750Y-66048750D03*
X174988750Y-63973750D03*
%TD*%
D14*
%TO.C,C77*%
X116247557Y-86234230D03*
X114172557Y-86234230D03*
%TD*%
D20*
%TO.C,J7*%
X213873750Y-39859850D03*
X230103750Y-39859850D03*
X213873750Y-33509850D03*
X230103750Y-33509850D03*
X213873750Y-46209850D03*
X230103750Y-46209850D03*
%TD*%
D15*
%TO.C,R4*%
X58738750Y-111761250D03*
X58738750Y-109761250D03*
%TD*%
D12*
%TO.C,C68*%
X211676250Y-80146250D03*
X213751250Y-80146250D03*
%TD*%
D13*
%TO.C,TP12*%
X142751250Y-100971250D03*
%TD*%
D16*
%TO.C,C70*%
X204213750Y-86108750D03*
X204213750Y-88183750D03*
%TD*%
D18*
%TO.C,R38*%
X222238750Y-59761250D03*
X222238750Y-61761250D03*
%TD*%
D23*
%TO.C,D9*%
X41028750Y-120331250D03*
D24*
X41028750Y-122871250D03*
%TD*%
D14*
%TO.C,C86*%
X78803750Y-78062650D03*
X76728750Y-78062650D03*
%TD*%
D20*
%TO.C,J2*%
X213238750Y-153912650D03*
X197008750Y-153912650D03*
X213238750Y-160262650D03*
X197008750Y-160262650D03*
X213238750Y-147562650D03*
X197008750Y-147562650D03*
%TD*%
D14*
%TO.C,C65*%
X201251250Y-81646250D03*
X199176250Y-81646250D03*
%TD*%
D21*
%TO.C,C13*%
X47988750Y-81261250D03*
X40488750Y-81261250D03*
%TD*%
D53*
%TO.C,R20*%
X152268750Y-118089850D03*
X152268750Y-122889850D03*
%TD*%
D32*
%TO.C,R52*%
X242851250Y-85376250D03*
X240851250Y-85376250D03*
%TD*%
D12*
%TO.C,C30*%
X213426250Y-138396250D03*
X215501250Y-138396250D03*
%TD*%
D32*
%TO.C,R80*%
X127151250Y-83211250D03*
X125151250Y-83211250D03*
%TD*%
D14*
%TO.C,C84*%
X84143750Y-134261250D03*
X82068750Y-134261250D03*
%TD*%
D32*
%TO.C,R45*%
X187738750Y-87551250D03*
X185738750Y-87551250D03*
%TD*%
D27*
%TO.C,U4*%
X214013750Y-131856250D03*
X214013750Y-133126250D03*
X214013750Y-134396250D03*
X214013750Y-135666250D03*
X218963750Y-135666250D03*
X218963750Y-134396250D03*
X218963750Y-133126250D03*
X218963750Y-131856250D03*
%TD*%
D18*
%TO.C,R33*%
X161988750Y-61011250D03*
X161988750Y-63011250D03*
%TD*%
%TO.C,R75*%
X100767750Y-145351650D03*
X100767750Y-147351650D03*
%TD*%
D19*
%TO.C,C21*%
X116738750Y-109798750D03*
X116738750Y-107723750D03*
%TD*%
D13*
%TO.C,TP10*%
X181288750Y-98741250D03*
%TD*%
D32*
%TO.C,R78*%
X126488750Y-66761250D03*
X124488750Y-66761250D03*
%TD*%
D15*
%TO.C,R69*%
X88210057Y-89734230D03*
X88210057Y-87734230D03*
%TD*%
D14*
%TO.C,C47*%
X146238750Y-85281250D03*
X144163750Y-85281250D03*
%TD*%
D15*
%TO.C,R31*%
X160701250Y-86281250D03*
X160701250Y-84281250D03*
%TD*%
D17*
%TO.C,R25*%
X180288750Y-96011250D03*
X182288750Y-96011250D03*
%TD*%
D25*
%TO.C,D23*%
X65678750Y-137221250D03*
X61678750Y-137221250D03*
%TD*%
D27*
%TO.C,U14*%
X229338750Y-81471250D03*
X229338750Y-82741250D03*
X229338750Y-84011250D03*
X229338750Y-85281250D03*
X234288750Y-85281250D03*
X234288750Y-84011250D03*
X234288750Y-82741250D03*
X234288750Y-81471250D03*
%TD*%
D13*
%TO.C,TP11*%
X237288750Y-99241250D03*
%TD*%
D54*
%TO.C,D15*%
X239988750Y-136111250D03*
X239988750Y-139411250D03*
%TD*%
D18*
%TO.C,R14*%
X190738750Y-143261250D03*
X190738750Y-145261250D03*
%TD*%
D22*
%TO.C,D14*%
X239988750Y-133911250D03*
X239988750Y-130611250D03*
%TD*%
D48*
%TO.C,Q2*%
X123276250Y-85761250D03*
X123276250Y-87661250D03*
X125151250Y-86711250D03*
%TD*%
D32*
%TO.C,R47*%
X160201250Y-88781250D03*
X158201250Y-88781250D03*
%TD*%
D13*
%TO.C,TP8*%
X169288750Y-97511250D03*
%TD*%
D51*
%TO.C,U20*%
X114813750Y-67942650D03*
X112273750Y-67942650D03*
X109733750Y-67942650D03*
X107193750Y-67942650D03*
X104653750Y-67942650D03*
X102113750Y-67942650D03*
X99573750Y-67942650D03*
X97033750Y-67942650D03*
X94493750Y-67942650D03*
X91953750Y-67942650D03*
X89413750Y-67942650D03*
X86873750Y-67942650D03*
X84333750Y-67942650D03*
X81793750Y-67942650D03*
X81793750Y-70482650D03*
X81793750Y-73022650D03*
X81793750Y-75562650D03*
X81793750Y-78102650D03*
X81793750Y-80642650D03*
X81793750Y-83182650D03*
X84333750Y-83182650D03*
X86873750Y-83182650D03*
X89413750Y-83182650D03*
X91953750Y-83182650D03*
X94493750Y-83182650D03*
X97033750Y-83182650D03*
X99573750Y-83182650D03*
X102113750Y-83182650D03*
X104653750Y-83182650D03*
X107193750Y-83182650D03*
X109733750Y-83182650D03*
X112273750Y-83182650D03*
X114813750Y-83182650D03*
X112273750Y-80642650D03*
X86873750Y-80642650D03*
X89413750Y-80642650D03*
X86873750Y-78102650D03*
X89413750Y-78102650D03*
X86873750Y-75562650D03*
X89413750Y-75562650D03*
X86873750Y-73022650D03*
X89413750Y-73022650D03*
X86873750Y-70482650D03*
X89413750Y-70482650D03*
%TD*%
D13*
%TO.C,TP20*%
X138988750Y-132761250D03*
%TD*%
D15*
%TO.C,R46*%
X139201250Y-86000000D03*
X139201250Y-84000000D03*
%TD*%
D23*
%TO.C,D20*%
X120988750Y-66536250D03*
D24*
X120988750Y-63996250D03*
%TD*%
D16*
%TO.C,C60*%
X177768750Y-116052350D03*
X177768750Y-118127350D03*
%TD*%
D15*
%TO.C,R67*%
X94960057Y-89734230D03*
X94960057Y-87734230D03*
%TD*%
D32*
%TO.C,R86*%
X213713750Y-90646250D03*
X211713750Y-90646250D03*
%TD*%
D17*
%TO.C,R13*%
X108488750Y-112261250D03*
X110488750Y-112261250D03*
%TD*%
D12*
%TO.C,C43*%
X174451250Y-61511250D03*
X176526250Y-61511250D03*
%TD*%
D16*
%TO.C,C85*%
X78553750Y-81025150D03*
X78553750Y-83100150D03*
%TD*%
D15*
%TO.C,R16*%
X210523750Y-128761250D03*
X210523750Y-126761250D03*
%TD*%
D50*
%TO.C,C5*%
X62141401Y-94261250D03*
D51*
X58641401Y-94261250D03*
%TD*%
D14*
%TO.C,C31*%
X219501250Y-129396250D03*
X217426250Y-129396250D03*
%TD*%
D12*
%TO.C,C63*%
X211726250Y-93836250D03*
X213801250Y-93836250D03*
%TD*%
%TO.C,C76*%
X151951250Y-142761250D03*
X154026250Y-142761250D03*
%TD*%
%TO.C,C35*%
X180251250Y-92781250D03*
X182326250Y-92781250D03*
%TD*%
%TO.C,C59*%
X236776250Y-82876250D03*
X238851250Y-82876250D03*
%TD*%
D27*
%TO.C,U11*%
X167013750Y-61606250D03*
X167013750Y-62876250D03*
X167013750Y-64146250D03*
X167013750Y-65416250D03*
X171963750Y-65416250D03*
X171963750Y-64146250D03*
X171963750Y-62876250D03*
X171963750Y-61606250D03*
%TD*%
M02*
