M48
; DRILL file {KiCad 7.0.8} date Fri Mar  8 11:10:11 2024
; FORMAT={-:-/ absolute / inch / decimal}
; #@! TF.CreationDate,2024-03-08T11:10:11-05:00
; #@! TF.GenerationSoftware,Kicad,Pcbnew,7.0.8
; #@! TF.FileFunction,MixedPlating,1,4
FMAT,2
INCH
; #@! TA.AperFunction,Plated,PTH,ViaDrill
T1C0.0157
; #@! TA.AperFunction,Plated,PTH,ViaDrill
T2C0.0276
; #@! TA.AperFunction,Plated,PTH,ComponentDrill
T3C0.0276
; #@! TA.AperFunction,Plated,PTH,ComponentDrill
T4C0.0354
; #@! TA.AperFunction,Plated,PTH,ComponentDrill
T5C0.0374
; #@! TA.AperFunction,Plated,PTH,ComponentDrill
T6C0.0394
; #@! TA.AperFunction,Plated,PTH,ComponentDrill
T7C0.0433
; #@! TA.AperFunction,Plated,PTH,ComponentDrill
T8C0.0472
; #@! TA.AperFunction,Plated,PTH,ComponentDrill
T9C0.0512
; #@! TA.AperFunction,Plated,PTH,ComponentDrill
T10C0.0551
; #@! TA.AperFunction,Plated,PTH,ComponentDrill
T11C0.0591
; #@! TA.AperFunction,Plated,PTH,ComponentDrill
T12C0.0630
; #@! TA.AperFunction,NonPlated,NPTH,ComponentDrill
T13C0.0472
; #@! TA.AperFunction,NonPlated,NPTH,ComponentDrill
T14C0.0669
; #@! TA.AperFunction,NonPlated,NPTH,ComponentDrill
T15C0.1063
; #@! TA.AperFunction,NonPlated,NPTH,ComponentDrill
T16C0.1575
%
G90
G05
T1
X2.3031Y-2.5492
X2.5039Y-1.2047
X2.6181Y-2.3031
X2.6476Y-1.9094
X2.6969Y-2.0276
X2.8346Y-2.0276
X2.8346Y-2.0965
X2.9248Y-3.0733
X3.0217Y-2.9331
X3.0799Y-5.3939
X3.0901Y-3.3567
X3.1201Y-1.7421
X3.1299Y-2.1654
X3.1783Y-5.2758
X3.1801Y-4.1571
X3.2087Y-3.5039
X3.2185Y-1.7421
X3.2185Y-2.1654
X3.2283Y-1.2303
X3.3071Y-1.7421
X3.3071Y-2.1654
X3.3465Y-3.9646
X3.3858Y-3.4843
X3.3957Y-1.7421
X3.3957Y-1.8307
X3.3957Y-1.9193
X3.3957Y-2.0079
X3.3957Y-2.0866
X3.3957Y-2.1654
X3.6614Y-3.4646
X3.7551Y-2.2874
X3.7992Y-3.4646
X3.8775Y-5.8075
X3.9567Y-3.4646
X3.9961Y-3.5827
X4.0217Y-4.151
X4.0251Y-6.1619
X4.0823Y-4.0313
X4.0853Y-5.4816
X4.0945Y-3.5827
X4.126Y-3.7441
X4.1929Y-3.5827
X4.4094Y-3.4647
X4.4244Y-2.2776
X4.4484Y-6.2308
X4.495Y-3.4624
X4.6748Y-6.2406
X4.748Y-3.522
X4.7795Y-5.4272
X4.794Y-6.141
X4.8027Y-2.8723
X4.811Y-5.1969
X4.8519Y-5.8961
X4.8534Y-3.5093
X4.8819Y-5.1969
X4.8991Y-2.8646
X4.9409Y-5.5709
X4.9528Y-5.1969
X5.5413Y-3.4438
X5.5606Y-5.6008
X5.5704Y-5.8075
X5.5709Y-5.5315
X5.6102Y-3.4843
X5.6984Y-3.6323
X5.7003Y-5.1461
X5.7673Y-4.902
X5.7771Y-5.5516
X5.7874Y-5.1772
X5.8268Y-3.5118
X5.8553Y-3.9468
X5.8854Y-3.7209
X5.8854Y-3.7701
X5.9055Y-5.1181
X5.9714Y-4.9537
X5.974Y-4.0359
X6.0133Y-4.5871
X6.0527Y-5.2367
X6.063Y-3.2283
X6.0719Y-3.7871
X6.0728Y-3.5433
X6.1118Y-4.7938
X6.1306Y-4.3106
X6.1413Y-5.8075
X6.1511Y-5.6205
X6.2102Y-3.6126
X6.22Y-3.8489
X6.2253Y-3.7065
X6.2684Y-4.409
X6.3086Y-3.2386
X6.3185Y-2.5989
X6.3972Y-3.3174
X6.4476Y-4.5957
X6.4724Y-2.6772
X6.5448Y-4.7544
X6.5748Y-3.6024
X6.6142Y-4.7638
X6.6339Y-3.5039
X6.6531Y-2.53
X6.6629Y-3.4552
X6.6838Y-4.8319
X6.6925Y-2.5693
X6.728Y-3.5585
X6.7561Y-4.3751
X6.7599Y-3.4537
X6.7614Y-4.2918
X6.8504Y-2.3622
X6.8504Y-3.4567
X6.8893Y-3.6323
X6.8893Y-3.7997
X6.8893Y-3.8587
X6.8898Y-3.5738
X6.909Y-3.7504
X6.9779Y-4.3705
X6.9976Y-3.9768
X6.9988Y-4.7237
X7.0173Y-2.4217
X7.0763Y-4.3705
X7.1059Y-3.7111
X7.2047Y-3.189
X7.2429Y-3.5544
X7.2429Y-3.78
X7.2437Y-3.652
X7.3224Y-3.1796
X7.3316Y-5.2386
X7.3819Y-3.6166
X7.4881Y-3.2697
X7.5088Y-5.7898
X7.8346Y-3.5494
X7.9228Y-3.3764
X7.9622Y-3.7209
X7.9652Y-3.4718
X8.0311Y-2.6678
X8.1138Y-3.3901
X8.1196Y-2.6678
X8.1295Y-3.9965
X8.1393Y-3.7406
X8.1492Y-3.8587
X8.159Y-3.8095
X8.1688Y-3.6126
X8.189Y-4.4882
X8.2377Y-4.1245
X8.2673Y-3.3764
X8.287Y-2.5103
X8.2883Y-5.4552
X8.3362Y-2.5595
X8.3465Y-5.4724
X8.3858Y-3.0709
X8.3868Y-4.8095
X8.4675Y-4.6579
X8.4809Y-3.6943
X8.4838Y-3.7898
X8.4852Y-5.5182
X8.4937Y-3.1599
X8.5005Y-3.9109
X8.5039Y-2.3228
X8.5039Y-3.5688
X8.5324Y-5.5182
X8.5601Y-5.0222
X8.6418Y-5.0197
X8.6708Y-2.3922
X8.7008Y-3.4252
X8.7008Y-4.4882
X8.919Y-3.664
X8.9291Y-3.4331
X8.9306Y-3.5202
X8.9858Y-3.1304
X9.0744Y-3.8193
X9.094Y-3.9079
X9.1039Y-3.7209
X9.1137Y-3.6126
X9.1137Y-3.7701
X9.2023Y-4.026
X9.3199Y-3.75
X9.3234Y-3.0782
X9.3303Y-3.4355
X9.4681Y-3.5831
X9.4681Y-3.6914
X9.4779Y-3.8095
X9.4824Y-3.1644
X9.4832Y-5.8764
X9.5285Y-5.4886
T2
X4.8917Y-4.7441
X5.2795Y-4.7441
T3
X2.4114Y-2.7461
X2.7559Y-2.0965
X3.3661Y-1.2894
X4.3291Y-3.5033
X5.0062Y-5.7111
X5.472Y-5.2268
X5.6201Y-3.9752
X5.857Y-4.2752
X6.0822Y-5.3843
X6.1123Y-3.9752
X6.3775Y-2.2839
X6.6649Y-3.839
X7.0342Y-4.472
X7.1374Y-3.8875
X7.2633Y-2.3036
X7.4799Y-5.1284
X7.9041Y-4.0487
X8.0015Y-2.2937
X8.3657Y-4.0162
X8.8696Y-3.8481
X8.9267Y-2.3134
X9.3421Y-3.9071
X9.4484Y-5.03
T4
X2.4104Y-2.5591
X2.5104Y-2.5591
X2.7559Y-2.214
X2.7559Y-2.314
X4.7633Y-2.5195
X4.7633Y-2.6195
X4.7697Y-3.1672
X4.7697Y-3.2672
X5.7586Y-4.5689
X5.7586Y-4.6689
T5
X2.7559Y-1.3888
X2.8543Y-1.3888
X2.9528Y-1.3888
X3.0512Y-1.3888
X6.3976Y-5.8455
X6.3976Y-6.1417
X6.4961Y-5.8455
X6.4961Y-6.1417
X6.5945Y-5.8455
X6.5945Y-6.1417
T6
X5.6295Y-5.9355
X5.6295Y-6.0339
X5.6295Y-6.1323
X6.2122Y-5.9355
X6.2122Y-6.0339
X6.2122Y-6.1323
X7.657Y-5.1284
X7.657Y-5.2268
X7.657Y-5.3252
X9.3303Y-5.1481
X9.3303Y-5.2465
X9.3303Y-5.3449
T7
X3.2202Y-2.6749
X3.2202Y-2.7749
X3.2202Y-2.8749
X3.2202Y-2.9749
X3.2202Y-3.0749
X3.2202Y-3.1749
X3.2202Y-3.2749
X3.3202Y-2.6749
X3.3202Y-3.2749
X3.4202Y-2.6749
X3.4202Y-2.7749
X3.4202Y-2.8749
X3.4202Y-2.9749
X3.4202Y-3.0749
X3.4202Y-3.1749
X3.4202Y-3.2749
X3.5202Y-2.6749
X3.5202Y-2.7749
X3.5202Y-2.8749
X3.5202Y-2.9749
X3.5202Y-3.0749
X3.5202Y-3.1749
X3.5202Y-3.2749
X3.6202Y-2.6749
X3.6202Y-3.2749
X3.7202Y-2.6749
X3.7202Y-3.2749
X3.8202Y-2.6749
X3.8202Y-3.2749
X3.9202Y-2.6749
X3.9202Y-3.2749
X4.0202Y-2.6749
X4.0202Y-3.2749
X4.1202Y-2.6749
X4.1202Y-3.2749
X4.2202Y-2.6749
X4.2202Y-3.2749
X4.3202Y-2.6749
X4.3202Y-3.2749
X4.4202Y-2.6749
X4.4202Y-3.1749
X4.4202Y-3.2749
X4.5202Y-2.6749
X4.5202Y-3.2749
T8
X4.396Y-5.8883
T9
X4.105Y-5.6635
X4.105Y-5.9045
X4.2755Y-5.493
X4.2755Y-6.0749
X4.5165Y-5.493
X4.5165Y-6.0749
X4.687Y-5.6635
X4.687Y-5.9045
T11
X3.2677Y-4.5311
X3.2677Y-5.7663
X3.5177Y-4.4311
X3.5177Y-5.6663
X3.9157Y-1.6693
X4.0157Y-1.9193
X4.1728Y-4.5311
X4.4228Y-4.4311
X4.7425Y-1.6693
X4.8425Y-1.9193
T12
X5.9848Y-1.3193
X5.9848Y-1.5693
X5.9848Y-1.8193
X6.6238Y-1.3193
X6.6238Y-1.5693
X6.6238Y-1.8193
X6.7966Y-1.3193
X6.7966Y-1.5693
X6.7966Y-1.8193
X7.4356Y-1.3193
X7.4356Y-1.5693
X7.4356Y-1.8193
X7.6084Y-1.3193
X7.6084Y-1.5693
X7.6084Y-1.8193
X7.7562Y-5.8096
X7.7562Y-6.0596
X7.7562Y-6.3096
X8.2474Y-1.3193
X8.2474Y-1.5693
X8.2474Y-1.8193
X8.3952Y-5.8096
X8.3952Y-6.0596
X8.3952Y-6.3096
X8.4202Y-1.3193
X8.4202Y-1.5693
X8.4202Y-1.8193
X8.6171Y-5.8096
X8.6171Y-6.0596
X8.6171Y-6.3096
X9.0592Y-1.3193
X9.0592Y-1.5693
X9.0592Y-1.8193
X9.2561Y-5.8096
X9.2561Y-6.0596
X9.2561Y-6.3096
T13
X3.1142Y-1.31
X6.3346Y-5.9242
X6.3346Y-6.2205
T14
X3.2177Y-4.6311
X3.2177Y-5.8663
X3.6177Y-4.6311
X3.6177Y-5.8663
X3.8157Y-1.6193
X3.8157Y-2.0193
X4.1228Y-4.6311
X4.5228Y-4.6311
X4.6425Y-1.6193
X4.6425Y-2.0193
T15
X2.378Y-1.2913
X2.378Y-6.3386
X3.0157Y-3.9921
X4.8819Y-5.0
X5.4646Y-2.9134
X5.4724Y-1.2913
X7.1417Y-6.3386
X9.2992Y-4.4409
X9.5748Y-1.2913
X9.5748Y-6.3386
T16
X3.4177Y-4.6311
X3.4177Y-5.8663
X3.8157Y-1.8193
X4.3228Y-4.6311
X4.6425Y-1.8193
T10
G00X5.3342Y-5.8331
M15
G01X5.3342Y-5.8567
M16
G05
G00X5.3342Y-6.2111
M15
G01X5.3342Y-6.2347
M16
G05
G00X5.9169Y-5.8331
M15
G01X5.9169Y-5.8567
M16
G05
G00X5.9169Y-6.2111
M15
G01X5.9169Y-6.2347
M16
G05
G00X7.9523Y-5.0497
M15
G01X7.9523Y-5.026
M16
G05
G00X7.9523Y-5.4276
M15
G01X7.9523Y-5.404
M16
G05
G00X9.035Y-5.0457
M15
G01X9.035Y-5.0693
M16
G05
G00X9.035Y-5.4237
M15
G01X9.035Y-5.4473
M16
G05
T0
M30
