%TF.GenerationSoftware,KiCad,Pcbnew,7.0.8*%
%TF.CreationDate,2024-03-08T11:10:07-05:00*%
%TF.ProjectId,Quad Joystick Mixer,51756164-204a-46f7-9973-7469636b204d,rev?*%
%TF.SameCoordinates,Original*%
%TF.FileFunction,Paste,Top*%
%TF.FilePolarity,Positive*%
%FSLAX46Y46*%
G04 Gerber Fmt 4.6, Leading zero omitted, Abs format (unit mm)*
G04 Created by KiCad (PCBNEW 7.0.8) date 2024-03-08 11:10:07*
%MOMM*%
%LPD*%
G01*
G04 APERTURE LIST*
G04 Aperture macros list*
%AMRoundRect*
0 Rectangle with rounded corners*
0 $1 Rounding radius*
0 $2 $3 $4 $5 $6 $7 $8 $9 X,Y pos of 4 corners*
0 Add a 4 corners polygon primitive as box body*
4,1,4,$2,$3,$4,$5,$6,$7,$8,$9,$2,$3,0*
0 Add four circle primitives for the rounded corners*
1,1,$1+$1,$2,$3*
1,1,$1+$1,$4,$5*
1,1,$1+$1,$6,$7*
1,1,$1+$1,$8,$9*
0 Add four rect primitives between the rounded corners*
20,1,$1+$1,$2,$3,$4,$5,0*
20,1,$1+$1,$4,$5,$6,$7,0*
20,1,$1+$1,$6,$7,$8,$9,0*
20,1,$1+$1,$8,$9,$2,$3,0*%
G04 Aperture macros list end*
%ADD10R,0.650000X1.560000*%
%ADD11RoundRect,0.250000X-0.337500X-0.475000X0.337500X-0.475000X0.337500X0.475000X-0.337500X0.475000X0*%
%ADD12RoundRect,0.250000X0.337500X0.475000X-0.337500X0.475000X-0.337500X-0.475000X0.337500X-0.475000X0*%
%ADD13RoundRect,0.250000X0.450000X-0.350000X0.450000X0.350000X-0.450000X0.350000X-0.450000X-0.350000X0*%
%ADD14RoundRect,0.250000X-0.475000X0.337500X-0.475000X-0.337500X0.475000X-0.337500X0.475000X0.337500X0*%
%ADD15RoundRect,0.250000X-0.350000X-0.450000X0.350000X-0.450000X0.350000X0.450000X-0.350000X0.450000X0*%
%ADD16RoundRect,0.250000X0.475000X-0.337500X0.475000X0.337500X-0.475000X0.337500X-0.475000X-0.337500X0*%
%ADD17RoundRect,0.225000X0.375000X-0.225000X0.375000X0.225000X-0.375000X0.225000X-0.375000X-0.225000X0*%
%ADD18RoundRect,0.250000X-0.450000X0.350000X-0.450000X-0.350000X0.450000X-0.350000X0.450000X0.350000X0*%
%ADD19RoundRect,0.250000X1.000000X0.650000X-1.000000X0.650000X-1.000000X-0.650000X1.000000X-0.650000X0*%
%ADD20RoundRect,0.150000X-0.825000X-0.150000X0.825000X-0.150000X0.825000X0.150000X-0.825000X0.150000X0*%
%ADD21RoundRect,0.250000X0.350000X0.450000X-0.350000X0.450000X-0.350000X-0.450000X0.350000X-0.450000X0*%
%ADD22RoundRect,0.250000X-0.850000X-0.350000X0.850000X-0.350000X0.850000X0.350000X-0.850000X0.350000X0*%
%ADD23RoundRect,0.250000X-1.275000X-1.125000X1.275000X-1.125000X1.275000X1.125000X-1.275000X1.125000X0*%
%ADD24RoundRect,0.250000X-0.650000X1.500000X-0.650000X-1.500000X0.650000X-1.500000X0.650000X1.500000X0*%
%ADD25RoundRect,0.150000X0.150000X-0.825000X0.150000X0.825000X-0.150000X0.825000X-0.150000X-0.825000X0*%
%ADD26RoundRect,0.225000X-0.225000X-0.375000X0.225000X-0.375000X0.225000X0.375000X-0.225000X0.375000X0*%
%ADD27RoundRect,0.225000X0.225000X0.375000X-0.225000X0.375000X-0.225000X-0.375000X0.225000X-0.375000X0*%
%ADD28RoundRect,0.250000X1.500000X0.650000X-1.500000X0.650000X-1.500000X-0.650000X1.500000X-0.650000X0*%
%ADD29RoundRect,0.150000X-0.587500X-0.150000X0.587500X-0.150000X0.587500X0.150000X-0.587500X0.150000X0*%
%ADD30RoundRect,0.249999X-0.450001X-1.075001X0.450001X-1.075001X0.450001X1.075001X-0.450001X1.075001X0*%
%ADD31RoundRect,0.249999X-1.075001X0.450001X-1.075001X-0.450001X1.075001X-0.450001X1.075001X0.450001X0*%
%ADD32RoundRect,0.225000X-0.375000X0.225000X-0.375000X-0.225000X0.375000X-0.225000X0.375000X0.225000X0*%
G04 APERTURE END LIST*
D10*
%TO.C,U5*%
X151568750Y-114839850D03*
X152518750Y-114839850D03*
X153468750Y-114839850D03*
X153468750Y-112139850D03*
X151568750Y-112139850D03*
%TD*%
D11*
%TO.C,C72*%
X142976250Y-141126250D03*
X145051250Y-141126250D03*
%TD*%
D12*
%TO.C,C73*%
X157988750Y-145261250D03*
X155913750Y-145261250D03*
%TD*%
D13*
%TO.C,R81*%
X120651250Y-87711250D03*
X120651250Y-85711250D03*
%TD*%
D14*
%TO.C,C69*%
X228851250Y-87338750D03*
X228851250Y-89413750D03*
%TD*%
D12*
%TO.C,C71*%
X149013750Y-133126250D03*
X146938750Y-133126250D03*
%TD*%
D15*
%TO.C,R77*%
X117767750Y-137851650D03*
X119767750Y-137851650D03*
%TD*%
D16*
%TO.C,C52*%
X205738750Y-63298750D03*
X205738750Y-61223750D03*
%TD*%
%TO.C,C3*%
X82000000Y-35250000D03*
X82000000Y-33175000D03*
%TD*%
D17*
%TO.C,D12*%
X191488750Y-136411250D03*
X191488750Y-133111250D03*
%TD*%
D14*
%TO.C,C25*%
X213023750Y-126723750D03*
X213023750Y-128798750D03*
%TD*%
D18*
%TO.C,R30*%
X141701250Y-84000000D03*
X141701250Y-86000000D03*
%TD*%
D12*
%TO.C,C54*%
X206238750Y-65761250D03*
X204163750Y-65761250D03*
%TD*%
D15*
%TO.C,R21*%
X155518750Y-115739850D03*
X157518750Y-115739850D03*
%TD*%
D12*
%TO.C,C29*%
X220001250Y-138396250D03*
X217926250Y-138396250D03*
%TD*%
D19*
%TO.C,D22*%
X108840000Y-105395000D03*
X104840000Y-105395000D03*
%TD*%
D20*
%TO.C,U19*%
X143538750Y-135221250D03*
X143538750Y-136491250D03*
X143538750Y-137761250D03*
X143538750Y-139031250D03*
X148488750Y-139031250D03*
X148488750Y-137761250D03*
X148488750Y-136491250D03*
X148488750Y-135221250D03*
%TD*%
D18*
%TO.C,R15*%
X210463750Y-130896250D03*
X210463750Y-132896250D03*
%TD*%
%TO.C,R48*%
X220723750Y-116011250D03*
X220723750Y-118011250D03*
%TD*%
D11*
%TO.C,C39*%
X154226250Y-94146250D03*
X156301250Y-94146250D03*
%TD*%
D15*
%TO.C,R63*%
X116767750Y-156851650D03*
X118767750Y-156851650D03*
%TD*%
D14*
%TO.C,C80*%
X78710057Y-72946730D03*
X78710057Y-75021730D03*
%TD*%
D21*
%TO.C,R22*%
X157518750Y-111989850D03*
X155518750Y-111989850D03*
%TD*%
D18*
%TO.C,R19*%
X240988750Y-145261250D03*
X240988750Y-147261250D03*
%TD*%
D21*
%TO.C,R53*%
X238851250Y-85376250D03*
X236851250Y-85376250D03*
%TD*%
D11*
%TO.C,C46*%
X183738750Y-85051250D03*
X185813750Y-85051250D03*
%TD*%
D22*
%TO.C,U1*%
X75050000Y-46720000D03*
D23*
X79675000Y-47475000D03*
X79675000Y-50525000D03*
X83025000Y-47475000D03*
X83025000Y-50525000D03*
D22*
X75050000Y-51280000D03*
%TD*%
D15*
%TO.C,R51*%
X236763750Y-96876250D03*
X238763750Y-96876250D03*
%TD*%
D18*
%TO.C,R23*%
X166268750Y-117089850D03*
X166268750Y-119089850D03*
%TD*%
D24*
%TO.C,D5*%
X64750000Y-36750000D03*
X64750000Y-41750000D03*
%TD*%
D17*
%TO.C,D19*%
X151488750Y-136411250D03*
X151488750Y-133111250D03*
%TD*%
D14*
%TO.C,C81*%
X123158750Y-146025150D03*
X123158750Y-148100150D03*
%TD*%
D11*
%TO.C,C8*%
X183701250Y-82551250D03*
X185776250Y-82551250D03*
%TD*%
D13*
%TO.C,R84*%
X86810000Y-134005000D03*
X86810000Y-132005000D03*
%TD*%
D15*
%TO.C,R59*%
X211763750Y-99336250D03*
X213763750Y-99336250D03*
%TD*%
D13*
%TO.C,R66*%
X98460057Y-89734230D03*
X98460057Y-87734230D03*
%TD*%
D25*
%TO.C,U2*%
X60845000Y-55975000D03*
X62115000Y-55975000D03*
X63385000Y-55975000D03*
X64655000Y-55975000D03*
X64655000Y-51025000D03*
X63385000Y-51025000D03*
X62115000Y-51025000D03*
X60845000Y-51025000D03*
%TD*%
D11*
%TO.C,C11*%
X60962500Y-58500000D03*
X63037500Y-58500000D03*
%TD*%
D12*
%TO.C,C9*%
X173776250Y-86051250D03*
X171701250Y-86051250D03*
%TD*%
D15*
%TO.C,R50*%
X224313750Y-80376250D03*
X226313750Y-80376250D03*
%TD*%
D11*
%TO.C,C62*%
X211726250Y-96336250D03*
X213801250Y-96336250D03*
%TD*%
D15*
%TO.C,R17*%
X225488750Y-125261250D03*
X227488750Y-125261250D03*
%TD*%
D11*
%TO.C,C41*%
X156163750Y-83281250D03*
X158238750Y-83281250D03*
%TD*%
%TO.C,C4*%
X72712500Y-39500000D03*
X74787500Y-39500000D03*
%TD*%
D15*
%TO.C,R73*%
X109267750Y-158351650D03*
X111267750Y-158351650D03*
%TD*%
D20*
%TO.C,U16*%
X204238750Y-80241250D03*
X204238750Y-81511250D03*
X204238750Y-82781250D03*
X204238750Y-84051250D03*
X209188750Y-84051250D03*
X209188750Y-82781250D03*
X209188750Y-81511250D03*
X209188750Y-80241250D03*
%TD*%
D21*
%TO.C,R64*%
X139488750Y-144761250D03*
X137488750Y-144761250D03*
%TD*%
D15*
%TO.C,R9*%
X74500000Y-58500000D03*
X76500000Y-58500000D03*
%TD*%
D14*
%TO.C,C33*%
X155268750Y-117952350D03*
X155268750Y-120027350D03*
%TD*%
D11*
%TO.C,C66*%
X211676250Y-83146250D03*
X213751250Y-83146250D03*
%TD*%
%TO.C,C10*%
X60962500Y-61000000D03*
X63037500Y-61000000D03*
%TD*%
D18*
%TO.C,R37*%
X202738750Y-61261250D03*
X202738750Y-63261250D03*
%TD*%
D11*
%TO.C,C67*%
X236813750Y-80376250D03*
X238888750Y-80376250D03*
%TD*%
D12*
%TO.C,C42*%
X146238750Y-88281250D03*
X144163750Y-88281250D03*
%TD*%
D11*
%TO.C,C78*%
X109922557Y-86234230D03*
X111997557Y-86234230D03*
%TD*%
D26*
%TO.C,D16*%
X209723750Y-120261250D03*
X213023750Y-120261250D03*
%TD*%
D27*
%TO.C,D17*%
X218373750Y-120261250D03*
X215073750Y-120261250D03*
%TD*%
D20*
%TO.C,U9*%
X146751250Y-92201250D03*
X146751250Y-93471250D03*
X146751250Y-94741250D03*
X146751250Y-96011250D03*
X146751250Y-97281250D03*
X146751250Y-98551250D03*
X146751250Y-99821250D03*
X146751250Y-101091250D03*
X151701250Y-101091250D03*
X151701250Y-99821250D03*
X151701250Y-98551250D03*
X151701250Y-97281250D03*
X151701250Y-96011250D03*
X151701250Y-94741250D03*
X151701250Y-93471250D03*
X151701250Y-92201250D03*
%TD*%
D26*
%TO.C,D18*%
X141488750Y-132761250D03*
X144788750Y-132761250D03*
%TD*%
D19*
%TO.C,D26*%
X102920000Y-58210000D03*
X98920000Y-58210000D03*
%TD*%
D20*
%TO.C,U6*%
X176288750Y-82511250D03*
X176288750Y-83781250D03*
X176288750Y-85051250D03*
X176288750Y-86321250D03*
X181238750Y-86321250D03*
X181238750Y-85051250D03*
X181238750Y-83781250D03*
X181238750Y-82511250D03*
%TD*%
D11*
%TO.C,C48*%
X156201250Y-86281250D03*
X158276250Y-86281250D03*
%TD*%
D20*
%TO.C,U17*%
X204288750Y-94391250D03*
X204288750Y-95661250D03*
X204288750Y-96931250D03*
X204288750Y-98201250D03*
X204288750Y-99471250D03*
X204288750Y-100741250D03*
X204288750Y-102011250D03*
X204288750Y-103281250D03*
X209238750Y-103281250D03*
X209238750Y-102011250D03*
X209238750Y-100741250D03*
X209238750Y-99471250D03*
X209238750Y-98201250D03*
X209238750Y-96931250D03*
X209238750Y-95661250D03*
X209238750Y-94391250D03*
%TD*%
D16*
%TO.C,C16*%
X173488750Y-111127350D03*
X173488750Y-109052350D03*
%TD*%
D11*
%TO.C,C15*%
X63500000Y-46250000D03*
X65575000Y-46250000D03*
%TD*%
D18*
%TO.C,R28*%
X169238750Y-84051250D03*
X169238750Y-86051250D03*
%TD*%
D13*
%TO.C,R87*%
X197238750Y-90261250D03*
X197238750Y-88261250D03*
%TD*%
D12*
%TO.C,C82*%
X107877500Y-102395000D03*
X105802500Y-102395000D03*
%TD*%
D21*
%TO.C,R76*%
X105767750Y-137351650D03*
X103767750Y-137351650D03*
%TD*%
D11*
%TO.C,C37*%
X205336250Y-120261250D03*
X207411250Y-120261250D03*
%TD*%
D13*
%TO.C,R68*%
X91460057Y-89734230D03*
X91460057Y-87734230D03*
%TD*%
D19*
%TO.C,D24*%
X85310000Y-137005000D03*
X81310000Y-137005000D03*
%TD*%
D18*
%TO.C,R62*%
X121767750Y-152351650D03*
X121767750Y-154351650D03*
%TD*%
D13*
%TO.C,R82*%
X110340000Y-102395000D03*
X110340000Y-100395000D03*
%TD*%
D16*
%TO.C,C51*%
X216238750Y-65298750D03*
X216238750Y-63223750D03*
%TD*%
D14*
%TO.C,C26*%
X210463750Y-134896250D03*
X210463750Y-136971250D03*
%TD*%
D19*
%TO.C,D25*%
X119420000Y-57880000D03*
X115420000Y-57880000D03*
%TD*%
D13*
%TO.C,R88*%
X189788750Y-91741250D03*
X189788750Y-89741250D03*
%TD*%
D14*
%TO.C,C36*%
X169768750Y-119052350D03*
X169768750Y-121127350D03*
%TD*%
D12*
%TO.C,C58*%
X226351250Y-82876250D03*
X224276250Y-82876250D03*
%TD*%
%TO.C,C45*%
X173776250Y-83551250D03*
X171701250Y-83551250D03*
%TD*%
D15*
%TO.C,R39*%
X206238750Y-58761250D03*
X208238750Y-58761250D03*
%TD*%
D20*
%TO.C,U12*%
X208763750Y-61356250D03*
X208763750Y-62626250D03*
X208763750Y-63896250D03*
X208763750Y-65166250D03*
X213713750Y-65166250D03*
X213713750Y-63896250D03*
X213713750Y-62626250D03*
X213713750Y-61356250D03*
%TD*%
D11*
%TO.C,C27*%
X225451250Y-122761250D03*
X227526250Y-122761250D03*
%TD*%
D18*
%TO.C,R8*%
X166268750Y-113089850D03*
X166268750Y-115089850D03*
%TD*%
%TO.C,R35*%
X179988750Y-60011250D03*
X179988750Y-62011250D03*
%TD*%
%TO.C,R72*%
X123158750Y-142062650D03*
X123158750Y-144062650D03*
%TD*%
D11*
%TO.C,C40*%
X154188750Y-91646250D03*
X156263750Y-91646250D03*
%TD*%
D13*
%TO.C,R85*%
X166738750Y-90011250D03*
X166738750Y-88011250D03*
%TD*%
D20*
%TO.C,U8*%
X172788750Y-90471250D03*
X172788750Y-91741250D03*
X172788750Y-93011250D03*
X172788750Y-94281250D03*
X172788750Y-95551250D03*
X172788750Y-96821250D03*
X172788750Y-98091250D03*
X172788750Y-99361250D03*
X177738750Y-99361250D03*
X177738750Y-98091250D03*
X177738750Y-96821250D03*
X177738750Y-95551250D03*
X177738750Y-94281250D03*
X177738750Y-93011250D03*
X177738750Y-91741250D03*
X177738750Y-90471250D03*
%TD*%
D21*
%TO.C,R61*%
X213713750Y-85646250D03*
X211713750Y-85646250D03*
%TD*%
D11*
%TO.C,C53*%
X216201250Y-60761250D03*
X218276250Y-60761250D03*
%TD*%
D20*
%TO.C,U7*%
X169793750Y-113184850D03*
X169793750Y-114454850D03*
X169793750Y-115724850D03*
X169793750Y-116994850D03*
X174743750Y-116994850D03*
X174743750Y-115724850D03*
X174743750Y-114454850D03*
X174743750Y-113184850D03*
%TD*%
D15*
%TO.C,R26*%
X154226250Y-97646250D03*
X156226250Y-97646250D03*
%TD*%
D16*
%TO.C,C49*%
X164488750Y-63048750D03*
X164488750Y-60973750D03*
%TD*%
D18*
%TO.C,R34*%
X166988750Y-57511250D03*
X166988750Y-59511250D03*
%TD*%
D15*
%TO.C,R60*%
X211713750Y-88146250D03*
X213713750Y-88146250D03*
%TD*%
D11*
%TO.C,C2*%
X74462500Y-53750000D03*
X76537500Y-53750000D03*
%TD*%
D13*
%TO.C,R44*%
X166738750Y-86051250D03*
X166738750Y-84051250D03*
%TD*%
D28*
%TO.C,D1*%
X75000000Y-42750000D03*
X70000000Y-42750000D03*
%TD*%
D29*
%TO.C,Q1*%
X124551250Y-69311250D03*
X124551250Y-71211250D03*
X126426250Y-70261250D03*
%TD*%
D18*
%TO.C,R36*%
X218738750Y-63261250D03*
X218738750Y-65261250D03*
%TD*%
%TO.C,R74*%
X102267750Y-152851650D03*
X102267750Y-154851650D03*
%TD*%
D16*
%TO.C,C24*%
X193488750Y-145298750D03*
X193488750Y-143223750D03*
%TD*%
D18*
%TO.C,R3*%
X146268750Y-121089850D03*
X146268750Y-123089850D03*
%TD*%
%TO.C,R24*%
X208623750Y-116011250D03*
X208623750Y-118011250D03*
%TD*%
D20*
%TO.C,U13*%
X228813750Y-91796250D03*
X228813750Y-93066250D03*
X228813750Y-94336250D03*
X228813750Y-95606250D03*
X228813750Y-96876250D03*
X228813750Y-98146250D03*
X228813750Y-99416250D03*
X228813750Y-100686250D03*
X233763750Y-100686250D03*
X233763750Y-99416250D03*
X233763750Y-98146250D03*
X233763750Y-96876250D03*
X233763750Y-95606250D03*
X233763750Y-94336250D03*
X233763750Y-93066250D03*
X233763750Y-91796250D03*
%TD*%
D13*
%TO.C,R83*%
X89175000Y-102590000D03*
X89175000Y-100590000D03*
%TD*%
D21*
%TO.C,R65*%
X153988750Y-145261250D03*
X151988750Y-145261250D03*
%TD*%
D30*
%TO.C,R40*%
X126600000Y-112314850D03*
X131400000Y-112314850D03*
%TD*%
D15*
%TO.C,R56*%
X199763750Y-99336250D03*
X201763750Y-99336250D03*
%TD*%
D16*
%TO.C,C28*%
X238488750Y-147336250D03*
X238488750Y-145261250D03*
%TD*%
D13*
%TO.C,R11*%
X66500000Y-63250000D03*
X66500000Y-61250000D03*
%TD*%
D12*
%TO.C,C83*%
X86712500Y-102590000D03*
X84637500Y-102590000D03*
%TD*%
D15*
%TO.C,R58*%
X199213750Y-84146250D03*
X201213750Y-84146250D03*
%TD*%
D11*
%TO.C,C75*%
X137451250Y-142261250D03*
X139526250Y-142261250D03*
%TD*%
D17*
%TO.C,D13*%
X188488750Y-136411250D03*
X188488750Y-133111250D03*
%TD*%
D16*
%TO.C,C12*%
X65500000Y-33537500D03*
X65500000Y-31462500D03*
%TD*%
D12*
%TO.C,C55*%
X222761250Y-120261250D03*
X220686250Y-120261250D03*
%TD*%
D14*
%TO.C,C6*%
X69250000Y-46462500D03*
X69250000Y-48537500D03*
%TD*%
D13*
%TO.C,R79*%
X121988750Y-71261250D03*
X121988750Y-69261250D03*
%TD*%
D12*
%TO.C,C74*%
X143526250Y-144761250D03*
X141451250Y-144761250D03*
%TD*%
D11*
%TO.C,C1*%
X74462500Y-56000000D03*
X76537500Y-56000000D03*
%TD*%
D15*
%TO.C,R27*%
X142226250Y-97646250D03*
X144226250Y-97646250D03*
%TD*%
D18*
%TO.C,R32*%
X177488750Y-64011250D03*
X177488750Y-66011250D03*
%TD*%
D13*
%TO.C,R57*%
X197213750Y-86146250D03*
X197213750Y-84146250D03*
%TD*%
D12*
%TO.C,C44*%
X164488750Y-66011250D03*
X162413750Y-66011250D03*
%TD*%
D11*
%TO.C,C57*%
X236726250Y-91241250D03*
X238801250Y-91241250D03*
%TD*%
D21*
%TO.C,R18*%
X240488750Y-142761250D03*
X238488750Y-142761250D03*
%TD*%
D20*
%TO.C,U10*%
X148751250Y-83741250D03*
X148751250Y-85011250D03*
X148751250Y-86281250D03*
X148751250Y-87551250D03*
X153701250Y-87551250D03*
X153701250Y-86281250D03*
X153701250Y-85011250D03*
X153701250Y-83741250D03*
%TD*%
D13*
%TO.C,R49*%
X221851250Y-84876250D03*
X221851250Y-82876250D03*
%TD*%
%TO.C,R29*%
X188238750Y-85051250D03*
X188238750Y-83051250D03*
%TD*%
D14*
%TO.C,C34*%
X163768750Y-113052350D03*
X163768750Y-115127350D03*
%TD*%
D11*
%TO.C,C56*%
X236726250Y-93741250D03*
X238801250Y-93741250D03*
%TD*%
%TO.C,C38*%
X180251250Y-90281250D03*
X182326250Y-90281250D03*
%TD*%
%TO.C,C32*%
X151731250Y-109489850D03*
X153806250Y-109489850D03*
%TD*%
D16*
%TO.C,C50*%
X174988750Y-66048750D03*
X174988750Y-63973750D03*
%TD*%
D12*
%TO.C,C77*%
X116247557Y-86234230D03*
X114172557Y-86234230D03*
%TD*%
D11*
%TO.C,C68*%
X211676250Y-80146250D03*
X213751250Y-80146250D03*
%TD*%
D14*
%TO.C,C70*%
X204213750Y-86108750D03*
X204213750Y-88183750D03*
%TD*%
D18*
%TO.C,R38*%
X222238750Y-59761250D03*
X222238750Y-61761250D03*
%TD*%
D12*
%TO.C,C86*%
X78803750Y-78062650D03*
X76728750Y-78062650D03*
%TD*%
%TO.C,C65*%
X201251250Y-81646250D03*
X199176250Y-81646250D03*
%TD*%
D11*
%TO.C,C13*%
X63462500Y-48500000D03*
X65537500Y-48500000D03*
%TD*%
D31*
%TO.C,R20*%
X152268750Y-118089850D03*
X152268750Y-122889850D03*
%TD*%
D21*
%TO.C,R52*%
X242851250Y-85376250D03*
X240851250Y-85376250D03*
%TD*%
D11*
%TO.C,C30*%
X213426250Y-138396250D03*
X215501250Y-138396250D03*
%TD*%
D21*
%TO.C,R80*%
X127151250Y-83211250D03*
X125151250Y-83211250D03*
%TD*%
D12*
%TO.C,C84*%
X84385000Y-134005000D03*
X82310000Y-134005000D03*
%TD*%
D21*
%TO.C,R45*%
X187738750Y-87551250D03*
X185738750Y-87551250D03*
%TD*%
D20*
%TO.C,U4*%
X214013750Y-131856250D03*
X214013750Y-133126250D03*
X214013750Y-134396250D03*
X214013750Y-135666250D03*
X218963750Y-135666250D03*
X218963750Y-134396250D03*
X218963750Y-133126250D03*
X218963750Y-131856250D03*
%TD*%
D18*
%TO.C,R33*%
X161988750Y-61011250D03*
X161988750Y-63011250D03*
%TD*%
%TO.C,R75*%
X100767750Y-145351650D03*
X100767750Y-147351650D03*
%TD*%
D21*
%TO.C,R78*%
X126488750Y-66761250D03*
X124488750Y-66761250D03*
%TD*%
D13*
%TO.C,R69*%
X88210057Y-89734230D03*
X88210057Y-87734230D03*
%TD*%
D12*
%TO.C,C47*%
X146238750Y-85281250D03*
X144163750Y-85281250D03*
%TD*%
D13*
%TO.C,R31*%
X160701250Y-86281250D03*
X160701250Y-84281250D03*
%TD*%
D15*
%TO.C,R25*%
X180288750Y-96011250D03*
X182288750Y-96011250D03*
%TD*%
D19*
%TO.C,D23*%
X87675000Y-105590000D03*
X83675000Y-105590000D03*
%TD*%
D20*
%TO.C,U14*%
X229338750Y-81471250D03*
X229338750Y-82741250D03*
X229338750Y-84011250D03*
X229338750Y-85281250D03*
X234288750Y-85281250D03*
X234288750Y-84011250D03*
X234288750Y-82741250D03*
X234288750Y-81471250D03*
%TD*%
D32*
%TO.C,D15*%
X239988750Y-136111250D03*
X239988750Y-139411250D03*
%TD*%
D18*
%TO.C,R14*%
X190738750Y-143261250D03*
X190738750Y-145261250D03*
%TD*%
D17*
%TO.C,D14*%
X239988750Y-133911250D03*
X239988750Y-130611250D03*
%TD*%
D29*
%TO.C,Q2*%
X123276250Y-85761250D03*
X123276250Y-87661250D03*
X125151250Y-86711250D03*
%TD*%
D21*
%TO.C,R47*%
X160201250Y-88781250D03*
X158201250Y-88781250D03*
%TD*%
D13*
%TO.C,R46*%
X139201250Y-86000000D03*
X139201250Y-84000000D03*
%TD*%
D14*
%TO.C,C60*%
X177768750Y-116052350D03*
X177768750Y-118127350D03*
%TD*%
D13*
%TO.C,R67*%
X94960057Y-89734230D03*
X94960057Y-87734230D03*
%TD*%
D21*
%TO.C,R86*%
X213713750Y-90646250D03*
X211713750Y-90646250D03*
%TD*%
D11*
%TO.C,C43*%
X174451250Y-61511250D03*
X176526250Y-61511250D03*
%TD*%
D14*
%TO.C,C85*%
X78553750Y-81025150D03*
X78553750Y-83100150D03*
%TD*%
D13*
%TO.C,R16*%
X210523750Y-128761250D03*
X210523750Y-126761250D03*
%TD*%
D14*
%TO.C,C5*%
X71750000Y-46462500D03*
X71750000Y-48537500D03*
%TD*%
D12*
%TO.C,C31*%
X219501250Y-129396250D03*
X217426250Y-129396250D03*
%TD*%
D11*
%TO.C,C63*%
X211726250Y-93836250D03*
X213801250Y-93836250D03*
%TD*%
%TO.C,C76*%
X151951250Y-142761250D03*
X154026250Y-142761250D03*
%TD*%
%TO.C,C35*%
X180251250Y-92781250D03*
X182326250Y-92781250D03*
%TD*%
%TO.C,C59*%
X236776250Y-82876250D03*
X238851250Y-82876250D03*
%TD*%
D20*
%TO.C,U11*%
X167013750Y-61606250D03*
X167013750Y-62876250D03*
X167013750Y-64146250D03*
X167013750Y-65416250D03*
X171963750Y-65416250D03*
X171963750Y-64146250D03*
X171963750Y-62876250D03*
X171963750Y-61606250D03*
%TD*%
M02*
