%TF.GenerationSoftware,KiCad,Pcbnew,7.0.8*%
%TF.CreationDate,2024-03-08T11:10:07-05:00*%
%TF.ProjectId,Quad Joystick Mixer,51756164-204a-46f7-9973-7469636b204d,rev?*%
%TF.SameCoordinates,Original*%
%TF.FileFunction,Copper,L1,Top*%
%TF.FilePolarity,Positive*%
%FSLAX46Y46*%
G04 Gerber Fmt 4.6, Leading zero omitted, Abs format (unit mm)*
G04 Created by KiCad (PCBNEW 7.0.8) date 2024-03-08 11:10:07*
%MOMM*%
%LPD*%
G01*
G04 APERTURE LIST*
G04 Aperture macros list*
%AMRoundRect*
0 Rectangle with rounded corners*
0 $1 Rounding radius*
0 $2 $3 $4 $5 $6 $7 $8 $9 X,Y pos of 4 corners*
0 Add a 4 corners polygon primitive as box body*
4,1,4,$2,$3,$4,$5,$6,$7,$8,$9,$2,$3,0*
0 Add four circle primitives for the rounded corners*
1,1,$1+$1,$2,$3*
1,1,$1+$1,$4,$5*
1,1,$1+$1,$6,$7*
1,1,$1+$1,$8,$9*
0 Add four rect primitives between the rounded corners*
20,1,$1+$1,$2,$3,$4,$5,0*
20,1,$1+$1,$4,$5,$6,$7,0*
20,1,$1+$1,$6,$7,$8,$9,0*
20,1,$1+$1,$8,$9,$2,$3,0*%
G04 Aperture macros list end*
%TA.AperFunction,ComponentPad*%
%ADD10C,1.500000*%
%TD*%
%TA.AperFunction,SMDPad,CuDef*%
%ADD11R,0.650000X1.560000*%
%TD*%
%TA.AperFunction,SMDPad,CuDef*%
%ADD12RoundRect,0.250000X-0.337500X-0.475000X0.337500X-0.475000X0.337500X0.475000X-0.337500X0.475000X0*%
%TD*%
%TA.AperFunction,SMDPad,CuDef*%
%ADD13RoundRect,0.250000X0.337500X0.475000X-0.337500X0.475000X-0.337500X-0.475000X0.337500X-0.475000X0*%
%TD*%
%TA.AperFunction,SMDPad,CuDef*%
%ADD14RoundRect,0.250000X0.450000X-0.350000X0.450000X0.350000X-0.450000X0.350000X-0.450000X-0.350000X0*%
%TD*%
%TA.AperFunction,SMDPad,CuDef*%
%ADD15RoundRect,0.250000X-0.475000X0.337500X-0.475000X-0.337500X0.475000X-0.337500X0.475000X0.337500X0*%
%TD*%
%TA.AperFunction,SMDPad,CuDef*%
%ADD16RoundRect,0.250000X-0.350000X-0.450000X0.350000X-0.450000X0.350000X0.450000X-0.350000X0.450000X0*%
%TD*%
%TA.AperFunction,SMDPad,CuDef*%
%ADD17RoundRect,0.250000X0.475000X-0.337500X0.475000X0.337500X-0.475000X0.337500X-0.475000X-0.337500X0*%
%TD*%
%TA.AperFunction,ComponentPad*%
%ADD18C,2.800000*%
%TD*%
%TA.AperFunction,SMDPad,CuDef*%
%ADD19RoundRect,0.225000X0.375000X-0.225000X0.375000X0.225000X-0.375000X0.225000X-0.375000X-0.225000X0*%
%TD*%
%TA.AperFunction,SMDPad,CuDef*%
%ADD20RoundRect,0.250000X-0.450000X0.350000X-0.450000X-0.350000X0.450000X-0.350000X0.450000X0.350000X0*%
%TD*%
%TA.AperFunction,ComponentPad*%
%ADD21R,1.800000X1.800000*%
%TD*%
%TA.AperFunction,ComponentPad*%
%ADD22C,1.800000*%
%TD*%
%TA.AperFunction,SMDPad,CuDef*%
%ADD23RoundRect,0.250000X1.000000X0.650000X-1.000000X0.650000X-1.000000X-0.650000X1.000000X-0.650000X0*%
%TD*%
%TA.AperFunction,SMDPad,CuDef*%
%ADD24RoundRect,0.150000X-0.825000X-0.150000X0.825000X-0.150000X0.825000X0.150000X-0.825000X0.150000X0*%
%TD*%
%TA.AperFunction,ComponentPad*%
%ADD25RoundRect,0.250000X0.600000X0.725000X-0.600000X0.725000X-0.600000X-0.725000X0.600000X-0.725000X0*%
%TD*%
%TA.AperFunction,ComponentPad*%
%ADD26O,1.700000X1.950000*%
%TD*%
%TA.AperFunction,SMDPad,CuDef*%
%ADD27RoundRect,0.250000X0.350000X0.450000X-0.350000X0.450000X-0.350000X-0.450000X0.350000X-0.450000X0*%
%TD*%
%TA.AperFunction,ComponentPad*%
%ADD28C,2.200000*%
%TD*%
%TA.AperFunction,ComponentPad*%
%ADD29O,2.900000X3.100000*%
%TD*%
%TA.AperFunction,SMDPad,CuDef*%
%ADD30RoundRect,0.250000X-0.850000X-0.350000X0.850000X-0.350000X0.850000X0.350000X-0.850000X0.350000X0*%
%TD*%
%TA.AperFunction,SMDPad,CuDef*%
%ADD31RoundRect,0.250000X-1.275000X-1.125000X1.275000X-1.125000X1.275000X1.125000X-1.275000X1.125000X0*%
%TD*%
%TA.AperFunction,SMDPad,CuDef*%
%ADD32RoundRect,0.249997X-2.950003X-2.650003X2.950003X-2.650003X2.950003X2.650003X-2.950003X2.650003X0*%
%TD*%
%TA.AperFunction,SMDPad,CuDef*%
%ADD33RoundRect,0.250000X-0.650000X1.500000X-0.650000X-1.500000X0.650000X-1.500000X0.650000X1.500000X0*%
%TD*%
%TA.AperFunction,SMDPad,CuDef*%
%ADD34RoundRect,0.150000X0.150000X-0.825000X0.150000X0.825000X-0.150000X0.825000X-0.150000X-0.825000X0*%
%TD*%
%TA.AperFunction,ComponentPad*%
%ADD35RoundRect,0.250000X-0.600000X-0.725000X0.600000X-0.725000X0.600000X0.725000X-0.600000X0.725000X0*%
%TD*%
%TA.AperFunction,SMDPad,CuDef*%
%ADD36RoundRect,0.225000X-0.225000X-0.375000X0.225000X-0.375000X0.225000X0.375000X-0.225000X0.375000X0*%
%TD*%
%TA.AperFunction,ComponentPad*%
%ADD37C,2.000000*%
%TD*%
%TA.AperFunction,SMDPad,CuDef*%
%ADD38RoundRect,0.225000X0.225000X0.375000X-0.225000X0.375000X-0.225000X-0.375000X0.225000X-0.375000X0*%
%TD*%
%TA.AperFunction,SMDPad,CuDef*%
%ADD39RoundRect,0.250000X1.500000X0.650000X-1.500000X0.650000X-1.500000X-0.650000X1.500000X-0.650000X0*%
%TD*%
%TA.AperFunction,SMDPad,CuDef*%
%ADD40RoundRect,0.150000X-0.587500X-0.150000X0.587500X-0.150000X0.587500X0.150000X-0.587500X0.150000X0*%
%TD*%
%TA.AperFunction,SMDPad,CuDef*%
%ADD41RoundRect,0.249999X-0.450001X-1.075001X0.450001X-1.075001X0.450001X1.075001X-0.450001X1.075001X0*%
%TD*%
%TA.AperFunction,SMDPad,CuDef*%
%ADD42C,2.000000*%
%TD*%
%TA.AperFunction,SMDPad,CuDef*%
%ADD43RoundRect,0.249999X-1.075001X0.450001X-1.075001X-0.450001X1.075001X-0.450001X1.075001X0.450001X0*%
%TD*%
%TA.AperFunction,SMDPad,CuDef*%
%ADD44RoundRect,0.225000X-0.375000X0.225000X-0.375000X-0.225000X0.375000X-0.225000X0.375000X0.225000X0*%
%TD*%
%TA.AperFunction,ComponentPad*%
%ADD45C,1.600000*%
%TD*%
%TA.AperFunction,ViaPad*%
%ADD46C,0.800000*%
%TD*%
%TA.AperFunction,ViaPad*%
%ADD47C,1.500000*%
%TD*%
%TA.AperFunction,Conductor*%
%ADD48C,0.250000*%
%TD*%
%TA.AperFunction,Conductor*%
%ADD49C,0.762000*%
%TD*%
%TA.AperFunction,Conductor*%
%ADD50C,2.000000*%
%TD*%
%TA.AperFunction,Conductor*%
%ADD51C,1.143000*%
%TD*%
%TA.AperFunction,Conductor*%
%ADD52C,0.254000*%
%TD*%
%TA.AperFunction,Conductor*%
%ADD53C,0.508000*%
%TD*%
G04 APERTURE END LIST*
%TA.AperFunction,EtchedComponent*%
%TO.C,NT1*%
G36*
X131000000Y-121500000D02*
G01*
X127000000Y-121500000D01*
X127000000Y-119500000D01*
X131000000Y-119500000D01*
X131000000Y-121500000D01*
G37*
%TD.AperFunction*%
%TD*%
D10*
%TO.P,TP4,1,1*%
%TO.N,+5V*%
X85500000Y-32750000D03*
%TD*%
D11*
%TO.P,U5,1,VIN*%
%TO.N,Net-(U5-VIN)*%
X151568750Y-114839850D03*
%TO.P,U5,2,GND*%
%TO.N,GND*%
X152518750Y-114839850D03*
%TO.P,U5,3,nSHDN*%
%TO.N,Net-(U5-nSHDN)*%
X153468750Y-114839850D03*
%TO.P,U5,4,PGOOD*%
%TO.N,Net-(U5-PGOOD)*%
X153468750Y-112139850D03*
%TO.P,U5,5,VOUT*%
%TO.N,VCC*%
X151568750Y-112139850D03*
%TD*%
D12*
%TO.P,C72,1*%
%TO.N,-12V*%
X142976250Y-141126250D03*
%TO.P,C72,2*%
%TO.N,Earth*%
X145051250Y-141126250D03*
%TD*%
D10*
%TO.P,TP16,1,1*%
%TO.N,Net-(J4-PadT)*%
X161988750Y-58011250D03*
%TD*%
D13*
%TO.P,C73,1*%
%TO.N,+3.3V*%
X157988750Y-145261250D03*
%TO.P,C73,2*%
%TO.N,Earth*%
X155913750Y-145261250D03*
%TD*%
D14*
%TO.P,R81,1*%
%TO.N,Earth*%
X120651250Y-87711250D03*
%TO.P,R81,2*%
%TO.N,/Teensy/LED_2*%
X120651250Y-85711250D03*
%TD*%
D15*
%TO.P,C69,1*%
%TO.N,-12V*%
X228851250Y-87338750D03*
%TO.P,C69,2*%
%TO.N,GND*%
X228851250Y-89413750D03*
%TD*%
D10*
%TO.P,TP19,1,1*%
%TO.N,Net-(J6-PadT)*%
X203238750Y-58261250D03*
%TD*%
D13*
%TO.P,C71,1*%
%TO.N,+12V*%
X149013750Y-133126250D03*
%TO.P,C71,2*%
%TO.N,Earth*%
X146938750Y-133126250D03*
%TD*%
D16*
%TO.P,R77,1*%
%TO.N,Net-(R77-Pad1)*%
X117767750Y-137851650D03*
%TO.P,R77,2*%
%TO.N,Earth*%
X119767750Y-137851650D03*
%TD*%
D17*
%TO.P,C52,1*%
%TO.N,/Audio Output/C*%
X205738750Y-63298750D03*
%TO.P,C52,2*%
%TO.N,Net-(C52-Pad2)*%
X205738750Y-61223750D03*
%TD*%
D18*
%TO.P,J4,R*%
%TO.N,unconnected-(J4-PadR)*%
X152013750Y-39859850D03*
%TO.P,J4,RN*%
%TO.N,unconnected-(J4-PadRN)*%
X168243750Y-39859850D03*
%TO.P,J4,S*%
%TO.N,GND*%
X152013750Y-33509850D03*
%TO.P,J4,SN*%
X168243750Y-33509850D03*
%TO.P,J4,T*%
%TO.N,Net-(J4-PadT)*%
X152013750Y-46209850D03*
%TO.P,J4,TN*%
X168243750Y-46209850D03*
%TD*%
D17*
%TO.P,C3,1*%
%TO.N,+5V*%
X82000000Y-35250000D03*
%TO.P,C3,2*%
%TO.N,Earth*%
X82000000Y-33175000D03*
%TD*%
D19*
%TO.P,D12,1,K*%
%TO.N,Net-(D12-K)*%
X191488750Y-136411250D03*
%TO.P,D12,2,A*%
%TO.N,/Audio Input/Channel1_Input*%
X191488750Y-133111250D03*
%TD*%
D15*
%TO.P,C25,1*%
%TO.N,Net-(U4A--)*%
X213023750Y-126723750D03*
%TO.P,C25,2*%
%TO.N,/Audio Input/Channel1_Input*%
X213023750Y-128798750D03*
%TD*%
D20*
%TO.P,R30,1*%
%TO.N,Net-(C47-Pad2)*%
X141701250Y-84000000D03*
%TO.P,R30,2*%
%TO.N,GND*%
X141701250Y-86000000D03*
%TD*%
D13*
%TO.P,C54,1*%
%TO.N,-12V*%
X206238750Y-65761250D03*
%TO.P,C54,2*%
%TO.N,GND*%
X204163750Y-65761250D03*
%TD*%
D21*
%TO.P,D11,1,K*%
%TO.N,Net-(D11-K)*%
X146268750Y-118589850D03*
D22*
%TO.P,D11,2,A*%
%TO.N,VCC*%
X146268750Y-116049850D03*
%TD*%
D16*
%TO.P,R21,1*%
%TO.N,Net-(U5-VIN)*%
X155518750Y-115739850D03*
%TO.P,R21,2*%
%TO.N,Net-(U5-nSHDN)*%
X157518750Y-115739850D03*
%TD*%
D13*
%TO.P,C29,1*%
%TO.N,Net-(U4B-+)*%
X220001250Y-138396250D03*
%TO.P,C29,2*%
%TO.N,GND*%
X217926250Y-138396250D03*
%TD*%
D23*
%TO.P,D22,1,A1*%
%TO.N,/Teensy/Button_1*%
X108840000Y-105395000D03*
%TO.P,D22,2,A2*%
%TO.N,Earth*%
X104840000Y-105395000D03*
%TD*%
D18*
%TO.P,J3,R*%
%TO.N,unconnected-(J3-PadR)*%
X235103750Y-153912650D03*
%TO.P,J3,RN*%
%TO.N,unconnected-(J3-PadRN)*%
X218873750Y-153912650D03*
%TO.P,J3,S*%
%TO.N,GND*%
X235103750Y-160262650D03*
%TO.P,J3,SN*%
X218873750Y-160262650D03*
%TO.P,J3,T*%
%TO.N,Net-(C28-Pad1)*%
X235103750Y-147562650D03*
%TO.P,J3,TN*%
X218873750Y-147562650D03*
%TD*%
D24*
%TO.P,U19,1*%
%TO.N,/Teensy/AB_Control*%
X143538750Y-135221250D03*
%TO.P,U19,2,-*%
X143538750Y-136491250D03*
%TO.P,U19,3,+*%
%TO.N,Net-(U19A-+)*%
X143538750Y-137761250D03*
%TO.P,U19,4,V-*%
%TO.N,-12V*%
X143538750Y-139031250D03*
%TO.P,U19,5,+*%
%TO.N,Net-(U19B-+)*%
X148488750Y-139031250D03*
%TO.P,U19,6,-*%
%TO.N,/Teensy/CD_Control*%
X148488750Y-137761250D03*
%TO.P,U19,7*%
X148488750Y-136491250D03*
%TO.P,U19,8,V+*%
%TO.N,+12V*%
X148488750Y-135221250D03*
%TD*%
D21*
%TO.P,D7,1,K*%
%TO.N,Net-(D7-K)*%
X70000000Y-58775000D03*
D22*
%TO.P,D7,2,A*%
%TO.N,+12V*%
X70000000Y-56235000D03*
%TD*%
D25*
%TO.P,J1,1,Pin_1*%
%TO.N,+5V*%
X77500000Y-35275000D03*
D26*
%TO.P,J1,2,Pin_2*%
%TO.N,Earth*%
X75000000Y-35275000D03*
%TO.P,J1,3,Pin_3*%
%TO.N,+15V*%
X72500000Y-35275000D03*
%TO.P,J1,4,Pin_4*%
%TO.N,-15V*%
X70000000Y-35275000D03*
%TD*%
D21*
%TO.P,D21,1,K*%
%TO.N,Net-(D21-K)*%
X121151250Y-82986250D03*
D22*
%TO.P,D21,2,A*%
%TO.N,+3.3V*%
X121151250Y-80446250D03*
%TD*%
D20*
%TO.P,R15,1*%
%TO.N,Net-(C24-Pad2)*%
X210463750Y-130896250D03*
%TO.P,R15,2*%
%TO.N,Net-(U4A--)*%
X210463750Y-132896250D03*
%TD*%
%TO.P,R48,1*%
%TO.N,VDD*%
X220723750Y-116011250D03*
%TO.P,R48,2*%
%TO.N,Net-(D17-K)*%
X220723750Y-118011250D03*
%TD*%
D12*
%TO.P,C39,1*%
%TO.N,VCC*%
X154226250Y-94146250D03*
%TO.P,C39,2*%
%TO.N,GND*%
X156301250Y-94146250D03*
%TD*%
D16*
%TO.P,R63,1*%
%TO.N,Net-(R63-Pad1)*%
X116767750Y-156851650D03*
%TO.P,R63,2*%
%TO.N,Earth*%
X118767750Y-156851650D03*
%TD*%
D15*
%TO.P,C80,1*%
%TO.N,+3.3V*%
X78710057Y-72946730D03*
%TO.P,C80,2*%
%TO.N,Earth*%
X78710057Y-75021730D03*
%TD*%
D27*
%TO.P,R22,1*%
%TO.N,+12V*%
X157518750Y-111989850D03*
%TO.P,R22,2*%
%TO.N,Net-(U5-PGOOD)*%
X155518750Y-111989850D03*
%TD*%
D28*
%TO.P,SW6,1,A*%
%TO.N,/Teensy/POWER*%
X123000000Y-48750000D03*
%TO.P,SW6,2,B*%
%TO.N,Earth*%
X120460000Y-42400000D03*
%TD*%
D18*
%TO.P,J5,R*%
%TO.N,unconnected-(J5-PadR)*%
X172633750Y-39859850D03*
%TO.P,J5,RN*%
%TO.N,unconnected-(J5-PadRN)*%
X188863750Y-39859850D03*
%TO.P,J5,S*%
%TO.N,GND*%
X172633750Y-33509850D03*
%TO.P,J5,SN*%
X188863750Y-33509850D03*
%TO.P,J5,T*%
%TO.N,Net-(J5-PadT)*%
X172633750Y-46209850D03*
%TO.P,J5,TN*%
X188863750Y-46209850D03*
%TD*%
D29*
%TO.P,RV2,*%
%TO.N,*%
X229488750Y-138061250D03*
X229488750Y-128461250D03*
D21*
%TO.P,RV2,1,1*%
%TO.N,Net-(R17-Pad2)*%
X236988750Y-135761250D03*
D22*
%TO.P,RV2,2,2*%
%TO.N,/Audio Input/Channel2_Input*%
X236988750Y-133261250D03*
%TO.P,RV2,3,3*%
X236988750Y-130761250D03*
%TD*%
D20*
%TO.P,R19,1*%
%TO.N,Net-(C28-Pad2)*%
X240988750Y-145261250D03*
%TO.P,R19,2*%
%TO.N,GND*%
X240988750Y-147261250D03*
%TD*%
D27*
%TO.P,R53,1*%
%TO.N,Net-(C59-Pad2)*%
X238851250Y-85376250D03*
%TO.P,R53,2*%
%TO.N,GND*%
X236851250Y-85376250D03*
%TD*%
D12*
%TO.P,C46,1*%
%TO.N,Net-(U6B--)*%
X183738750Y-85051250D03*
%TO.P,C46,2*%
%TO.N,Net-(C46-Pad2)*%
X185813750Y-85051250D03*
%TD*%
D30*
%TO.P,U1,1,VI*%
%TO.N,Net-(D1-K)*%
X75050000Y-46720000D03*
D31*
%TO.P,U1,2,GND*%
%TO.N,Earth*%
X79675000Y-47475000D03*
X79675000Y-50525000D03*
D32*
X81350000Y-49000000D03*
D31*
X83025000Y-47475000D03*
X83025000Y-50525000D03*
D30*
%TO.P,U1,3,VO*%
%TO.N,+12V*%
X75050000Y-51280000D03*
%TD*%
D28*
%TO.P,SW3,1,A*%
%TO.N,/Teensy/Button_1*%
X112340000Y-112550000D03*
%TO.P,SW3,2,B*%
%TO.N,Earth*%
X105990000Y-115090000D03*
%TD*%
D16*
%TO.P,R51,1*%
%TO.N,Net-(U13-nCE)*%
X236763750Y-96876250D03*
%TO.P,R51,2*%
%TO.N,GND*%
X238763750Y-96876250D03*
%TD*%
D20*
%TO.P,R23,1*%
%TO.N,Net-(U7A-+)*%
X166268750Y-117089850D03*
%TO.P,R23,2*%
%TO.N,GND*%
X166268750Y-119089850D03*
%TD*%
D33*
%TO.P,D5,1,K*%
%TO.N,-15V*%
X64750000Y-36750000D03*
%TO.P,D5,2,A*%
%TO.N,Net-(D5-A)*%
X64750000Y-41750000D03*
%TD*%
D10*
%TO.P,TP13,1,1*%
%TO.N,Net-(U16A-+)*%
X200763750Y-102836250D03*
%TD*%
D19*
%TO.P,D19,1,K*%
%TO.N,/Teensy/CD_Control*%
X151488750Y-136411250D03*
%TO.P,D19,2,A*%
%TO.N,Earth*%
X151488750Y-133111250D03*
%TD*%
D15*
%TO.P,C81,1*%
%TO.N,/Teensy/Channel Selection*%
X123158750Y-146025150D03*
%TO.P,C81,2*%
%TO.N,Earth*%
X123158750Y-148100150D03*
%TD*%
D12*
%TO.P,C8,1*%
%TO.N,+12V*%
X183701250Y-82551250D03*
%TO.P,C8,2*%
%TO.N,GND*%
X185776250Y-82551250D03*
%TD*%
D14*
%TO.P,R84,1*%
%TO.N,/Teensy/Button_3*%
X86810000Y-134005000D03*
%TO.P,R84,2*%
%TO.N,+3.3V*%
X86810000Y-132005000D03*
%TD*%
D16*
%TO.P,R59,1*%
%TO.N,Net-(U17-nCE)*%
X211763750Y-99336250D03*
%TO.P,R59,2*%
%TO.N,GND*%
X213763750Y-99336250D03*
%TD*%
D14*
%TO.P,R66,1*%
%TO.N,+3.3V*%
X98460057Y-89734230D03*
%TO.P,R66,2*%
%TO.N,/SCL0*%
X98460057Y-87734230D03*
%TD*%
D34*
%TO.P,U2,1,VOUT*%
%TO.N,-12V*%
X60845000Y-55975000D03*
%TO.P,U2,2,VIN*%
%TO.N,Net-(D5-A)*%
X62115000Y-55975000D03*
%TO.P,U2,3,VIN*%
X63385000Y-55975000D03*
%TO.P,U2,4,NC*%
%TO.N,unconnected-(U2-NC-Pad4)*%
X64655000Y-55975000D03*
%TO.P,U2,5,GND*%
%TO.N,Earth*%
X64655000Y-51025000D03*
%TO.P,U2,6,VIN*%
%TO.N,Net-(D5-A)*%
X63385000Y-51025000D03*
%TO.P,U2,7,VIN*%
X62115000Y-51025000D03*
%TO.P,U2,8,NC*%
%TO.N,unconnected-(U2-NC-Pad8)*%
X60845000Y-51025000D03*
%TD*%
D12*
%TO.P,C11,1*%
%TO.N,-12V*%
X60962500Y-58500000D03*
%TO.P,C11,2*%
%TO.N,Earth*%
X63037500Y-58500000D03*
%TD*%
D13*
%TO.P,C9,1*%
%TO.N,-12V*%
X173776250Y-86051250D03*
%TO.P,C9,2*%
%TO.N,GND*%
X171701250Y-86051250D03*
%TD*%
D16*
%TO.P,R50,1*%
%TO.N,Net-(C58-Pad2)*%
X224313750Y-80376250D03*
%TO.P,R50,2*%
%TO.N,GND*%
X226313750Y-80376250D03*
%TD*%
D12*
%TO.P,C62,1*%
%TO.N,VCC*%
X211726250Y-96336250D03*
%TO.P,C62,2*%
%TO.N,GND*%
X213801250Y-96336250D03*
%TD*%
D16*
%TO.P,R17,1*%
%TO.N,Net-(U4B--)*%
X225488750Y-125261250D03*
%TO.P,R17,2*%
%TO.N,Net-(R17-Pad2)*%
X227488750Y-125261250D03*
%TD*%
D28*
%TO.P,SW4,1,A*%
%TO.N,/Teensy/Button_2*%
X89350000Y-112550000D03*
%TO.P,SW4,2,B*%
%TO.N,Earth*%
X83000000Y-115090000D03*
%TD*%
D12*
%TO.P,C41,1*%
%TO.N,+12V*%
X156163750Y-83281250D03*
%TO.P,C41,2*%
%TO.N,GND*%
X158238750Y-83281250D03*
%TD*%
D18*
%TO.P,J6,R*%
%TO.N,unconnected-(J6-PadR)*%
X193253750Y-39859850D03*
%TO.P,J6,RN*%
%TO.N,unconnected-(J6-PadRN)*%
X209483750Y-39859850D03*
%TO.P,J6,S*%
%TO.N,GND*%
X193253750Y-33509850D03*
%TO.P,J6,SN*%
X209483750Y-33509850D03*
%TO.P,J6,T*%
%TO.N,Net-(J6-PadT)*%
X193253750Y-46209850D03*
%TO.P,J6,TN*%
X209483750Y-46209850D03*
%TD*%
D12*
%TO.P,C4,1*%
%TO.N,+15V*%
X72712500Y-39500000D03*
%TO.P,C4,2*%
%TO.N,Earth*%
X74787500Y-39500000D03*
%TD*%
D16*
%TO.P,R73,1*%
%TO.N,Net-(R73-Pad1)*%
X109267750Y-158351650D03*
%TO.P,R73,2*%
%TO.N,Earth*%
X111267750Y-158351650D03*
%TD*%
D24*
%TO.P,U16,1*%
%TO.N,Net-(U16A--)*%
X204238750Y-80241250D03*
%TO.P,U16,2,-*%
X204238750Y-81511250D03*
%TO.P,U16,3,+*%
%TO.N,Net-(U16A-+)*%
X204238750Y-82781250D03*
%TO.P,U16,4,V-*%
%TO.N,-12V*%
X204238750Y-84051250D03*
%TO.P,U16,5,+*%
%TO.N,Net-(U16B-+)*%
X209188750Y-84051250D03*
%TO.P,U16,6,-*%
%TO.N,Net-(U16B--)*%
X209188750Y-82781250D03*
%TO.P,U16,7*%
X209188750Y-81511250D03*
%TO.P,U16,8,V+*%
%TO.N,+12V*%
X209188750Y-80241250D03*
%TD*%
D27*
%TO.P,R64,1*%
%TO.N,Net-(J8-Pin_2)*%
X139488750Y-144761250D03*
%TO.P,R64,2*%
%TO.N,Net-(U19A-+)*%
X137488750Y-144761250D03*
%TD*%
D16*
%TO.P,R9,1*%
%TO.N,Net-(D7-K)*%
X74500000Y-58500000D03*
%TO.P,R9,2*%
%TO.N,Earth*%
X76500000Y-58500000D03*
%TD*%
D35*
%TO.P,J9,1,Pin_1*%
%TO.N,+3.3V*%
X162500000Y-148475000D03*
D26*
%TO.P,J9,2,Pin_2*%
%TO.N,Net-(J9-Pin_2)*%
X165000000Y-148475000D03*
%TO.P,J9,3,Pin_3*%
%TO.N,Earth*%
X167500000Y-148475000D03*
%TD*%
D15*
%TO.P,C33,1*%
%TO.N,Net-(U5-VIN)*%
X155268750Y-117952350D03*
%TO.P,C33,2*%
%TO.N,GND*%
X155268750Y-120027350D03*
%TD*%
D12*
%TO.P,C66,1*%
%TO.N,Net-(U16B--)*%
X211676250Y-83146250D03*
%TO.P,C66,2*%
%TO.N,Net-(C66-Pad2)*%
X213751250Y-83146250D03*
%TD*%
%TO.P,C10,1*%
%TO.N,-12V*%
X60962500Y-61000000D03*
%TO.P,C10,2*%
%TO.N,Earth*%
X63037500Y-61000000D03*
%TD*%
D20*
%TO.P,R37,1*%
%TO.N,Net-(C52-Pad2)*%
X202738750Y-61261250D03*
%TO.P,R37,2*%
%TO.N,/Audio Output/C*%
X202738750Y-63261250D03*
%TD*%
D12*
%TO.P,C67,1*%
%TO.N,+12V*%
X236813750Y-80376250D03*
%TO.P,C67,2*%
%TO.N,GND*%
X238888750Y-80376250D03*
%TD*%
D13*
%TO.P,C42,1*%
%TO.N,-12V*%
X146238750Y-88281250D03*
%TO.P,C42,2*%
%TO.N,GND*%
X144163750Y-88281250D03*
%TD*%
D12*
%TO.P,C78,1*%
%TO.N,+3.3V*%
X109922557Y-86234230D03*
%TO.P,C78,2*%
%TO.N,Earth*%
X111997557Y-86234230D03*
%TD*%
D36*
%TO.P,D16,1,K*%
%TO.N,Net-(D16-K)*%
X209723750Y-120261250D03*
%TO.P,D16,2,A*%
%TO.N,GND*%
X213023750Y-120261250D03*
%TD*%
D37*
%TO.P,SW2,1,1*%
%TO.N,Net-(R62-Pad1)*%
X119049750Y-149973650D03*
%TO.P,SW2,2,2*%
%TO.N,Net-(R63-Pad1)*%
X114719750Y-154303650D03*
%TO.P,SW2,3,3*%
%TO.N,Net-(R73-Pad1)*%
X108597750Y-154303650D03*
%TO.P,SW2,4,4*%
%TO.N,Net-(R74-Pad1)*%
X104267750Y-149973650D03*
%TO.P,SW2,5,5*%
%TO.N,Net-(R75-Pad1)*%
X104267750Y-143851650D03*
%TO.P,SW2,6,6*%
%TO.N,Net-(R76-Pad1)*%
X108597750Y-139521650D03*
%TO.P,SW2,7,7*%
%TO.N,Net-(R77-Pad1)*%
X114719750Y-139521650D03*
%TO.P,SW2,8,8*%
%TO.N,unconnected-(SW2-Pad8)*%
X119049750Y-143851650D03*
%TO.P,SW2,9,9*%
%TO.N,/Teensy/Channel Selection*%
X111658750Y-149562650D03*
%TD*%
D38*
%TO.P,D17,1,K*%
%TO.N,Net-(D17-K)*%
X218373750Y-120261250D03*
%TO.P,D17,2,A*%
%TO.N,GND*%
X215073750Y-120261250D03*
%TD*%
D24*
%TO.P,U9,1,GND*%
%TO.N,GND*%
X146751250Y-92201250D03*
%TO.P,U9,2,A2*%
X146751250Y-93471250D03*
%TO.P,U9,3,A1*%
X146751250Y-94741250D03*
%TO.P,U9,4,NC*%
%TO.N,unconnected-(U9-NC-Pad4)*%
X146751250Y-96011250D03*
%TO.P,U9,5,A0*%
%TO.N,Net-(U9-A0)*%
X146751250Y-97281250D03*
%TO.P,U9,6,W0*%
%TO.N,Net-(U10A-+)*%
X146751250Y-98551250D03*
%TO.P,U9,7,L0*%
%TO.N,VDD*%
X146751250Y-99821250D03*
%TO.P,U9,8,H0*%
%TO.N,Net-(D16-K)*%
X146751250Y-101091250D03*
%TO.P,U9,9,L1*%
%TO.N,VDD*%
X151701250Y-101091250D03*
%TO.P,U9,10,H1*%
%TO.N,Net-(D16-K)*%
X151701250Y-99821250D03*
%TO.P,U9,11,W1*%
%TO.N,Net-(U10B-+)*%
X151701250Y-98551250D03*
%TO.P,U9,12,nCE*%
%TO.N,Net-(U9-nCE)*%
X151701250Y-97281250D03*
%TO.P,U9,13,SDA*%
%TO.N,/SDA0*%
X151701250Y-96011250D03*
%TO.P,U9,14,SCL*%
%TO.N,/SCL0*%
X151701250Y-94741250D03*
%TO.P,U9,15,VCC*%
%TO.N,VCC*%
X151701250Y-93471250D03*
%TO.P,U9,16,VDD*%
%TO.N,+3.3V*%
X151701250Y-92201250D03*
%TD*%
D36*
%TO.P,D18,1,K*%
%TO.N,/Teensy/AB_Control*%
X141488750Y-132761250D03*
%TO.P,D18,2,A*%
%TO.N,Earth*%
X144788750Y-132761250D03*
%TD*%
D23*
%TO.P,D26,1,A1*%
%TO.N,/Teensy/PROGRAM*%
X102920000Y-58210000D03*
%TO.P,D26,2,A2*%
%TO.N,Earth*%
X98920000Y-58210000D03*
%TD*%
D24*
%TO.P,U6,1*%
%TO.N,Net-(U6A--)*%
X176288750Y-82511250D03*
%TO.P,U6,2,-*%
X176288750Y-83781250D03*
%TO.P,U6,3,+*%
%TO.N,Net-(U6A-+)*%
X176288750Y-85051250D03*
%TO.P,U6,4,V-*%
%TO.N,-12V*%
X176288750Y-86321250D03*
%TO.P,U6,5,+*%
%TO.N,Net-(U6B-+)*%
X181238750Y-86321250D03*
%TO.P,U6,6,-*%
%TO.N,Net-(U6B--)*%
X181238750Y-85051250D03*
%TO.P,U6,7*%
X181238750Y-83781250D03*
%TO.P,U6,8,V+*%
%TO.N,+12V*%
X181238750Y-82511250D03*
%TD*%
D12*
%TO.P,C48,1*%
%TO.N,Net-(U10B--)*%
X156201250Y-86281250D03*
%TO.P,C48,2*%
%TO.N,Net-(C48-Pad2)*%
X158276250Y-86281250D03*
%TD*%
D24*
%TO.P,U17,1,GND*%
%TO.N,GND*%
X204288750Y-94391250D03*
%TO.P,U17,2,A2*%
X204288750Y-95661250D03*
%TO.P,U17,3,A1*%
X204288750Y-96931250D03*
%TO.P,U17,4,NC*%
%TO.N,unconnected-(U17-NC-Pad4)*%
X204288750Y-98201250D03*
%TO.P,U17,5,A0*%
%TO.N,Net-(U17-A0)*%
X204288750Y-99471250D03*
%TO.P,U17,6,W0*%
%TO.N,Net-(U16A-+)*%
X204288750Y-100741250D03*
%TO.P,U17,7,L0*%
%TO.N,VDD*%
X204288750Y-102011250D03*
%TO.P,U17,8,H0*%
%TO.N,Net-(D17-K)*%
X204288750Y-103281250D03*
%TO.P,U17,9,L1*%
%TO.N,VDD*%
X209238750Y-103281250D03*
%TO.P,U17,10,H1*%
%TO.N,Net-(D17-K)*%
X209238750Y-102011250D03*
%TO.P,U17,11,W1*%
%TO.N,Net-(U16B-+)*%
X209238750Y-100741250D03*
%TO.P,U17,12,nCE*%
%TO.N,Net-(U17-nCE)*%
X209238750Y-99471250D03*
%TO.P,U17,13,SDA*%
%TO.N,/SDA1*%
X209238750Y-98201250D03*
%TO.P,U17,14,SCL*%
%TO.N,/SCL1*%
X209238750Y-96931250D03*
%TO.P,U17,15,VCC*%
%TO.N,VCC*%
X209238750Y-95661250D03*
%TO.P,U17,16,VDD*%
%TO.N,+3.3V*%
X209238750Y-94391250D03*
%TD*%
D17*
%TO.P,C16,1*%
%TO.N,+12V*%
X173488750Y-111127350D03*
%TO.P,C16,2*%
%TO.N,GND*%
X173488750Y-109052350D03*
%TD*%
D12*
%TO.P,C15,1*%
%TO.N,Net-(D5-A)*%
X63500000Y-46250000D03*
%TO.P,C15,2*%
%TO.N,Earth*%
X65575000Y-46250000D03*
%TD*%
D20*
%TO.P,R28,1*%
%TO.N,Net-(C45-Pad2)*%
X169238750Y-84051250D03*
%TO.P,R28,2*%
%TO.N,GND*%
X169238750Y-86051250D03*
%TD*%
D14*
%TO.P,R87,1*%
%TO.N,/Audio Input/Channel2_Input*%
X197238750Y-90261250D03*
%TO.P,R87,2*%
%TO.N,/Audio Output/C*%
X197238750Y-88261250D03*
%TD*%
D13*
%TO.P,C82,1*%
%TO.N,/Teensy/Button_1*%
X107877500Y-102395000D03*
%TO.P,C82,2*%
%TO.N,Earth*%
X105802500Y-102395000D03*
%TD*%
D27*
%TO.P,R76,1*%
%TO.N,Net-(R76-Pad1)*%
X105767750Y-137351650D03*
%TO.P,R76,2*%
%TO.N,Earth*%
X103767750Y-137351650D03*
%TD*%
D12*
%TO.P,C37,1*%
%TO.N,/Audio Input/Channel1_Input*%
X205336250Y-120261250D03*
%TO.P,C37,2*%
%TO.N,Net-(D16-K)*%
X207411250Y-120261250D03*
%TD*%
D14*
%TO.P,R68,1*%
%TO.N,+3.3V*%
X91460057Y-89734230D03*
%TO.P,R68,2*%
%TO.N,/SDA1*%
X91460057Y-87734230D03*
%TD*%
D23*
%TO.P,D24,1,A1*%
%TO.N,/Teensy/Button_3*%
X85310000Y-137005000D03*
%TO.P,D24,2,A2*%
%TO.N,Earth*%
X81310000Y-137005000D03*
%TD*%
D20*
%TO.P,R62,1*%
%TO.N,Net-(R62-Pad1)*%
X121767750Y-152351650D03*
%TO.P,R62,2*%
%TO.N,Earth*%
X121767750Y-154351650D03*
%TD*%
D14*
%TO.P,R82,1*%
%TO.N,/Teensy/Button_1*%
X110340000Y-102395000D03*
%TO.P,R82,2*%
%TO.N,+3.3V*%
X110340000Y-100395000D03*
%TD*%
D10*
%TO.P,TP5,1,1*%
%TO.N,VCC*%
X148768750Y-108589850D03*
%TD*%
D17*
%TO.P,C51,1*%
%TO.N,/Audio Output/D*%
X216238750Y-65298750D03*
%TO.P,C51,2*%
%TO.N,Net-(C51-Pad2)*%
X216238750Y-63223750D03*
%TD*%
D15*
%TO.P,C26,1*%
%TO.N,Net-(U4A-+)*%
X210463750Y-134896250D03*
%TO.P,C26,2*%
%TO.N,GND*%
X210463750Y-136971250D03*
%TD*%
D10*
%TO.P,TP3,1,1*%
%TO.N,-12V*%
X61250000Y-69750000D03*
%TD*%
D29*
%TO.P,RV1,*%
%TO.N,*%
X201988750Y-127961250D03*
X201988750Y-137561250D03*
D21*
%TO.P,RV1,1,1*%
%TO.N,Net-(R16-Pad2)*%
X194488750Y-130261250D03*
D22*
%TO.P,RV1,2,2*%
%TO.N,/Audio Input/Channel1_Input*%
X194488750Y-132761250D03*
%TO.P,RV1,3,3*%
X194488750Y-135261250D03*
%TD*%
D10*
%TO.P,TP18,1,1*%
%TO.N,Net-(J7-PadT)*%
X226738750Y-58761250D03*
%TD*%
D29*
%TO.P,RV4,*%
%TO.N,*%
X150288750Y-158061250D03*
X150288750Y-148461250D03*
D21*
%TO.P,RV4,1,1*%
%TO.N,Earth*%
X157788750Y-155761250D03*
D22*
%TO.P,RV4,2,2*%
%TO.N,Net-(J9-Pin_2)*%
X157788750Y-153261250D03*
%TO.P,RV4,3,3*%
%TO.N,+3.3V*%
X157788750Y-150761250D03*
%TD*%
D23*
%TO.P,D25,1,A1*%
%TO.N,/Teensy/POWER*%
X119420000Y-57880000D03*
%TO.P,D25,2,A2*%
%TO.N,Earth*%
X115420000Y-57880000D03*
%TD*%
D10*
%TO.P,TP21,1,1*%
%TO.N,/Teensy/CD_Control*%
X154488750Y-136761250D03*
%TD*%
%TO.P,TP1,1,1*%
%TO.N,+3.3V*%
X109960057Y-88984230D03*
%TD*%
D14*
%TO.P,R88,1*%
%TO.N,/Audio Input/Channel1_Input*%
X189788750Y-91741250D03*
%TO.P,R88,2*%
%TO.N,/Audio Output/B*%
X189788750Y-89741250D03*
%TD*%
D15*
%TO.P,C36,1*%
%TO.N,-12V*%
X169768750Y-119052350D03*
%TO.P,C36,2*%
%TO.N,GND*%
X169768750Y-121127350D03*
%TD*%
D13*
%TO.P,C58,1*%
%TO.N,Net-(U14A--)*%
X226351250Y-82876250D03*
%TO.P,C58,2*%
%TO.N,Net-(C58-Pad2)*%
X224276250Y-82876250D03*
%TD*%
%TO.P,C45,1*%
%TO.N,Net-(U6A--)*%
X173776250Y-83551250D03*
%TO.P,C45,2*%
%TO.N,Net-(C45-Pad2)*%
X171701250Y-83551250D03*
%TD*%
D16*
%TO.P,R39,1*%
%TO.N,Net-(J6-PadT)*%
X206238750Y-58761250D03*
%TO.P,R39,2*%
%TO.N,Net-(C52-Pad2)*%
X208238750Y-58761250D03*
%TD*%
D24*
%TO.P,U12,1*%
%TO.N,Net-(C52-Pad2)*%
X208763750Y-61356250D03*
%TO.P,U12,2,-*%
%TO.N,/Audio Output/C*%
X208763750Y-62626250D03*
%TO.P,U12,3,+*%
%TO.N,GND*%
X208763750Y-63896250D03*
%TO.P,U12,4,V-*%
%TO.N,-12V*%
X208763750Y-65166250D03*
%TO.P,U12,5,+*%
%TO.N,GND*%
X213713750Y-65166250D03*
%TO.P,U12,6,-*%
%TO.N,/Audio Output/D*%
X213713750Y-63896250D03*
%TO.P,U12,7*%
%TO.N,Net-(C51-Pad2)*%
X213713750Y-62626250D03*
%TO.P,U12,8,V+*%
%TO.N,+12V*%
X213713750Y-61356250D03*
%TD*%
D12*
%TO.P,C27,1*%
%TO.N,Net-(U4B--)*%
X225451250Y-122761250D03*
%TO.P,C27,2*%
%TO.N,/Audio Input/Channel2_Input*%
X227526250Y-122761250D03*
%TD*%
D28*
%TO.P,SW7,1,A*%
%TO.N,/Teensy/PROGRAM*%
X102000000Y-48750000D03*
%TO.P,SW7,2,B*%
%TO.N,Earth*%
X99460000Y-42400000D03*
%TD*%
D10*
%TO.P,TP6,1,1*%
%TO.N,/Audio Input/Channel1_Input*%
X189988750Y-130261250D03*
%TD*%
D20*
%TO.P,R8,1*%
%TO.N,VCC*%
X166268750Y-113089850D03*
%TO.P,R8,2*%
%TO.N,Net-(U7A-+)*%
X166268750Y-115089850D03*
%TD*%
%TO.P,R35,1*%
%TO.N,Net-(J5-PadT)*%
X179988750Y-60011250D03*
%TO.P,R35,2*%
%TO.N,Net-(C50-Pad2)*%
X179988750Y-62011250D03*
%TD*%
%TO.P,R72,1*%
%TO.N,+3.3V*%
X123158750Y-142062650D03*
%TO.P,R72,2*%
%TO.N,/Teensy/Channel Selection*%
X123158750Y-144062650D03*
%TD*%
D12*
%TO.P,C40,1*%
%TO.N,+3.3V*%
X154188750Y-91646250D03*
%TO.P,C40,2*%
%TO.N,GND*%
X156263750Y-91646250D03*
%TD*%
D14*
%TO.P,R85,1*%
%TO.N,/Audio Input/Channel1_Input*%
X166738750Y-90011250D03*
%TO.P,R85,2*%
%TO.N,/Audio Output/A*%
X166738750Y-88011250D03*
%TD*%
D24*
%TO.P,U8,1,GND*%
%TO.N,GND*%
X172788750Y-90471250D03*
%TO.P,U8,2,A2*%
X172788750Y-91741250D03*
%TO.P,U8,3,A1*%
X172788750Y-93011250D03*
%TO.P,U8,4,NC*%
%TO.N,unconnected-(U8-NC-Pad4)*%
X172788750Y-94281250D03*
%TO.P,U8,5,A0*%
%TO.N,GND*%
X172788750Y-95551250D03*
%TO.P,U8,6,W0*%
%TO.N,Net-(U6A-+)*%
X172788750Y-96821250D03*
%TO.P,U8,7,L0*%
%TO.N,VDD*%
X172788750Y-98091250D03*
%TO.P,U8,8,H0*%
%TO.N,Net-(D16-K)*%
X172788750Y-99361250D03*
%TO.P,U8,9,L1*%
%TO.N,VDD*%
X177738750Y-99361250D03*
%TO.P,U8,10,H1*%
%TO.N,Net-(D16-K)*%
X177738750Y-98091250D03*
%TO.P,U8,11,W1*%
%TO.N,Net-(U6B-+)*%
X177738750Y-96821250D03*
%TO.P,U8,12,nCE*%
%TO.N,Net-(U8-nCE)*%
X177738750Y-95551250D03*
%TO.P,U8,13,SDA*%
%TO.N,/SDA0*%
X177738750Y-94281250D03*
%TO.P,U8,14,SCL*%
%TO.N,/SCL0*%
X177738750Y-93011250D03*
%TO.P,U8,15,VCC*%
%TO.N,VCC*%
X177738750Y-91741250D03*
%TO.P,U8,16,VDD*%
%TO.N,+3.3V*%
X177738750Y-90471250D03*
%TD*%
D27*
%TO.P,R61,1*%
%TO.N,Net-(C66-Pad2)*%
X213713750Y-85646250D03*
%TO.P,R61,2*%
%TO.N,GND*%
X211713750Y-85646250D03*
%TD*%
D10*
%TO.P,TP9,1,1*%
%TO.N,Net-(U13-W0)*%
X225288750Y-97741250D03*
%TD*%
D12*
%TO.P,C53,1*%
%TO.N,+12V*%
X216201250Y-60761250D03*
%TO.P,C53,2*%
%TO.N,GND*%
X218276250Y-60761250D03*
%TD*%
D24*
%TO.P,U7,1*%
%TO.N,VDD*%
X169793750Y-113184850D03*
%TO.P,U7,2,-*%
X169793750Y-114454850D03*
%TO.P,U7,3,+*%
%TO.N,Net-(U7A-+)*%
X169793750Y-115724850D03*
%TO.P,U7,4,V-*%
%TO.N,-12V*%
X169793750Y-116994850D03*
%TO.P,U7,5,+*%
%TO.N,Net-(U7A-+)*%
X174743750Y-116994850D03*
%TO.P,U7,6,-*%
%TO.N,VDD*%
X174743750Y-115724850D03*
%TO.P,U7,7*%
X174743750Y-114454850D03*
%TO.P,U7,8,V+*%
%TO.N,+12V*%
X174743750Y-113184850D03*
%TD*%
D10*
%TO.P,TP17,1,1*%
%TO.N,Net-(J5-PadT)*%
X184488750Y-58511250D03*
%TD*%
D16*
%TO.P,R26,1*%
%TO.N,Net-(U9-nCE)*%
X154226250Y-97646250D03*
%TO.P,R26,2*%
%TO.N,GND*%
X156226250Y-97646250D03*
%TD*%
D10*
%TO.P,TP2,1,1*%
%TO.N,+12V*%
X70000000Y-53250000D03*
%TD*%
D17*
%TO.P,C49,1*%
%TO.N,/Audio Output/A*%
X164488750Y-63048750D03*
%TO.P,C49,2*%
%TO.N,Net-(C49-Pad2)*%
X164488750Y-60973750D03*
%TD*%
D20*
%TO.P,R34,1*%
%TO.N,Net-(J4-PadT)*%
X166988750Y-57511250D03*
%TO.P,R34,2*%
%TO.N,Net-(C49-Pad2)*%
X166988750Y-59511250D03*
%TD*%
D16*
%TO.P,R60,1*%
%TO.N,/Audio Output/D*%
X211713750Y-88146250D03*
%TO.P,R60,2*%
%TO.N,Net-(C66-Pad2)*%
X213713750Y-88146250D03*
%TD*%
D12*
%TO.P,C2,1*%
%TO.N,+12V*%
X74462500Y-53750000D03*
%TO.P,C2,2*%
%TO.N,Earth*%
X76537500Y-53750000D03*
%TD*%
D14*
%TO.P,R44,1*%
%TO.N,/Audio Output/A*%
X166738750Y-86051250D03*
%TO.P,R44,2*%
%TO.N,Net-(C45-Pad2)*%
X166738750Y-84051250D03*
%TD*%
D39*
%TO.P,D1,1,K*%
%TO.N,Net-(D1-K)*%
X75000000Y-42750000D03*
%TO.P,D1,2,A*%
%TO.N,+15V*%
X70000000Y-42750000D03*
%TD*%
D40*
%TO.P,Q1,1,G*%
%TO.N,/Teensy/LED_1*%
X124551250Y-69311250D03*
%TO.P,Q1,2,S*%
%TO.N,Earth*%
X124551250Y-71211250D03*
%TO.P,Q1,3,D*%
%TO.N,Net-(Q1-D)*%
X126426250Y-70261250D03*
%TD*%
D20*
%TO.P,R36,1*%
%TO.N,Net-(C51-Pad2)*%
X218738750Y-63261250D03*
%TO.P,R36,2*%
%TO.N,/Audio Output/D*%
X218738750Y-65261250D03*
%TD*%
%TO.P,R74,1*%
%TO.N,Net-(R74-Pad1)*%
X102267750Y-152851650D03*
%TO.P,R74,2*%
%TO.N,Earth*%
X102267750Y-154851650D03*
%TD*%
D17*
%TO.P,C24,1*%
%TO.N,Net-(C24-Pad1)*%
X193488750Y-145298750D03*
%TO.P,C24,2*%
%TO.N,Net-(C24-Pad2)*%
X193488750Y-143223750D03*
%TD*%
D20*
%TO.P,R3,1*%
%TO.N,Net-(D11-K)*%
X146268750Y-121089850D03*
%TO.P,R3,2*%
%TO.N,GND*%
X146268750Y-123089850D03*
%TD*%
%TO.P,R24,1*%
%TO.N,VDD*%
X208623750Y-116011250D03*
%TO.P,R24,2*%
%TO.N,Net-(D16-K)*%
X208623750Y-118011250D03*
%TD*%
D24*
%TO.P,U13,1,GND*%
%TO.N,GND*%
X228813750Y-91796250D03*
%TO.P,U13,2,A2*%
X228813750Y-93066250D03*
%TO.P,U13,3,A1*%
X228813750Y-94336250D03*
%TO.P,U13,4,NC*%
%TO.N,unconnected-(U13-NC-Pad4)*%
X228813750Y-95606250D03*
%TO.P,U13,5,A0*%
%TO.N,GND*%
X228813750Y-96876250D03*
%TO.P,U13,6,W0*%
%TO.N,Net-(U13-W0)*%
X228813750Y-98146250D03*
%TO.P,U13,7,L0*%
%TO.N,VDD*%
X228813750Y-99416250D03*
%TO.P,U13,8,H0*%
%TO.N,Net-(D17-K)*%
X228813750Y-100686250D03*
%TO.P,U13,9,L1*%
%TO.N,VDD*%
X233763750Y-100686250D03*
%TO.P,U13,10,H1*%
%TO.N,Net-(D17-K)*%
X233763750Y-99416250D03*
%TO.P,U13,11,W1*%
%TO.N,Net-(U13-W1)*%
X233763750Y-98146250D03*
%TO.P,U13,12,nCE*%
%TO.N,Net-(U13-nCE)*%
X233763750Y-96876250D03*
%TO.P,U13,13,SDA*%
%TO.N,/SDA1*%
X233763750Y-95606250D03*
%TO.P,U13,14,SCL*%
%TO.N,/SCL1*%
X233763750Y-94336250D03*
%TO.P,U13,15,VCC*%
%TO.N,VCC*%
X233763750Y-93066250D03*
%TO.P,U13,16,VDD*%
%TO.N,+3.3V*%
X233763750Y-91796250D03*
%TD*%
D10*
%TO.P,TP22,1,1*%
%TO.N,/Teensy/Channel Selection*%
X127158750Y-145062650D03*
%TD*%
D14*
%TO.P,R83,1*%
%TO.N,/Teensy/Button_2*%
X89175000Y-102590000D03*
%TO.P,R83,2*%
%TO.N,+3.3V*%
X89175000Y-100590000D03*
%TD*%
D27*
%TO.P,R65,1*%
%TO.N,Net-(J9-Pin_2)*%
X153988750Y-145261250D03*
%TO.P,R65,2*%
%TO.N,Net-(U19B-+)*%
X151988750Y-145261250D03*
%TD*%
D41*
%TO.P,R40,1*%
%TO.N,+5V*%
X126600000Y-112314850D03*
%TO.P,R40,2*%
%TO.N,VCC*%
X131400000Y-112314850D03*
%TD*%
D16*
%TO.P,R56,1*%
%TO.N,+3.3V*%
X199763750Y-99336250D03*
%TO.P,R56,2*%
%TO.N,Net-(U17-A0)*%
X201763750Y-99336250D03*
%TD*%
D17*
%TO.P,C28,1*%
%TO.N,Net-(C28-Pad1)*%
X238488750Y-147336250D03*
%TO.P,C28,2*%
%TO.N,Net-(C28-Pad2)*%
X238488750Y-145261250D03*
%TD*%
D35*
%TO.P,J8,1,Pin_1*%
%TO.N,+3.3V*%
X162500000Y-156000000D03*
D26*
%TO.P,J8,2,Pin_2*%
%TO.N,Net-(J8-Pin_2)*%
X165000000Y-156000000D03*
%TO.P,J8,3,Pin_3*%
%TO.N,Earth*%
X167500000Y-156000000D03*
%TD*%
D14*
%TO.P,R11,1*%
%TO.N,Net-(D9-A)*%
X66500000Y-63250000D03*
%TO.P,R11,2*%
%TO.N,Earth*%
X66500000Y-61250000D03*
%TD*%
D13*
%TO.P,C83,1*%
%TO.N,/Teensy/Button_2*%
X86712500Y-102590000D03*
%TO.P,C83,2*%
%TO.N,Earth*%
X84637500Y-102590000D03*
%TD*%
D16*
%TO.P,R58,1*%
%TO.N,Net-(C65-Pad2)*%
X199213750Y-84146250D03*
%TO.P,R58,2*%
%TO.N,GND*%
X201213750Y-84146250D03*
%TD*%
D12*
%TO.P,C75,1*%
%TO.N,Net-(U19A-+)*%
X137451250Y-142261250D03*
%TO.P,C75,2*%
%TO.N,Earth*%
X139526250Y-142261250D03*
%TD*%
D19*
%TO.P,D13,1,K*%
%TO.N,Net-(D12-K)*%
X188488750Y-136411250D03*
%TO.P,D13,2,A*%
%TO.N,GND*%
X188488750Y-133111250D03*
%TD*%
D10*
%TO.P,TP14,1,1*%
%TO.N,Net-(U10B-+)*%
X155251250Y-100971250D03*
%TD*%
D17*
%TO.P,C12,1*%
%TO.N,-15V*%
X65500000Y-33537500D03*
%TO.P,C12,2*%
%TO.N,Earth*%
X65500000Y-31462500D03*
%TD*%
D13*
%TO.P,C55,1*%
%TO.N,/Audio Input/Channel2_Input*%
X222761250Y-120261250D03*
%TO.P,C55,2*%
%TO.N,Net-(D17-K)*%
X220686250Y-120261250D03*
%TD*%
D15*
%TO.P,C6,1*%
%TO.N,Net-(D1-K)*%
X69250000Y-46462500D03*
%TO.P,C6,2*%
%TO.N,Earth*%
X69250000Y-48537500D03*
%TD*%
D14*
%TO.P,R79,1*%
%TO.N,Earth*%
X121988750Y-71261250D03*
%TO.P,R79,2*%
%TO.N,/Teensy/LED_1*%
X121988750Y-69261250D03*
%TD*%
D13*
%TO.P,C74,1*%
%TO.N,+3.3V*%
X143526250Y-144761250D03*
%TO.P,C74,2*%
%TO.N,Earth*%
X141451250Y-144761250D03*
%TD*%
D12*
%TO.P,C1,1*%
%TO.N,+12V*%
X74462500Y-56000000D03*
%TO.P,C1,2*%
%TO.N,Earth*%
X76537500Y-56000000D03*
%TD*%
D16*
%TO.P,R27,1*%
%TO.N,+3.3V*%
X142226250Y-97646250D03*
%TO.P,R27,2*%
%TO.N,Net-(U9-A0)*%
X144226250Y-97646250D03*
%TD*%
D20*
%TO.P,R32,1*%
%TO.N,Net-(C50-Pad2)*%
X177488750Y-64011250D03*
%TO.P,R32,2*%
%TO.N,/Audio Output/B*%
X177488750Y-66011250D03*
%TD*%
D14*
%TO.P,R57,1*%
%TO.N,/Audio Output/C*%
X197213750Y-86146250D03*
%TO.P,R57,2*%
%TO.N,Net-(C65-Pad2)*%
X197213750Y-84146250D03*
%TD*%
D13*
%TO.P,C44,1*%
%TO.N,-12V*%
X164488750Y-66011250D03*
%TO.P,C44,2*%
%TO.N,GND*%
X162413750Y-66011250D03*
%TD*%
D29*
%TO.P,RV3,*%
%TO.N,*%
X135488750Y-158061250D03*
X135488750Y-148461250D03*
D21*
%TO.P,RV3,1,1*%
%TO.N,Earth*%
X142988750Y-155761250D03*
D22*
%TO.P,RV3,2,2*%
%TO.N,Net-(J8-Pin_2)*%
X142988750Y-153261250D03*
%TO.P,RV3,3,3*%
%TO.N,+3.3V*%
X142988750Y-150761250D03*
%TD*%
D12*
%TO.P,C57,1*%
%TO.N,+3.3V*%
X236726250Y-91241250D03*
%TO.P,C57,2*%
%TO.N,GND*%
X238801250Y-91241250D03*
%TD*%
D27*
%TO.P,R18,1*%
%TO.N,Net-(C28-Pad2)*%
X240488750Y-142761250D03*
%TO.P,R18,2*%
%TO.N,Net-(U4B--)*%
X238488750Y-142761250D03*
%TD*%
D24*
%TO.P,U10,1*%
%TO.N,Net-(U10A--)*%
X148751250Y-83741250D03*
%TO.P,U10,2,-*%
X148751250Y-85011250D03*
%TO.P,U10,3,+*%
%TO.N,Net-(U10A-+)*%
X148751250Y-86281250D03*
%TO.P,U10,4,V-*%
%TO.N,-12V*%
X148751250Y-87551250D03*
%TO.P,U10,5,+*%
%TO.N,Net-(U10B-+)*%
X153701250Y-87551250D03*
%TO.P,U10,6,-*%
%TO.N,Net-(U10B--)*%
X153701250Y-86281250D03*
%TO.P,U10,7*%
X153701250Y-85011250D03*
%TO.P,U10,8,V+*%
%TO.N,+12V*%
X153701250Y-83741250D03*
%TD*%
D14*
%TO.P,R49,1*%
%TO.N,/Audio Output/A*%
X221851250Y-84876250D03*
%TO.P,R49,2*%
%TO.N,Net-(C58-Pad2)*%
X221851250Y-82876250D03*
%TD*%
%TO.P,R29,1*%
%TO.N,Net-(C46-Pad2)*%
X188238750Y-85051250D03*
%TO.P,R29,2*%
%TO.N,GND*%
X188238750Y-83051250D03*
%TD*%
D10*
%TO.P,TP7,1,1*%
%TO.N,/Audio Input/Channel2_Input*%
X239988750Y-127761250D03*
%TD*%
%TO.P,TP15,1,1*%
%TO.N,Net-(U16B-+)*%
X212488750Y-102011250D03*
%TD*%
D15*
%TO.P,C34,1*%
%TO.N,VCC*%
X163768750Y-113052350D03*
%TO.P,C34,2*%
%TO.N,GND*%
X163768750Y-115127350D03*
%TD*%
D12*
%TO.P,C56,1*%
%TO.N,VCC*%
X236726250Y-93741250D03*
%TO.P,C56,2*%
%TO.N,GND*%
X238801250Y-93741250D03*
%TD*%
%TO.P,C38,1*%
%TO.N,+3.3V*%
X180251250Y-90281250D03*
%TO.P,C38,2*%
%TO.N,GND*%
X182326250Y-90281250D03*
%TD*%
%TO.P,C32,1*%
%TO.N,VCC*%
X151731250Y-109489850D03*
%TO.P,C32,2*%
%TO.N,GND*%
X153806250Y-109489850D03*
%TD*%
D28*
%TO.P,SW5,1,A*%
%TO.N,/Teensy/Button_3*%
X89350000Y-143925000D03*
%TO.P,SW5,2,B*%
%TO.N,Earth*%
X83000000Y-146465000D03*
%TD*%
D10*
%TO.P,TP23,1,1*%
%TO.N,VDD*%
X178668750Y-113589850D03*
%TD*%
D17*
%TO.P,C50,1*%
%TO.N,/Audio Output/B*%
X174988750Y-66048750D03*
%TO.P,C50,2*%
%TO.N,Net-(C50-Pad2)*%
X174988750Y-63973750D03*
%TD*%
D13*
%TO.P,C77,1*%
%TO.N,+5V*%
X116247557Y-86234230D03*
%TO.P,C77,2*%
%TO.N,Earth*%
X114172557Y-86234230D03*
%TD*%
D18*
%TO.P,J7,R*%
%TO.N,unconnected-(J7-PadR)*%
X213873750Y-39859850D03*
%TO.P,J7,RN*%
%TO.N,unconnected-(J7-PadRN)*%
X230103750Y-39859850D03*
%TO.P,J7,S*%
%TO.N,GND*%
X213873750Y-33509850D03*
%TO.P,J7,SN*%
X230103750Y-33509850D03*
%TO.P,J7,T*%
%TO.N,Net-(J7-PadT)*%
X213873750Y-46209850D03*
%TO.P,J7,TN*%
X230103750Y-46209850D03*
%TD*%
D42*
%TO.P,NT1,1,1*%
%TO.N,Earth*%
X127000000Y-120500000D03*
%TO.P,NT1,2,2*%
%TO.N,GND*%
X131000000Y-120500000D03*
%TD*%
D12*
%TO.P,C68,1*%
%TO.N,+12V*%
X211676250Y-80146250D03*
%TO.P,C68,2*%
%TO.N,GND*%
X213751250Y-80146250D03*
%TD*%
D10*
%TO.P,TP12,1,1*%
%TO.N,Net-(U10A-+)*%
X142751250Y-100971250D03*
%TD*%
D15*
%TO.P,C70,1*%
%TO.N,-12V*%
X204213750Y-86108750D03*
%TO.P,C70,2*%
%TO.N,GND*%
X204213750Y-88183750D03*
%TD*%
D20*
%TO.P,R38,1*%
%TO.N,Net-(J7-PadT)*%
X222238750Y-59761250D03*
%TO.P,R38,2*%
%TO.N,Net-(C51-Pad2)*%
X222238750Y-61761250D03*
%TD*%
D21*
%TO.P,D9,1,K*%
%TO.N,-12V*%
X61225000Y-65000000D03*
D22*
%TO.P,D9,2,A*%
%TO.N,Net-(D9-A)*%
X63765000Y-65000000D03*
%TD*%
D13*
%TO.P,C86,1*%
%TO.N,/Teensy/PROGRAM*%
X78803750Y-78062650D03*
%TO.P,C86,2*%
%TO.N,Earth*%
X76728750Y-78062650D03*
%TD*%
D18*
%TO.P,J2,R*%
%TO.N,unconnected-(J2-PadR)*%
X213238750Y-153912650D03*
%TO.P,J2,RN*%
%TO.N,unconnected-(J2-PadRN)*%
X197008750Y-153912650D03*
%TO.P,J2,S*%
%TO.N,GND*%
X213238750Y-160262650D03*
%TO.P,J2,SN*%
X197008750Y-160262650D03*
%TO.P,J2,T*%
%TO.N,Net-(C24-Pad1)*%
X213238750Y-147562650D03*
%TO.P,J2,TN*%
X197008750Y-147562650D03*
%TD*%
D13*
%TO.P,C65,1*%
%TO.N,Net-(U16A--)*%
X201251250Y-81646250D03*
%TO.P,C65,2*%
%TO.N,Net-(C65-Pad2)*%
X199176250Y-81646250D03*
%TD*%
D12*
%TO.P,C13,1*%
%TO.N,Net-(D5-A)*%
X63462500Y-48500000D03*
%TO.P,C13,2*%
%TO.N,Earth*%
X65537500Y-48500000D03*
%TD*%
D43*
%TO.P,R20,1*%
%TO.N,Net-(U5-VIN)*%
X152268750Y-118089850D03*
%TO.P,R20,2*%
%TO.N,+12V*%
X152268750Y-122889850D03*
%TD*%
D27*
%TO.P,R52,1*%
%TO.N,/Audio Output/B*%
X242851250Y-85376250D03*
%TO.P,R52,2*%
%TO.N,Net-(C59-Pad2)*%
X240851250Y-85376250D03*
%TD*%
D12*
%TO.P,C30,1*%
%TO.N,-12V*%
X213426250Y-138396250D03*
%TO.P,C30,2*%
%TO.N,GND*%
X215501250Y-138396250D03*
%TD*%
D27*
%TO.P,R80,1*%
%TO.N,Net-(Q2-D)*%
X127151250Y-83211250D03*
%TO.P,R80,2*%
%TO.N,Net-(D21-K)*%
X125151250Y-83211250D03*
%TD*%
D13*
%TO.P,C84,1*%
%TO.N,/Teensy/Button_3*%
X84385000Y-134005000D03*
%TO.P,C84,2*%
%TO.N,Earth*%
X82310000Y-134005000D03*
%TD*%
D27*
%TO.P,R45,1*%
%TO.N,/Audio Output/B*%
X187738750Y-87551250D03*
%TO.P,R45,2*%
%TO.N,Net-(C46-Pad2)*%
X185738750Y-87551250D03*
%TD*%
D24*
%TO.P,U4,1*%
%TO.N,/Audio Input/Channel1_Input*%
X214013750Y-131856250D03*
%TO.P,U4,2,-*%
%TO.N,Net-(U4A--)*%
X214013750Y-133126250D03*
%TO.P,U4,3,+*%
%TO.N,Net-(U4A-+)*%
X214013750Y-134396250D03*
%TO.P,U4,4,V-*%
%TO.N,-12V*%
X214013750Y-135666250D03*
%TO.P,U4,5,+*%
%TO.N,Net-(U4B-+)*%
X218963750Y-135666250D03*
%TO.P,U4,6,-*%
%TO.N,Net-(U4B--)*%
X218963750Y-134396250D03*
%TO.P,U4,7*%
%TO.N,/Audio Input/Channel2_Input*%
X218963750Y-133126250D03*
%TO.P,U4,8,V+*%
%TO.N,+12V*%
X218963750Y-131856250D03*
%TD*%
D20*
%TO.P,R33,1*%
%TO.N,Net-(C49-Pad2)*%
X161988750Y-61011250D03*
%TO.P,R33,2*%
%TO.N,/Audio Output/A*%
X161988750Y-63011250D03*
%TD*%
%TO.P,R75,1*%
%TO.N,Net-(R75-Pad1)*%
X100767750Y-145351650D03*
%TO.P,R75,2*%
%TO.N,Earth*%
X100767750Y-147351650D03*
%TD*%
D10*
%TO.P,TP10,1,1*%
%TO.N,Net-(U6B-+)*%
X181288750Y-98741250D03*
%TD*%
D27*
%TO.P,R78,1*%
%TO.N,Net-(Q1-D)*%
X126488750Y-66761250D03*
%TO.P,R78,2*%
%TO.N,Net-(D20-K)*%
X124488750Y-66761250D03*
%TD*%
D14*
%TO.P,R69,1*%
%TO.N,+3.3V*%
X88210057Y-89734230D03*
%TO.P,R69,2*%
%TO.N,/SCL1*%
X88210057Y-87734230D03*
%TD*%
D13*
%TO.P,C47,1*%
%TO.N,Net-(U10A--)*%
X146238750Y-85281250D03*
%TO.P,C47,2*%
%TO.N,Net-(C47-Pad2)*%
X144163750Y-85281250D03*
%TD*%
D14*
%TO.P,R31,1*%
%TO.N,Net-(C48-Pad2)*%
X160701250Y-86281250D03*
%TO.P,R31,2*%
%TO.N,GND*%
X160701250Y-84281250D03*
%TD*%
D16*
%TO.P,R25,1*%
%TO.N,Net-(U8-nCE)*%
X180288750Y-96011250D03*
%TO.P,R25,2*%
%TO.N,GND*%
X182288750Y-96011250D03*
%TD*%
D23*
%TO.P,D23,1,A1*%
%TO.N,/Teensy/Button_2*%
X87675000Y-105590000D03*
%TO.P,D23,2,A2*%
%TO.N,Earth*%
X83675000Y-105590000D03*
%TD*%
D24*
%TO.P,U14,1*%
%TO.N,Net-(U14A--)*%
X229338750Y-81471250D03*
%TO.P,U14,2,-*%
X229338750Y-82741250D03*
%TO.P,U14,3,+*%
%TO.N,Net-(U13-W0)*%
X229338750Y-84011250D03*
%TO.P,U14,4,V-*%
%TO.N,-12V*%
X229338750Y-85281250D03*
%TO.P,U14,5,+*%
%TO.N,Net-(U13-W1)*%
X234288750Y-85281250D03*
%TO.P,U14,6,-*%
%TO.N,Net-(U14B--)*%
X234288750Y-84011250D03*
%TO.P,U14,7*%
X234288750Y-82741250D03*
%TO.P,U14,8,V+*%
%TO.N,+12V*%
X234288750Y-81471250D03*
%TD*%
D10*
%TO.P,TP11,1,1*%
%TO.N,Net-(U13-W1)*%
X237288750Y-99241250D03*
%TD*%
D44*
%TO.P,D15,1,K*%
%TO.N,Net-(D14-K)*%
X239988750Y-136111250D03*
%TO.P,D15,2,A*%
%TO.N,GND*%
X239988750Y-139411250D03*
%TD*%
D20*
%TO.P,R14,1*%
%TO.N,Net-(C24-Pad2)*%
X190738750Y-143261250D03*
%TO.P,R14,2*%
%TO.N,GND*%
X190738750Y-145261250D03*
%TD*%
D19*
%TO.P,D14,1,K*%
%TO.N,Net-(D14-K)*%
X239988750Y-133911250D03*
%TO.P,D14,2,A*%
%TO.N,/Audio Input/Channel2_Input*%
X239988750Y-130611250D03*
%TD*%
D40*
%TO.P,Q2,1,G*%
%TO.N,/Teensy/LED_2*%
X123276250Y-85761250D03*
%TO.P,Q2,2,S*%
%TO.N,Earth*%
X123276250Y-87661250D03*
%TO.P,Q2,3,D*%
%TO.N,Net-(Q2-D)*%
X125151250Y-86711250D03*
%TD*%
D27*
%TO.P,R47,1*%
%TO.N,/Audio Output/D*%
X160201250Y-88781250D03*
%TO.P,R47,2*%
%TO.N,Net-(C48-Pad2)*%
X158201250Y-88781250D03*
%TD*%
D10*
%TO.P,TP8,1,1*%
%TO.N,Net-(U6A-+)*%
X169288750Y-97511250D03*
%TD*%
D45*
%TO.P,U20,1,GND*%
%TO.N,Earth*%
X114813750Y-67942650D03*
%TO.P,U20,2,0_RX1_CRX2_CS1*%
%TO.N,unconnected-(U20-0_RX1_CRX2_CS1-Pad2)*%
X112273750Y-67942650D03*
%TO.P,U20,3,1_TX1_CTX2_MISO1*%
%TO.N,unconnected-(U20-1_TX1_CTX2_MISO1-Pad3)*%
X109733750Y-67942650D03*
%TO.P,U20,4,2_OUT2*%
%TO.N,/Teensy/LED_1*%
X107193750Y-67942650D03*
%TO.P,U20,5,3_LRCLK2*%
%TO.N,/Teensy/LED_2*%
X104653750Y-67942650D03*
%TO.P,U20,6,4_BCLK2*%
%TO.N,unconnected-(U20-4_BCLK2-Pad6)*%
X102113750Y-67942650D03*
%TO.P,U20,7,5_IN2*%
%TO.N,unconnected-(U20-5_IN2-Pad7)*%
X99573750Y-67942650D03*
%TO.P,U20,8,6_OUT1D*%
%TO.N,/Teensy/Button_3*%
X97033750Y-67942650D03*
%TO.P,U20,9,7_RX2_OUT1A*%
%TO.N,/Teensy/Button_1*%
X94493750Y-67942650D03*
%TO.P,U20,10,8_TX2_IN1*%
%TO.N,/Teensy/Button_2*%
X91953750Y-67942650D03*
%TO.P,U20,11,9_OUT1C*%
%TO.N,unconnected-(U20-9_OUT1C-Pad11)*%
X89413750Y-67942650D03*
%TO.P,U20,12,10_CS_MQSR*%
%TO.N,unconnected-(U20-10_CS_MQSR-Pad12)*%
X86873750Y-67942650D03*
%TO.P,U20,13,11_MOSI_CTX1*%
%TO.N,unconnected-(U20-11_MOSI_CTX1-Pad13)*%
X84333750Y-67942650D03*
%TO.P,U20,14,12_MISO_MQSL*%
%TO.N,unconnected-(U20-12_MISO_MQSL-Pad14)*%
X81793750Y-67942650D03*
%TO.P,U20,15,VBAT*%
%TO.N,unconnected-(U20-VBAT-Pad15)*%
X81793750Y-70482650D03*
%TO.P,U20,16,3V3*%
%TO.N,+3.3V*%
X81793750Y-73022650D03*
%TO.P,U20,17,GND*%
%TO.N,Earth*%
X81793750Y-75562650D03*
%TO.P,U20,18,PROGRAM*%
%TO.N,/Teensy/PROGRAM*%
X81793750Y-78102650D03*
%TO.P,U20,19,ON_OFF*%
%TO.N,/Teensy/POWER*%
X81793750Y-80642650D03*
%TO.P,U20,20,13_SCK_CRX1_LED*%
%TO.N,unconnected-(U20-13_SCK_CRX1_LED-Pad20)*%
X81793750Y-83182650D03*
%TO.P,U20,21,14_A0_TX3_SPDIF_OUT*%
%TO.N,/Teensy/Channel Selection*%
X84333750Y-83182650D03*
%TO.P,U20,22,15_A1_RX3_SPDIF_IN*%
%TO.N,/Teensy/AB_Control*%
X86873750Y-83182650D03*
%TO.P,U20,23,16_A2_RX4_SCL1*%
%TO.N,/SCL1*%
X89413750Y-83182650D03*
%TO.P,U20,24,17_A3_TX4_SDA1*%
%TO.N,/SDA1*%
X91953750Y-83182650D03*
%TO.P,U20,25,18_A4_SDA0*%
%TO.N,/SDA0*%
X94493750Y-83182650D03*
%TO.P,U20,26,19_A5_SCL0*%
%TO.N,/SCL0*%
X97033750Y-83182650D03*
%TO.P,U20,27,20_A6_TX5_LRCLK1*%
%TO.N,/Teensy/CD_Control*%
X99573750Y-83182650D03*
%TO.P,U20,28,21_A7_RX5_BCLK1*%
%TO.N,unconnected-(U20-21_A7_RX5_BCLK1-Pad28)*%
X102113750Y-83182650D03*
%TO.P,U20,29,22_A8_CTX1*%
%TO.N,unconnected-(U20-22_A8_CTX1-Pad29)*%
X104653750Y-83182650D03*
%TO.P,U20,30,23_A9_CRX1_MCLK1*%
%TO.N,unconnected-(U20-23_A9_CRX1_MCLK1-Pad30)*%
X107193750Y-83182650D03*
%TO.P,U20,31,3V3*%
%TO.N,+3.3V*%
X109733750Y-83182650D03*
%TO.P,U20,32,GND*%
%TO.N,Earth*%
X112273750Y-83182650D03*
%TO.P,U20,33,VIN*%
%TO.N,+5V*%
X114813750Y-83182650D03*
%TO.P,U20,34,VUSB*%
%TO.N,unconnected-(U20-VUSB-Pad34)*%
X112273750Y-80642650D03*
%TO.P,U20,35,24_A10_TX6_SCL2*%
%TO.N,unconnected-(U20-24_A10_TX6_SCL2-Pad35)*%
X86873750Y-80642650D03*
%TO.P,U20,36,25_A11_RX6_SDA2*%
%TO.N,unconnected-(U20-25_A11_RX6_SDA2-Pad36)*%
X89413750Y-80642650D03*
%TO.P,U20,37,26_A12_MOSI1*%
%TO.N,unconnected-(U20-26_A12_MOSI1-Pad37)*%
X86873750Y-78102650D03*
%TO.P,U20,38,27_A13_SCK1*%
%TO.N,unconnected-(U20-27_A13_SCK1-Pad38)*%
X89413750Y-78102650D03*
%TO.P,U20,39,28_RX7*%
%TO.N,unconnected-(U20-28_RX7-Pad39)*%
X86873750Y-75562650D03*
%TO.P,U20,40,29_TX7*%
%TO.N,unconnected-(U20-29_TX7-Pad40)*%
X89413750Y-75562650D03*
%TO.P,U20,41,30_CRX3*%
%TO.N,unconnected-(U20-30_CRX3-Pad41)*%
X86873750Y-73022650D03*
%TO.P,U20,42,31_CTX3*%
%TO.N,unconnected-(U20-31_CTX3-Pad42)*%
X89413750Y-73022650D03*
%TO.P,U20,43,32_OUT1B*%
%TO.N,unconnected-(U20-32_OUT1B-Pad43)*%
X86873750Y-70482650D03*
%TO.P,U20,44,33_MCLK2*%
%TO.N,unconnected-(U20-33_MCLK2-Pad44)*%
X89413750Y-70482650D03*
%TD*%
D10*
%TO.P,TP20,1,1*%
%TO.N,/Teensy/AB_Control*%
X138988750Y-132761250D03*
%TD*%
D14*
%TO.P,R46,1*%
%TO.N,/Audio Output/C*%
X139201250Y-86000000D03*
%TO.P,R46,2*%
%TO.N,Net-(C47-Pad2)*%
X139201250Y-84000000D03*
%TD*%
D21*
%TO.P,D20,1,K*%
%TO.N,Net-(D20-K)*%
X120988750Y-66536250D03*
D22*
%TO.P,D20,2,A*%
%TO.N,+3.3V*%
X120988750Y-63996250D03*
%TD*%
D15*
%TO.P,C60,1*%
%TO.N,VDD*%
X177768750Y-116052350D03*
%TO.P,C60,2*%
%TO.N,GND*%
X177768750Y-118127350D03*
%TD*%
D14*
%TO.P,R67,1*%
%TO.N,+3.3V*%
X94960057Y-89734230D03*
%TO.P,R67,2*%
%TO.N,/SDA0*%
X94960057Y-87734230D03*
%TD*%
D27*
%TO.P,R86,1*%
%TO.N,/Audio Input/Channel2_Input*%
X213713750Y-90646250D03*
%TO.P,R86,2*%
%TO.N,/Audio Output/D*%
X211713750Y-90646250D03*
%TD*%
D12*
%TO.P,C43,1*%
%TO.N,+12V*%
X174451250Y-61511250D03*
%TO.P,C43,2*%
%TO.N,GND*%
X176526250Y-61511250D03*
%TD*%
D15*
%TO.P,C85,1*%
%TO.N,/Teensy/POWER*%
X78553750Y-81025150D03*
%TO.P,C85,2*%
%TO.N,Earth*%
X78553750Y-83100150D03*
%TD*%
D14*
%TO.P,R16,1*%
%TO.N,Net-(U4A--)*%
X210523750Y-128761250D03*
%TO.P,R16,2*%
%TO.N,Net-(R16-Pad2)*%
X210523750Y-126761250D03*
%TD*%
D15*
%TO.P,C5,1*%
%TO.N,Net-(D1-K)*%
X71750000Y-46462500D03*
%TO.P,C5,2*%
%TO.N,Earth*%
X71750000Y-48537500D03*
%TD*%
D13*
%TO.P,C31,1*%
%TO.N,+12V*%
X219501250Y-129396250D03*
%TO.P,C31,2*%
%TO.N,GND*%
X217426250Y-129396250D03*
%TD*%
D12*
%TO.P,C63,1*%
%TO.N,+3.3V*%
X211726250Y-93836250D03*
%TO.P,C63,2*%
%TO.N,GND*%
X213801250Y-93836250D03*
%TD*%
%TO.P,C76,1*%
%TO.N,Net-(U19B-+)*%
X151951250Y-142761250D03*
%TO.P,C76,2*%
%TO.N,Earth*%
X154026250Y-142761250D03*
%TD*%
%TO.P,C35,1*%
%TO.N,VCC*%
X180251250Y-92781250D03*
%TO.P,C35,2*%
%TO.N,GND*%
X182326250Y-92781250D03*
%TD*%
%TO.P,C59,1*%
%TO.N,Net-(U14B--)*%
X236776250Y-82876250D03*
%TO.P,C59,2*%
%TO.N,Net-(C59-Pad2)*%
X238851250Y-82876250D03*
%TD*%
D24*
%TO.P,U11,1*%
%TO.N,Net-(C49-Pad2)*%
X167013750Y-61606250D03*
%TO.P,U11,2,-*%
%TO.N,/Audio Output/A*%
X167013750Y-62876250D03*
%TO.P,U11,3,+*%
%TO.N,GND*%
X167013750Y-64146250D03*
%TO.P,U11,4,V-*%
%TO.N,-12V*%
X167013750Y-65416250D03*
%TO.P,U11,5,+*%
%TO.N,GND*%
X171963750Y-65416250D03*
%TO.P,U11,6,-*%
%TO.N,/Audio Output/B*%
X171963750Y-64146250D03*
%TO.P,U11,7*%
%TO.N,Net-(C50-Pad2)*%
X171963750Y-62876250D03*
%TO.P,U11,8,V+*%
%TO.N,+12V*%
X171963750Y-61606250D03*
%TD*%
D46*
%TO.N,Earth*%
X81750000Y-44250000D03*
X103767750Y-139232250D03*
X74290150Y-78062650D03*
X114172557Y-87945057D03*
X102238750Y-156511250D03*
X82000000Y-31250000D03*
X86250000Y-44250000D03*
X81750000Y-55000000D03*
X147000000Y-131500000D03*
X124436250Y-72759850D03*
X78230000Y-137005000D03*
X66500000Y-58500000D03*
X98488750Y-147511250D03*
X84000000Y-55000000D03*
X84000000Y-44250000D03*
X141238750Y-142261250D03*
X79500000Y-55000000D03*
X80730000Y-134005000D03*
X80775000Y-105590000D03*
X123238750Y-149761250D03*
X120598750Y-89459850D03*
X86250000Y-53000000D03*
X144788750Y-130711250D03*
X123276250Y-89137350D03*
X78488750Y-85261250D03*
X112988750Y-158261250D03*
X118738750Y-158511250D03*
X103690000Y-102395000D03*
X95380000Y-58100000D03*
X86250000Y-51000000D03*
X86250000Y-55000000D03*
X121398350Y-137851650D03*
X121988750Y-72957350D03*
X112380000Y-57850000D03*
X121767750Y-155982250D03*
X86250000Y-48750000D03*
X146738750Y-141011250D03*
X76750000Y-74500000D03*
D47*
X124250000Y-120500000D03*
D46*
X102150000Y-105435000D03*
X111997557Y-88002443D03*
X86250000Y-46500000D03*
X155988750Y-147511250D03*
X141488750Y-147511250D03*
X67250000Y-48500000D03*
X79250000Y-44250000D03*
X85000000Y-100700000D03*
X156238750Y-142761250D03*
X153738750Y-133011250D03*
X63600000Y-30600000D03*
%TO.N,+12V*%
X150000000Y-130000000D03*
X72000000Y-51500000D03*
X159217350Y-111989850D03*
X174000000Y-60000000D03*
X183000000Y-81000000D03*
X154000000Y-82000000D03*
X171604850Y-111127350D03*
X213000000Y-78000000D03*
X216000000Y-59000000D03*
X151674775Y-125825225D03*
X68500000Y-51500000D03*
X236813750Y-78186250D03*
X219501250Y-127501250D03*
X72000000Y-53250000D03*
%TO.N,-12V*%
X141500000Y-140500000D03*
X174000000Y-87800000D03*
X206091250Y-86108750D03*
X58500000Y-64750000D03*
X168000000Y-121000000D03*
X226800000Y-87200000D03*
X206238750Y-67761250D03*
X148000000Y-89200000D03*
X212000000Y-139000000D03*
X164400000Y-68000000D03*
%TO.N,GND*%
X240738750Y-96761250D03*
X152738750Y-116511250D03*
X215523750Y-140161250D03*
X215913750Y-99336250D03*
X216723750Y-140161250D03*
X168988750Y-64261250D03*
X211738750Y-65011250D03*
X171701250Y-87723750D03*
X240488750Y-93761250D03*
X190723750Y-147061250D03*
X160488750Y-66011250D03*
X157738750Y-91761250D03*
X190198750Y-83051250D03*
X209988750Y-85761250D03*
X236988750Y-87261250D03*
X183968750Y-96011250D03*
X210488750Y-63761250D03*
X170890163Y-90385243D03*
X213023750Y-122161250D03*
X169768750Y-122731250D03*
X215413750Y-93836250D03*
X140750000Y-87471250D03*
X230488750Y-97011250D03*
X186223750Y-133061250D03*
X163768750Y-116731250D03*
X220238750Y-60761250D03*
X215738750Y-80261250D03*
X226543750Y-93066250D03*
X171738750Y-109011250D03*
X142500000Y-88500000D03*
X158123750Y-94146250D03*
X242023750Y-139411250D03*
X215073750Y-118311250D03*
X203988750Y-67761250D03*
X169988750Y-65261250D03*
X183968750Y-90281250D03*
X202316250Y-88183750D03*
X169238750Y-87761250D03*
X210523750Y-138561250D03*
X240873750Y-149261250D03*
D47*
X134100000Y-120500000D03*
D46*
X174988750Y-96511250D03*
X240853750Y-80376250D03*
X162488750Y-84261250D03*
X144738750Y-92261250D03*
X178238750Y-61511250D03*
X240488750Y-91011250D03*
X228238750Y-79511250D03*
X177768750Y-119981250D03*
X160238750Y-82261250D03*
X226836250Y-89413750D03*
X215488750Y-96261250D03*
X202238750Y-94511250D03*
X146488750Y-124511250D03*
X201238750Y-85761250D03*
X157988750Y-97761250D03*
X183988750Y-92761250D03*
X155238750Y-121761250D03*
X185988750Y-80761250D03*
X166238750Y-120761250D03*
X155717350Y-109489850D03*
X217426250Y-127563750D03*
%TO.N,/Audio Input/Channel1_Input*%
X167000000Y-91500000D03*
X187500000Y-91861750D03*
%TO.N,/Audio Input/Channel2_Input*%
X199000000Y-90154750D03*
X216000000Y-90646250D03*
%TO.N,VCC*%
X154226250Y-96191750D03*
X180488750Y-94261250D03*
X206738750Y-95011250D03*
X236726250Y-95248750D03*
%TO.N,+3.3V*%
X124000000Y-132000000D03*
X125500000Y-141500000D03*
X154250000Y-90000000D03*
X175000000Y-90775500D03*
X231488750Y-91761250D03*
X125800000Y-132000000D03*
X101500000Y-91000000D03*
X207488750Y-91761250D03*
X106500000Y-91000000D03*
X104000000Y-91000000D03*
X122200000Y-132000000D03*
%TO.N,/Audio Output/A*%
X221000000Y-87000000D03*
X168500000Y-89000000D03*
%TO.N,/Teensy/Button_1*%
X104800000Y-95100000D03*
%TO.N,/Teensy/Button_2*%
X81500000Y-89000000D03*
%TO.N,VDD*%
X179738750Y-111011250D03*
X233738750Y-102261250D03*
X209238750Y-104761250D03*
X174988750Y-98011250D03*
X177238750Y-111011250D03*
X230988750Y-99261250D03*
X151738750Y-102511250D03*
X148725036Y-100247536D03*
X177738750Y-101011250D03*
X206488750Y-101511250D03*
X221000000Y-114000000D03*
X208000000Y-114000000D03*
%TO.N,/SCL0*%
X100500000Y-88000000D03*
X174988750Y-92261250D03*
X149488750Y-94511250D03*
%TO.N,/SDA0*%
X149488750Y-95761250D03*
X175488750Y-95261250D03*
X96500000Y-88000000D03*
%TO.N,/SDA1*%
X93000000Y-88000000D03*
X206988750Y-98011250D03*
X231488750Y-95761250D03*
%TO.N,/SCL1*%
X207238750Y-96761250D03*
X86000000Y-88500000D03*
X231238750Y-94511250D03*
%TD*%
D48*
%TO.N,Earth*%
X154026250Y-142761250D02*
X156238750Y-142761250D01*
D49*
X66500000Y-61250000D02*
X66500000Y-58500000D01*
D48*
X119767750Y-137851650D02*
X121398350Y-137851650D01*
X118767750Y-158482250D02*
X118738750Y-158511250D01*
D50*
X127000000Y-120500000D02*
X124250000Y-120500000D01*
D48*
X102190000Y-105395000D02*
X102150000Y-105435000D01*
X118767750Y-156851650D02*
X118767750Y-158482250D01*
X120651250Y-89407350D02*
X120598750Y-89459850D01*
X102267750Y-154851650D02*
X102267750Y-156482250D01*
X105802500Y-102395000D02*
X103690000Y-102395000D01*
X85000000Y-100700000D02*
X85000000Y-102227500D01*
X102267750Y-156482250D02*
X102238750Y-156511250D01*
X83675000Y-105590000D02*
X80775000Y-105590000D01*
X77271730Y-75021730D02*
X76750000Y-74500000D01*
X155913750Y-145261250D02*
X155913750Y-147436250D01*
X123158750Y-148100150D02*
X123158750Y-149681250D01*
D49*
X75000000Y-39287500D02*
X74787500Y-39500000D01*
D51*
X82000000Y-33175000D02*
X82000000Y-31250000D01*
D49*
X67287500Y-48537500D02*
X67250000Y-48500000D01*
D48*
X98648350Y-147351650D02*
X98488750Y-147511250D01*
X144788750Y-132761250D02*
X144788750Y-130711250D01*
X123276250Y-87661250D02*
X123276250Y-89137350D01*
X76728750Y-78062650D02*
X74290150Y-78062650D01*
X153638750Y-133111250D02*
X153738750Y-133011250D01*
D51*
X64462500Y-31462500D02*
X65500000Y-31462500D01*
D48*
X104840000Y-105395000D02*
X102190000Y-105395000D01*
D49*
X65537500Y-48500000D02*
X67250000Y-48500000D01*
D48*
X141451250Y-144761250D02*
X141451250Y-147473750D01*
X124551250Y-72644850D02*
X124436250Y-72759850D01*
X115420000Y-57880000D02*
X112410000Y-57880000D01*
X121767750Y-154351650D02*
X121767750Y-155982250D01*
X146938750Y-133126250D02*
X146938750Y-131561250D01*
D49*
X65537500Y-50537500D02*
X65537500Y-48500000D01*
D51*
X63600000Y-30600000D02*
X64462500Y-31462500D01*
D48*
X139526250Y-142261250D02*
X141238750Y-142261250D01*
D49*
X65050000Y-51025000D02*
X65537500Y-50537500D01*
D48*
X151488750Y-133111250D02*
X153638750Y-133111250D01*
X114172557Y-86234230D02*
X114172557Y-87945057D01*
X145051250Y-141126250D02*
X146623750Y-141126250D01*
X78553750Y-83100150D02*
X78553750Y-85196250D01*
X155913750Y-147436250D02*
X155988750Y-147511250D01*
X78553750Y-85196250D02*
X78488750Y-85261250D01*
X111997557Y-86234230D02*
X111997557Y-88002443D01*
X146623750Y-141126250D02*
X146738750Y-141011250D01*
D49*
X71750000Y-48537500D02*
X69250000Y-48537500D01*
D48*
X100767750Y-147351650D02*
X98648350Y-147351650D01*
D49*
X64655000Y-51025000D02*
X65050000Y-51025000D01*
D48*
X111267750Y-158351650D02*
X112898350Y-158351650D01*
X141451250Y-147473750D02*
X141488750Y-147511250D01*
X82310000Y-134005000D02*
X80730000Y-134005000D01*
X123158750Y-149681250D02*
X123238750Y-149761250D01*
X98920000Y-58210000D02*
X95490000Y-58210000D01*
X95490000Y-58210000D02*
X95380000Y-58100000D01*
X124551250Y-71211250D02*
X124551250Y-72644850D01*
D49*
X69250000Y-48537500D02*
X67287500Y-48537500D01*
X75000000Y-35275000D02*
X75000000Y-39287500D01*
D48*
X121988750Y-71261250D02*
X121988750Y-72957350D01*
X112898350Y-158351650D02*
X112988750Y-158261250D01*
X103767750Y-137351650D02*
X103767750Y-139232250D01*
X112410000Y-57880000D02*
X112380000Y-57850000D01*
D49*
X63037500Y-58500000D02*
X63037500Y-61000000D01*
X63037500Y-58500000D02*
X66500000Y-58500000D01*
D48*
X81310000Y-137005000D02*
X78230000Y-137005000D01*
X78710057Y-75021730D02*
X77271730Y-75021730D01*
X146938750Y-131561250D02*
X147000000Y-131500000D01*
X120651250Y-87711250D02*
X120651250Y-89407350D01*
D49*
X65575000Y-46250000D02*
X65575000Y-48462500D01*
D48*
%TO.N,+12V*%
X149013750Y-133126250D02*
X149013750Y-134696250D01*
D49*
X149013750Y-133126250D02*
X149013750Y-130986250D01*
D48*
X149013750Y-134696250D02*
X148488750Y-135221250D01*
D52*
X235718750Y-81471250D02*
X236813750Y-80376250D01*
X183701250Y-82551250D02*
X181278750Y-82551250D01*
X158988750Y-119761250D02*
X158988750Y-113459850D01*
X236813750Y-80376250D02*
X236813750Y-78186250D01*
X234288750Y-81471250D02*
X235718750Y-81471250D01*
X173488750Y-111929850D02*
X174743750Y-113184850D01*
X216201250Y-60761250D02*
X216201250Y-59201250D01*
D49*
X74462500Y-56000000D02*
X74462500Y-53750000D01*
D52*
X174451250Y-61511250D02*
X172058750Y-61511250D01*
D49*
X70000000Y-53250000D02*
X70000000Y-56235000D01*
D52*
X183701250Y-81701250D02*
X183000000Y-81000000D01*
X216201250Y-59201250D02*
X216000000Y-59000000D01*
X154161250Y-83281250D02*
X153701250Y-83741250D01*
D49*
X149013750Y-130986250D02*
X150000000Y-130000000D01*
D52*
X218963750Y-131856250D02*
X219501250Y-131318750D01*
D49*
X74462500Y-53750000D02*
X74462500Y-51867500D01*
D52*
X152268750Y-122889850D02*
X155860150Y-122889850D01*
X183701250Y-82551250D02*
X183701250Y-81701250D01*
X211676250Y-80146250D02*
X211676250Y-79323750D01*
X173488750Y-111127350D02*
X173488750Y-111929850D01*
X156163750Y-83281250D02*
X155281250Y-83281250D01*
X215606250Y-61356250D02*
X216201250Y-60761250D01*
X174451250Y-60451250D02*
X174000000Y-60000000D01*
X174451250Y-61511250D02*
X174451250Y-60451250D01*
X211676250Y-79323750D02*
X213000000Y-78000000D01*
D49*
X152268750Y-122889850D02*
X152268750Y-125231250D01*
D52*
X155860150Y-122889850D02*
X158988750Y-119761250D01*
X156163750Y-83281250D02*
X154161250Y-83281250D01*
X158988750Y-113459850D02*
X157518750Y-111989850D01*
X155281250Y-83281250D02*
X154000000Y-82000000D01*
D49*
X152268750Y-125231250D02*
X151674775Y-125825225D01*
D52*
X219501250Y-131318750D02*
X219501250Y-129396250D01*
X213713750Y-61356250D02*
X215606250Y-61356250D01*
D49*
X74720000Y-51280000D02*
X74250000Y-51750000D01*
D52*
X211676250Y-80146250D02*
X209283750Y-80146250D01*
D49*
X74462500Y-51867500D02*
X75050000Y-51280000D01*
D52*
X219501250Y-129396250D02*
X219501250Y-127501250D01*
X157518750Y-111989850D02*
X159217350Y-111989850D01*
X173488750Y-111127350D02*
X171604850Y-111127350D01*
D49*
X74462500Y-56000000D02*
X70235000Y-56000000D01*
D52*
%TO.N,-12V*%
X146238750Y-88281250D02*
X147081250Y-88281250D01*
X164488750Y-66011250D02*
X166418750Y-66011250D01*
X176018750Y-86051250D02*
X176288750Y-86321250D01*
X228851250Y-85768750D02*
X229338750Y-85281250D01*
X204213750Y-86108750D02*
X206091250Y-86108750D01*
X213426250Y-138396250D02*
X213426250Y-136253750D01*
X173776250Y-86051250D02*
X173776250Y-87576250D01*
D48*
X142976250Y-139593750D02*
X143538750Y-139031250D01*
X142976250Y-141126250D02*
X142976250Y-139593750D01*
D52*
X168000000Y-120821100D02*
X169768750Y-119052350D01*
X206238750Y-65761250D02*
X206238750Y-67761250D01*
X206238750Y-65761250D02*
X208168750Y-65761250D01*
X228851250Y-87338750D02*
X226938750Y-87338750D01*
X146238750Y-88281250D02*
X148021250Y-88281250D01*
X166418750Y-66011250D02*
X167013750Y-65416250D01*
X164488750Y-67911250D02*
X164400000Y-68000000D01*
X148021250Y-88281250D02*
X148751250Y-87551250D01*
X164488750Y-66011250D02*
X164488750Y-67911250D01*
X226938750Y-87338750D02*
X226800000Y-87200000D01*
D48*
X142976250Y-141126250D02*
X142126250Y-141126250D01*
D52*
X173776250Y-87576250D02*
X174000000Y-87800000D01*
X208168750Y-65761250D02*
X208763750Y-65166250D01*
X213426250Y-136253750D02*
X214013750Y-135666250D01*
X213426250Y-138396250D02*
X212603750Y-138396250D01*
X173776250Y-86051250D02*
X176018750Y-86051250D01*
X204213750Y-86108750D02*
X204213750Y-84076250D01*
X147081250Y-88281250D02*
X148000000Y-89200000D01*
X169768750Y-119052350D02*
X169768750Y-117019850D01*
X228851250Y-87338750D02*
X228851250Y-85768750D01*
D48*
X142126250Y-141126250D02*
X141500000Y-140500000D01*
D52*
X212603750Y-138396250D02*
X212000000Y-139000000D01*
X168000000Y-121000000D02*
X168000000Y-120821100D01*
D49*
%TO.N,+5V*%
X82000000Y-35250000D02*
X77525000Y-35250000D01*
X83000000Y-35250000D02*
X85500000Y-32750000D01*
D48*
X116247557Y-86234230D02*
X116247557Y-84616457D01*
D49*
X82000000Y-35250000D02*
X83000000Y-35250000D01*
D48*
X116247557Y-84616457D02*
X114813750Y-83182650D01*
D49*
%TO.N,+15V*%
X72500000Y-35275000D02*
X72500000Y-39287500D01*
X72500000Y-39287500D02*
X72712500Y-39500000D01*
X70000000Y-42750000D02*
X70000000Y-42212500D01*
X70000000Y-42212500D02*
X72712500Y-39500000D01*
%TO.N,-15V*%
X64750000Y-36750000D02*
X64750000Y-34287500D01*
X70000000Y-35275000D02*
X67237500Y-35275000D01*
X67237500Y-35275000D02*
X65500000Y-33537500D01*
X64750000Y-34287500D02*
X65500000Y-33537500D01*
D52*
%TO.N,GND*%
X213023750Y-120261250D02*
X213023750Y-122161250D01*
X228813750Y-96876250D02*
X230353750Y-96876250D01*
X218276250Y-60761250D02*
X220238750Y-60761250D01*
X228851250Y-89413750D02*
X226836250Y-89413750D01*
X146751250Y-92201250D02*
X144798750Y-92201250D01*
X204163750Y-67586250D02*
X203988750Y-67761250D01*
X211893750Y-65166250D02*
X211738750Y-65011250D01*
X170143750Y-65416250D02*
X169988750Y-65261250D01*
X215623750Y-80146250D02*
X215738750Y-80261250D01*
X213801250Y-96336250D02*
X215413750Y-96336250D01*
X228813750Y-93066250D02*
X226543750Y-93066250D01*
X182326250Y-92781250D02*
X183968750Y-92781250D01*
X146751250Y-92201250D02*
X146751250Y-93471250D01*
X167013750Y-64146250D02*
X168873750Y-64146250D01*
X213751250Y-80146250D02*
X215623750Y-80146250D01*
X210463750Y-138501250D02*
X210523750Y-138561250D01*
X217926250Y-138958750D02*
X216723750Y-140161250D01*
X174028750Y-95551250D02*
X174988750Y-96511250D01*
X204163750Y-65761250D02*
X204163750Y-67586250D01*
X190738750Y-147046250D02*
X190723750Y-147061250D01*
X204288750Y-94391250D02*
X204288750Y-95661250D01*
X155268750Y-120027350D02*
X155268750Y-121731250D01*
X177768750Y-118127350D02*
X177768750Y-119981250D01*
X238801250Y-91241250D02*
X240258750Y-91241250D01*
X157873750Y-97646250D02*
X157988750Y-97761250D01*
X228813750Y-93066250D02*
X228813750Y-94336250D01*
X240258750Y-91241250D02*
X240488750Y-91011250D01*
X168873750Y-64146250D02*
X168988750Y-64261250D01*
X202358750Y-94391250D02*
X202238750Y-94511250D01*
X157623750Y-91646250D02*
X157738750Y-91761250D01*
X217426250Y-129396250D02*
X217426250Y-127563750D01*
X201213750Y-85736250D02*
X201238750Y-85761250D01*
X172988750Y-109011250D02*
X171738750Y-109011250D01*
X240988750Y-147261250D02*
X240988750Y-149146250D01*
X182288750Y-96011250D02*
X183968750Y-96011250D01*
X185776250Y-80973750D02*
X185988750Y-80761250D01*
X170976170Y-90471250D02*
X172788750Y-90471250D01*
X230353750Y-96876250D02*
X230488750Y-97011250D01*
X146751250Y-93471250D02*
X146751250Y-94741250D01*
X170890163Y-90385243D02*
X170976170Y-90471250D01*
X238801250Y-93741250D02*
X240468750Y-93741250D01*
X146268750Y-123089850D02*
X146268750Y-124291250D01*
X166268750Y-119089850D02*
X166268750Y-120731250D01*
X215073750Y-120261250D02*
X215073750Y-118311250D01*
X188488750Y-133111250D02*
X186273750Y-133111250D01*
X239988750Y-139411250D02*
X242023750Y-139411250D01*
X210353750Y-63896250D02*
X210488750Y-63761250D01*
X238888750Y-80376250D02*
X240853750Y-80376250D01*
X160701250Y-84281250D02*
X162468750Y-84281250D01*
X183968750Y-92781250D02*
X183988750Y-92761250D01*
X172788750Y-95551250D02*
X174028750Y-95551250D01*
X227373750Y-80376250D02*
X228238750Y-79511250D01*
X156301250Y-94146250D02*
X158123750Y-94146250D01*
X166268750Y-120731250D02*
X166238750Y-120761250D01*
X228813750Y-91796250D02*
X228813750Y-93066250D01*
X185776250Y-82551250D02*
X185776250Y-80973750D01*
X204288750Y-94391250D02*
X202358750Y-94391250D01*
X240623750Y-96876250D02*
X240738750Y-96761250D01*
X208763750Y-63896250D02*
X210353750Y-63896250D01*
X215501250Y-138396250D02*
X215501250Y-140138750D01*
X211713750Y-85646250D02*
X210103750Y-85646250D01*
X182326250Y-90281250D02*
X183968750Y-90281250D01*
X156263750Y-91646250D02*
X157623750Y-91646250D01*
X204288750Y-95661250D02*
X204288750Y-96931250D01*
X171701250Y-86051250D02*
X171701250Y-87723750D01*
X172788750Y-90471250D02*
X172788750Y-91741250D01*
X210463750Y-136971250D02*
X210463750Y-138501250D01*
X190738750Y-145261250D02*
X190738750Y-147046250D01*
X236851250Y-85376250D02*
X236851250Y-87123750D01*
X155268750Y-121731250D02*
X155238750Y-121761250D01*
X186273750Y-133111250D02*
X186223750Y-133061250D01*
X169238750Y-86051250D02*
X169238750Y-87761250D01*
X152518750Y-116291250D02*
X152738750Y-116511250D01*
X236851250Y-87123750D02*
X236988750Y-87261250D01*
X162413750Y-66011250D02*
X160488750Y-66011250D01*
X152518750Y-114839850D02*
X152518750Y-116291250D01*
X159218750Y-83281250D02*
X160238750Y-82261250D01*
X144798750Y-92201250D02*
X144738750Y-92261250D01*
D50*
X131000000Y-120500000D02*
X134100000Y-120500000D01*
D52*
X213801250Y-93836250D02*
X215413750Y-93836250D01*
X213713750Y-65166250D02*
X211893750Y-65166250D01*
X146268750Y-124291250D02*
X146488750Y-124511250D01*
X210103750Y-85646250D02*
X209988750Y-85761250D01*
X141750000Y-86471250D02*
X140750000Y-87471250D01*
X215413750Y-96336250D02*
X215488750Y-96261250D01*
X240988750Y-149146250D02*
X240873750Y-149261250D01*
X153806250Y-109489850D02*
X155717350Y-109489850D01*
X156226250Y-97646250D02*
X157873750Y-97646250D01*
X142500000Y-88500000D02*
X143945000Y-88500000D01*
X158238750Y-83281250D02*
X159218750Y-83281250D01*
X171963750Y-65416250D02*
X170143750Y-65416250D01*
X188238750Y-83051250D02*
X190198750Y-83051250D01*
X238763750Y-96876250D02*
X240623750Y-96876250D01*
X213763750Y-99336250D02*
X215913750Y-99336250D01*
X215501250Y-140138750D02*
X215523750Y-140161250D01*
X172788750Y-93011250D02*
X172788750Y-91741250D01*
X171738750Y-109011250D02*
X173447650Y-109011250D01*
X226313750Y-80376250D02*
X227373750Y-80376250D01*
X169768750Y-121127350D02*
X169768750Y-122731250D01*
X176526250Y-61511250D02*
X178238750Y-61511250D01*
X163768750Y-115127350D02*
X163768750Y-116731250D01*
X240468750Y-93741250D02*
X240488750Y-93761250D01*
X162468750Y-84281250D02*
X162488750Y-84261250D01*
X204213750Y-88183750D02*
X202316250Y-88183750D01*
X201213750Y-84146250D02*
X201213750Y-85736250D01*
D49*
%TO.N,Net-(D9-A)*%
X63765000Y-65000000D02*
X64750000Y-65000000D01*
X64750000Y-65000000D02*
X66500000Y-63250000D01*
D52*
%TO.N,Net-(C24-Pad1)*%
X197008750Y-147562650D02*
X194744850Y-145298750D01*
X194744850Y-145298750D02*
X193488750Y-145298750D01*
X197008750Y-147562650D02*
X213238750Y-147562650D01*
%TO.N,Net-(C24-Pad2)*%
X208123750Y-142361250D02*
X207261250Y-143223750D01*
X210463750Y-130896250D02*
X208123750Y-133236250D01*
X190738750Y-143261250D02*
X193451250Y-143261250D01*
X208123750Y-133236250D02*
X208123750Y-142361250D01*
X207261250Y-143223750D02*
X193488750Y-143223750D01*
%TO.N,Net-(U4A--)*%
X210463750Y-132896250D02*
X213783750Y-132896250D01*
X212123750Y-131761250D02*
X212123750Y-130361250D01*
X212123750Y-130361250D02*
X210523750Y-128761250D01*
X213783750Y-132896250D02*
X214013750Y-133126250D01*
X212561250Y-126723750D02*
X210523750Y-128761250D01*
X210988750Y-132896250D02*
X212123750Y-131761250D01*
%TO.N,/Audio Input/Channel1_Input*%
X214523750Y-125661250D02*
X213769750Y-124907250D01*
X196977750Y-124907250D02*
X196873750Y-125011250D01*
X214013750Y-131856250D02*
X214523750Y-131346250D01*
X189988750Y-130261250D02*
X191238750Y-130261250D01*
X214013750Y-131856250D02*
X213023750Y-130866250D01*
X211238750Y-122011250D02*
X211738750Y-121511250D01*
X189788750Y-91741250D02*
X187741250Y-91741250D01*
X196988750Y-109761250D02*
X189788750Y-102561250D01*
X213023750Y-130866250D02*
X213023750Y-128798750D01*
X213769750Y-124907250D02*
X196977750Y-124907250D01*
X205738750Y-109761250D02*
X196988750Y-109761250D01*
X191488750Y-130511250D02*
X191488750Y-133111250D01*
X194488750Y-135261250D02*
X194488750Y-132761250D01*
D48*
X166738750Y-90011250D02*
X166738750Y-91238750D01*
D52*
X191238750Y-130261250D02*
X191488750Y-130511250D01*
X201623750Y-120261250D02*
X196873750Y-125011250D01*
X191488750Y-133111250D02*
X194138750Y-133111250D01*
X191488750Y-130396250D02*
X191488750Y-130511250D01*
X211738750Y-121511250D02*
X211738750Y-115761250D01*
X211738750Y-115761250D02*
X205738750Y-109761250D01*
X205336250Y-120261250D02*
X207086250Y-122011250D01*
X207086250Y-122011250D02*
X211238750Y-122011250D01*
X189788750Y-102561250D02*
X189788750Y-91741250D01*
X214523750Y-131346250D02*
X214523750Y-125661250D01*
X196873750Y-125011250D02*
X191488750Y-130396250D01*
X205336250Y-120261250D02*
X201623750Y-120261250D01*
D48*
X166738750Y-91238750D02*
X167000000Y-91500000D01*
D52*
%TO.N,Net-(U4A-+)*%
X213513750Y-134896250D02*
X214013750Y-134396250D01*
X210463750Y-134896250D02*
X213513750Y-134896250D01*
%TO.N,Net-(U4B--)*%
X221373750Y-136261250D02*
X221373750Y-135011250D01*
X238488750Y-142761250D02*
X227873750Y-142761250D01*
X219938750Y-134396250D02*
X218963750Y-134396250D01*
X220758750Y-134396250D02*
X218963750Y-134396250D01*
X227873750Y-142761250D02*
X221373750Y-136261250D01*
X225488750Y-125261250D02*
X225488750Y-122798750D01*
X225488750Y-128846250D02*
X219938750Y-134396250D01*
X225488750Y-125261250D02*
X225488750Y-128846250D01*
X221373750Y-135011250D02*
X220758750Y-134396250D01*
%TO.N,/Audio Input/Channel2_Input*%
X223500000Y-76500000D02*
X218238750Y-81761250D01*
X239988750Y-130611250D02*
X237138750Y-130611250D01*
X226623750Y-121261250D02*
X224848249Y-121261250D01*
X222761250Y-119238750D02*
X245238750Y-96761250D01*
X239988750Y-127761250D02*
X239988750Y-130611250D01*
X245238750Y-96761250D02*
X245238750Y-81238750D01*
X223848249Y-120261250D02*
X224848249Y-121261250D01*
X218238750Y-89261250D02*
X216853750Y-90646250D01*
X227526250Y-122761250D02*
X226873750Y-122108750D01*
X216853750Y-90646250D02*
X216000000Y-90646250D01*
X240500000Y-76500000D02*
X223500000Y-76500000D01*
D48*
X198761250Y-90261250D02*
X199000000Y-90500000D01*
D52*
X236988750Y-130761250D02*
X236988750Y-133261250D01*
X229873750Y-122761250D02*
X236988750Y-129876250D01*
X222761250Y-120261250D02*
X223848249Y-120261250D01*
D48*
X197238750Y-90261250D02*
X198761250Y-90261250D01*
D52*
X218238750Y-81761250D02*
X218238750Y-89261250D01*
X221373750Y-124735749D02*
X221373750Y-131511250D01*
X226873750Y-122108750D02*
X226873750Y-121511250D01*
D48*
X199000000Y-90500000D02*
X199000000Y-90154750D01*
D52*
X227526250Y-122761250D02*
X229873750Y-122761250D01*
X245238750Y-81238750D02*
X240500000Y-76500000D01*
X216000000Y-90646250D02*
X213713750Y-90646250D01*
X224848249Y-121261250D02*
X221373750Y-124735749D01*
X222761250Y-120261250D02*
X222761250Y-119238750D01*
X236988750Y-129876250D02*
X236988750Y-130761250D01*
X226873750Y-121511250D02*
X226623750Y-121261250D01*
X221373750Y-131511250D02*
X219758750Y-133126250D01*
%TO.N,Net-(C28-Pad1)*%
X218873750Y-147562650D02*
X235103750Y-147562650D01*
X238488750Y-147336250D02*
X235330150Y-147336250D01*
%TO.N,Net-(C28-Pad2)*%
X240988750Y-143261250D02*
X240488750Y-142761250D01*
X240988750Y-145261250D02*
X238488750Y-145261250D01*
X240988750Y-145261250D02*
X240988750Y-143261250D01*
%TO.N,Net-(U4B-+)*%
X218963750Y-135666250D02*
X220001250Y-136703750D01*
X220001250Y-136703750D02*
X220001250Y-138396250D01*
%TO.N,VCC*%
X211051250Y-95661250D02*
X209238750Y-95661250D01*
X211726250Y-96336250D02*
X211051250Y-95661250D01*
X154226250Y-94146250D02*
X154226250Y-95998750D01*
X180251250Y-92781250D02*
X180251250Y-94023750D01*
X154226250Y-96023750D02*
X154226250Y-96191750D01*
X153551250Y-93471250D02*
X151701250Y-93471250D01*
X209238750Y-95661250D02*
X207388750Y-95661250D01*
X236051250Y-93066250D02*
X236726250Y-93741250D01*
X236726250Y-93741250D02*
X236726250Y-95248750D01*
X180251250Y-92781250D02*
X179211250Y-91741250D01*
X166268750Y-113089850D02*
X163806250Y-113089850D01*
X154238750Y-96011250D02*
X154226250Y-96023750D01*
X154226250Y-95998750D02*
X154238750Y-96011250D01*
X207388750Y-95661250D02*
X206738750Y-95011250D01*
X179211250Y-91741250D02*
X177738750Y-91741250D01*
X233763750Y-93066250D02*
X236051250Y-93066250D01*
X154226250Y-94146250D02*
X153551250Y-93471250D01*
X180251250Y-94023750D02*
X180488750Y-94261250D01*
D49*
%TO.N,Net-(U5-VIN)*%
X155268750Y-117952350D02*
X152406250Y-117952350D01*
X152268750Y-118089850D02*
X151568750Y-117389850D01*
X151568750Y-117389850D02*
X151568750Y-114839850D01*
D52*
X155268750Y-117952350D02*
X155268750Y-115989850D01*
%TO.N,Net-(D16-K)*%
X209723750Y-120261250D02*
X209723750Y-119111250D01*
X209723750Y-119111250D02*
X208623750Y-118011250D01*
X209723750Y-120261250D02*
X207411250Y-120261250D01*
X152676250Y-99821250D02*
X153488750Y-100633750D01*
X162738750Y-103511250D02*
X166888750Y-99361250D01*
X191438750Y-118011250D02*
X172788750Y-99361250D01*
X208623750Y-118011250D02*
X191438750Y-118011250D01*
X154238750Y-103511250D02*
X162738750Y-103511250D01*
X176158750Y-98091250D02*
X177738750Y-98091250D01*
X153488750Y-100633750D02*
X153488750Y-102761250D01*
X153488750Y-102761250D02*
X154238750Y-103511250D01*
X174888750Y-99361250D02*
X176158750Y-98091250D01*
X166888750Y-99361250D02*
X172788750Y-99361250D01*
X172788750Y-99361250D02*
X174888750Y-99361250D01*
X146751250Y-101091250D02*
X148908750Y-101091250D01*
X150178750Y-99821250D02*
X151701250Y-99821250D01*
X148908750Y-101091250D02*
X150178750Y-99821250D01*
X151701250Y-99821250D02*
X152676250Y-99821250D01*
%TO.N,+3.3V*%
X180251250Y-90281250D02*
X177928750Y-90281250D01*
D53*
X123158750Y-142062650D02*
X123158750Y-138583916D01*
D52*
X151701250Y-92201250D02*
X151034250Y-91534250D01*
X123158750Y-142062650D02*
X124937350Y-142062650D01*
D48*
X157788750Y-150761250D02*
X157788750Y-145461250D01*
D52*
X209238750Y-94391250D02*
X209238750Y-93511250D01*
D48*
X142988750Y-145298750D02*
X143526250Y-144761250D01*
D52*
X144437616Y-91534250D02*
X142226250Y-93745616D01*
X199763750Y-95958116D02*
X203960616Y-91761250D01*
D53*
X86810000Y-132005000D02*
X94500000Y-124315000D01*
X109960057Y-88984230D02*
X109960057Y-100015057D01*
D48*
X78710057Y-72946730D02*
X81717830Y-72946730D01*
D52*
X152256250Y-91646250D02*
X151701250Y-92201250D01*
X234318750Y-91241250D02*
X233763750Y-91796250D01*
D53*
X110340000Y-100395000D02*
X89370000Y-100395000D01*
D48*
X109922557Y-86234230D02*
X109922557Y-83371457D01*
D52*
X231523750Y-91796250D02*
X231488750Y-91761250D01*
X209793750Y-93836250D02*
X209238750Y-94391250D01*
D53*
X94500000Y-124315000D02*
X94500000Y-105915000D01*
D52*
X175000000Y-90775500D02*
X175304250Y-90471250D01*
D48*
X109922557Y-86234230D02*
X109922557Y-88946730D01*
D52*
X177928750Y-90281250D02*
X177738750Y-90471250D01*
D53*
X109960057Y-100015057D02*
X110340000Y-100395000D01*
X94500000Y-105915000D02*
X89175000Y-100590000D01*
D52*
X236726250Y-91241250D02*
X234318750Y-91241250D01*
X211726250Y-93836250D02*
X209793750Y-93836250D01*
X209238750Y-93511250D02*
X207488750Y-91761250D01*
X199763750Y-99336250D02*
X199763750Y-95958116D01*
D53*
X110515000Y-124315000D02*
X94500000Y-124315000D01*
D48*
X142988750Y-150761250D02*
X142988750Y-145298750D01*
D52*
X154250000Y-90000000D02*
X154250000Y-91585000D01*
X154188750Y-91646250D02*
X152256250Y-91646250D01*
X175304250Y-90471250D02*
X177738750Y-90471250D01*
X203960616Y-91761250D02*
X207488750Y-91761250D01*
X124937350Y-142062650D02*
X125500000Y-141500000D01*
D53*
X123158750Y-138583916D02*
X123158750Y-136958750D01*
D52*
X142226250Y-93745616D02*
X142226250Y-97646250D01*
X151034250Y-91534250D02*
X144437616Y-91534250D01*
D53*
X123158750Y-136958750D02*
X110515000Y-124315000D01*
D52*
X233763750Y-91796250D02*
X231523750Y-91796250D01*
%TO.N,Net-(U6A--)*%
X173776250Y-83551250D02*
X176058750Y-83551250D01*
X176288750Y-82511250D02*
X176288750Y-83781250D01*
X176058750Y-83551250D02*
X176288750Y-83781250D01*
%TO.N,Net-(C45-Pad2)*%
X169738750Y-83551250D02*
X169238750Y-84051250D01*
X166738750Y-84051250D02*
X169238750Y-84051250D01*
X171701250Y-83551250D02*
X169738750Y-83551250D01*
%TO.N,Net-(U6B--)*%
X181238750Y-83781250D02*
X181238750Y-85051250D01*
X183738750Y-85051250D02*
X181238750Y-85051250D01*
%TO.N,Net-(C46-Pad2)*%
X188238750Y-85051250D02*
X185813750Y-85051250D01*
X185738750Y-87551250D02*
X185738750Y-85126250D01*
%TO.N,Net-(U10A--)*%
X148751250Y-83741250D02*
X148751250Y-85011250D01*
X148751250Y-85011250D02*
X146508750Y-85011250D01*
%TO.N,Net-(C47-Pad2)*%
X142882500Y-84000000D02*
X144163750Y-85281250D01*
X141701250Y-84000000D02*
X139201250Y-84000000D01*
X141701250Y-84000000D02*
X142882500Y-84000000D01*
%TO.N,Net-(U10B--)*%
X156201250Y-86281250D02*
X153701250Y-86281250D01*
X153701250Y-85011250D02*
X153701250Y-86281250D01*
%TO.N,Net-(C48-Pad2)*%
X160701250Y-86281250D02*
X158276250Y-86281250D01*
X158276250Y-86281250D02*
X158276250Y-88706250D01*
%TO.N,/Audio Output/A*%
X161988750Y-63011250D02*
X164451250Y-63011250D01*
X161988750Y-63011250D02*
X158988750Y-66011250D01*
X166738750Y-88011250D02*
X167511250Y-88011250D01*
X166738750Y-86051250D02*
X166738750Y-88011250D01*
X158988750Y-66011250D02*
X158988750Y-78301250D01*
X167013750Y-62876250D02*
X164661250Y-62876250D01*
X158988750Y-78301250D02*
X166738750Y-86051250D01*
D48*
X221851250Y-84876250D02*
X221851250Y-86148750D01*
X221851250Y-86148750D02*
X221000000Y-87000000D01*
D52*
X167511250Y-88011250D02*
X168500000Y-89000000D01*
%TO.N,Net-(C49-Pad2)*%
X167013750Y-61606250D02*
X165121250Y-61606250D01*
X166988750Y-59511250D02*
X166988750Y-61581250D01*
X165121250Y-61606250D02*
X164488750Y-60973750D01*
X161988750Y-61011250D02*
X164451250Y-61011250D01*
%TO.N,/Audio Output/B*%
X216326828Y-91815224D02*
X210684776Y-91815224D01*
X215509727Y-77259727D02*
X203831023Y-77259727D01*
X212000000Y-84500000D02*
X212750000Y-83750000D01*
X211121999Y-84500000D02*
X212000000Y-84500000D01*
X216500000Y-78250000D02*
X215509727Y-77259727D01*
X219000000Y-83250000D02*
X219000000Y-89142052D01*
X242851250Y-79493302D02*
X240357948Y-77000000D01*
X200140750Y-90359250D02*
X198500000Y-92000000D01*
X213768998Y-81500000D02*
X216000000Y-81500000D01*
X187738750Y-87551250D02*
X189788750Y-89601250D01*
X212750000Y-83750000D02*
X212750000Y-82518998D01*
X242851250Y-85376250D02*
X242851250Y-79493302D01*
X209628001Y-84871999D02*
X210750000Y-84871999D01*
X177488750Y-66011250D02*
X175026250Y-66011250D01*
X171963750Y-64146250D02*
X173086250Y-64146250D01*
X200140750Y-80950000D02*
X200140750Y-90359250D01*
X173086250Y-64146250D02*
X174988750Y-66048750D01*
X216500000Y-81000000D02*
X216500000Y-78250000D01*
X192047500Y-92000000D02*
X189788750Y-89741250D01*
X212750000Y-82518998D02*
X213768998Y-81500000D01*
X216000000Y-81500000D02*
X216500000Y-81000000D01*
X190925750Y-84364250D02*
X190925750Y-79448250D01*
X209000000Y-85500000D02*
X209628001Y-84871999D01*
X187738750Y-87551250D02*
X190925750Y-84364250D01*
X210750000Y-84871999D02*
X211121999Y-84500000D01*
X219000000Y-89142052D02*
X216326828Y-91815224D01*
X240357948Y-77000000D02*
X225250000Y-77000000D01*
X209000000Y-90130448D02*
X209000000Y-85500000D01*
X210684776Y-91815224D02*
X209000000Y-90130448D01*
X225250000Y-77000000D02*
X219000000Y-83250000D01*
X190925750Y-79448250D02*
X177488750Y-66011250D01*
X198500000Y-92000000D02*
X192047500Y-92000000D01*
X203831023Y-77259727D02*
X200140750Y-80950000D01*
%TO.N,Net-(C50-Pad2)*%
X173891250Y-62876250D02*
X174988750Y-63973750D01*
X171963750Y-62876250D02*
X173891250Y-62876250D01*
X177988750Y-64011250D02*
X179988750Y-62011250D01*
X177488750Y-64011250D02*
X175026250Y-64011250D01*
%TO.N,/Audio Output/D*%
X151238750Y-37261250D02*
X210738750Y-37261250D01*
X145238750Y-86386250D02*
X144863750Y-86761250D01*
X142250000Y-87750000D02*
X141750000Y-87750000D01*
X141750000Y-87750000D02*
X141250000Y-88250000D01*
X163897724Y-85084776D02*
X163897724Y-84158974D01*
X212828750Y-89261250D02*
X215488750Y-89261250D01*
X137720250Y-81479750D02*
X148300000Y-70900000D01*
X144863750Y-86761250D02*
X143238750Y-86761250D01*
X147500000Y-81000000D02*
X145238750Y-83261250D01*
X211713750Y-88146250D02*
X212828750Y-89261250D01*
X215488750Y-89261250D02*
X217784750Y-86965250D01*
X214836250Y-63896250D02*
X216238750Y-65298750D01*
X137720250Y-87245250D02*
X137720250Y-81479750D01*
X211738750Y-62300832D02*
X213334168Y-63896250D01*
X218738750Y-65261250D02*
X216276250Y-65261250D01*
X141250000Y-88250000D02*
X138725000Y-88250000D01*
X217784750Y-66844750D02*
X216238750Y-65298750D01*
X217784750Y-86965250D02*
X217784750Y-66844750D01*
X211713750Y-90646250D02*
X211713750Y-88146250D01*
X163897724Y-84158974D02*
X160738750Y-81000000D01*
X213713750Y-63896250D02*
X214836250Y-63896250D01*
X148300000Y-40200000D02*
X151238750Y-37261250D01*
X148300000Y-70900000D02*
X148300000Y-40200000D01*
X210738750Y-37261250D02*
X211738750Y-38261250D01*
X145238750Y-83261250D02*
X145238750Y-86386250D01*
X160738750Y-81000000D02*
X147500000Y-81000000D01*
X138725000Y-88250000D02*
X137720250Y-87245250D01*
X211738750Y-38261250D02*
X211738750Y-62300832D01*
X160201250Y-88781250D02*
X163897724Y-85084776D01*
X143238750Y-86761250D02*
X142250000Y-87750000D01*
%TO.N,Net-(C51-Pad2)*%
X213713750Y-62626250D02*
X215641250Y-62626250D01*
X215641250Y-62626250D02*
X216238750Y-63223750D01*
X222238750Y-61761250D02*
X220238750Y-61761250D01*
X216238750Y-63223750D02*
X218701250Y-63223750D01*
X220238750Y-61761250D02*
X218738750Y-63261250D01*
%TO.N,/Audio Output/C*%
X139075000Y-86000000D02*
X138174250Y-85099250D01*
X197213750Y-86146250D02*
X197213750Y-88236250D01*
X138174250Y-82850750D02*
X149350000Y-71675000D01*
X197213750Y-86146250D02*
X196186750Y-85119250D01*
X196186750Y-69813250D02*
X202738750Y-63261250D01*
X139201250Y-86000000D02*
X139075000Y-86000000D01*
X196186750Y-85119250D02*
X196186750Y-69813250D01*
X190988750Y-44734722D02*
X190988750Y-51511250D01*
X149350000Y-44650000D02*
X150988750Y-43011250D01*
X150988750Y-43011250D02*
X189265278Y-43011250D01*
X138174250Y-85099250D02*
X138174250Y-82850750D01*
X149350000Y-71675000D02*
X149350000Y-44650000D01*
X190988750Y-51511250D02*
X202738750Y-63261250D01*
X206411250Y-62626250D02*
X205738750Y-63298750D01*
X189265278Y-43011250D02*
X190988750Y-44734722D01*
X208763750Y-62626250D02*
X206411250Y-62626250D01*
X205738750Y-63298750D02*
X202776250Y-63298750D01*
%TO.N,Net-(C52-Pad2)*%
X208238750Y-58761250D02*
X208238750Y-60831250D01*
X208238750Y-60831250D02*
X208763750Y-61356250D01*
X205738750Y-61223750D02*
X208631250Y-61223750D01*
X205738750Y-61223750D02*
X202776250Y-61223750D01*
%TO.N,Net-(D17-K)*%
X220723750Y-118011250D02*
X219238750Y-116526250D01*
X206993750Y-103281250D02*
X204288750Y-103281250D01*
X221238750Y-101761250D02*
X227738750Y-101761250D01*
X219238750Y-103761250D02*
X221238750Y-101761250D01*
X227738750Y-101761250D02*
X228813750Y-100686250D01*
X231518750Y-100686250D02*
X228813750Y-100686250D01*
X233763750Y-99416250D02*
X232788750Y-99416250D01*
X220723750Y-118011250D02*
X220723750Y-120223750D01*
X220686250Y-120261250D02*
X218373750Y-120261250D01*
X219238750Y-116526250D02*
X219238750Y-103761250D01*
X232788750Y-99416250D02*
X231518750Y-100686250D01*
X209738750Y-102011250D02*
X211488750Y-103761250D01*
X209238750Y-102011250D02*
X208263750Y-102011250D01*
X211488750Y-103761250D02*
X219238750Y-103761250D01*
X208263750Y-102011250D02*
X206993750Y-103281250D01*
%TO.N,Net-(U14A--)*%
X226351250Y-82876250D02*
X229203750Y-82876250D01*
X229338750Y-81471250D02*
X229338750Y-82741250D01*
%TO.N,Net-(C58-Pad2)*%
X224276250Y-82876250D02*
X221851250Y-82876250D01*
X224313750Y-80376250D02*
X224313750Y-82838750D01*
%TO.N,Net-(U14B--)*%
X234288750Y-84011250D02*
X234288750Y-82741250D01*
X236776250Y-82876250D02*
X234423750Y-82876250D01*
%TO.N,Net-(C59-Pad2)*%
X238851250Y-82876250D02*
X238851250Y-85376250D01*
X240851250Y-85376250D02*
X238851250Y-85376250D01*
%TO.N,Net-(U16A--)*%
X204238750Y-80241250D02*
X204238750Y-81511250D01*
X201251250Y-81646250D02*
X204103750Y-81646250D01*
%TO.N,Net-(C65-Pad2)*%
X197213750Y-84146250D02*
X199213750Y-84146250D01*
X199176250Y-81646250D02*
X199176250Y-84108750D01*
%TO.N,Net-(U16B--)*%
X211676250Y-83146250D02*
X209553750Y-83146250D01*
X209188750Y-81511250D02*
X209188750Y-82781250D01*
X209553750Y-83146250D02*
X209188750Y-82781250D01*
%TO.N,Net-(C66-Pad2)*%
X213751250Y-83146250D02*
X213751250Y-85608750D01*
X213713750Y-88146250D02*
X213713750Y-85646250D01*
D48*
%TO.N,Net-(U19A-+)*%
X137451250Y-142261250D02*
X137451250Y-144723750D01*
X141951250Y-137761250D02*
X137451250Y-142261250D01*
X143538750Y-137761250D02*
X141951250Y-137761250D01*
%TO.N,Net-(U19B-+)*%
X151951250Y-142493750D02*
X148488750Y-139031250D01*
X151988750Y-145261250D02*
X151988750Y-142798750D01*
%TO.N,/Teensy/Channel Selection*%
X111658750Y-149562650D02*
X114187350Y-149562650D01*
X124121250Y-145062650D02*
X123158750Y-146025150D01*
X117724850Y-146025150D02*
X123158750Y-146025150D01*
X114187350Y-149562650D02*
X117724850Y-146025150D01*
X127158750Y-145062650D02*
X124121250Y-145062650D01*
X123158750Y-144062650D02*
X123158750Y-146025150D01*
%TO.N,/Teensy/Button_1*%
X107877500Y-104432500D02*
X108840000Y-105395000D01*
D52*
X103400000Y-76848900D02*
X103400000Y-88800000D01*
D48*
X108840000Y-108895000D02*
X112340000Y-112395000D01*
X110340000Y-102395000D02*
X107877500Y-102395000D01*
D52*
X94493750Y-67942650D02*
X103400000Y-76848900D01*
D48*
X108840000Y-105395000D02*
X108840000Y-108895000D01*
D52*
X104800000Y-90200000D02*
X104800000Y-95100000D01*
X103400000Y-88800000D02*
X104800000Y-90200000D01*
D48*
X107877500Y-102395000D02*
X107877500Y-104432500D01*
%TO.N,/Teensy/Button_2*%
X86712500Y-104627500D02*
X87675000Y-105590000D01*
X87675000Y-110875000D02*
X89350000Y-112550000D01*
X86712500Y-102590000D02*
X86712500Y-104627500D01*
X90000000Y-74300000D02*
X91953750Y-72346250D01*
X86126261Y-74300000D02*
X90000000Y-74300000D01*
X91953750Y-72346250D02*
X91953750Y-67942650D01*
X89175000Y-102590000D02*
X86712500Y-102590000D01*
X87675000Y-105590000D02*
X87675000Y-110875000D01*
X81500000Y-89000000D02*
X85600000Y-84900000D01*
X85600000Y-74826261D02*
X86126261Y-74300000D01*
X85600000Y-84900000D02*
X85600000Y-74826261D01*
%TO.N,/Teensy/Button_3*%
X84385000Y-134005000D02*
X86810000Y-134005000D01*
X85310000Y-137005000D02*
X85310000Y-134930000D01*
X85310000Y-137005000D02*
X85310000Y-139885000D01*
X85310000Y-139885000D02*
X89350000Y-143925000D01*
X85310000Y-134930000D02*
X84385000Y-134005000D01*
%TO.N,/Teensy/POWER*%
X75002650Y-81025150D02*
X78553750Y-81025150D01*
X73565150Y-79587650D02*
X75002650Y-81025150D01*
X119420000Y-52330000D02*
X123000000Y-48750000D01*
X119420000Y-57880000D02*
X119420000Y-52330000D01*
X81793750Y-80642650D02*
X78936250Y-80642650D01*
X123000000Y-48750000D02*
X110500000Y-48750000D01*
X110500000Y-48750000D02*
X108250000Y-46500000D01*
X73565150Y-71684850D02*
X73565150Y-79587650D01*
X95750000Y-49500000D02*
X73565150Y-71684850D01*
X100750000Y-46500000D02*
X97750000Y-49500000D01*
X108250000Y-46500000D02*
X100750000Y-46500000D01*
X97750000Y-49500000D02*
X95750000Y-49500000D01*
%TO.N,/Teensy/PROGRAM*%
X95368750Y-65761250D02*
X102920000Y-58210000D01*
X102000000Y-48750000D02*
X102920000Y-49670000D01*
X102920000Y-49670000D02*
X102920000Y-58210000D01*
X80488750Y-65761250D02*
X95368750Y-65761250D01*
X81793750Y-78102650D02*
X78843750Y-78102650D01*
X76025000Y-75547500D02*
X76025000Y-70225000D01*
X78540150Y-78062650D02*
X76025000Y-75547500D01*
X76025000Y-70225000D02*
X80488750Y-65761250D01*
D49*
%TO.N,Net-(D7-K)*%
X74500000Y-58500000D02*
X70275000Y-58500000D01*
D52*
%TO.N,Net-(D11-K)*%
X146268750Y-118589850D02*
X146268750Y-121089850D01*
%TO.N,Net-(D12-K)*%
X188488750Y-136411250D02*
X191488750Y-136411250D01*
%TO.N,Net-(D14-K)*%
X239988750Y-133911250D02*
X239988750Y-136111250D01*
D48*
%TO.N,/Teensy/AB_Control*%
X143538750Y-135221250D02*
X143538750Y-136491250D01*
X141488750Y-132761250D02*
X138988750Y-132761250D01*
X141488750Y-133171250D02*
X143538750Y-135221250D01*
%TO.N,/Teensy/CD_Control*%
X148488750Y-136491250D02*
X148488750Y-137761250D01*
X151838750Y-136761250D02*
X151488750Y-136411250D01*
X151488750Y-136411250D02*
X148568750Y-136411250D01*
X154488750Y-136761250D02*
X151838750Y-136761250D01*
%TO.N,Net-(D20-K)*%
X124488750Y-66761250D02*
X121213750Y-66761250D01*
%TO.N,Net-(D21-K)*%
X125151250Y-83211250D02*
X121376250Y-83211250D01*
D52*
%TO.N,Net-(J4-PadT)*%
X166988750Y-57511250D02*
X167488750Y-57011250D01*
X161988750Y-58011250D02*
X166488750Y-58011250D01*
X167488750Y-57011250D02*
X167488750Y-46964850D01*
X152013750Y-46209850D02*
X168243750Y-46209850D01*
X166488750Y-58011250D02*
X166988750Y-57511250D01*
%TO.N,Net-(J5-PadT)*%
X182988750Y-60011250D02*
X184488750Y-58511250D01*
X179988750Y-53564850D02*
X172633750Y-46209850D01*
X179988750Y-60011250D02*
X182988750Y-60011250D01*
X188863750Y-46209850D02*
X172633750Y-46209850D01*
X179988750Y-60011250D02*
X179988750Y-53564850D01*
%TO.N,Net-(J6-PadT)*%
X193253750Y-46209850D02*
X209483750Y-46209850D01*
X206238750Y-58761250D02*
X203738750Y-58761250D01*
X203238750Y-56194850D02*
X203238750Y-58261250D01*
X193253750Y-46209850D02*
X203238750Y-56194850D01*
X203738750Y-58761250D02*
X203238750Y-58261250D01*
%TO.N,Net-(J7-PadT)*%
X213873750Y-46209850D02*
X230103750Y-46209850D01*
X213873750Y-46209850D02*
X226425150Y-58761250D01*
X223238750Y-58761250D02*
X222238750Y-59761250D01*
X226738750Y-58761250D02*
X223238750Y-58761250D01*
D48*
%TO.N,/Teensy/LED_1*%
X123488750Y-73261250D02*
X123712350Y-73484850D01*
X126265150Y-73484850D02*
X127488750Y-72261250D01*
X123488750Y-70761250D02*
X123488750Y-73261250D01*
X121988750Y-69261250D02*
X124501250Y-69261250D01*
X124988750Y-62261250D02*
X112875150Y-62261250D01*
X127488750Y-64761250D02*
X124988750Y-62261250D01*
X127488750Y-72261250D02*
X127488750Y-64761250D01*
X112875150Y-62261250D02*
X107193750Y-67942650D01*
X121988750Y-69261250D02*
X123488750Y-70761250D01*
X123712350Y-73484850D02*
X126265150Y-73484850D01*
%TO.N,Net-(Q1-D)*%
X126426250Y-70261250D02*
X126426250Y-66823750D01*
%TO.N,/Teensy/LED_2*%
X123276250Y-85761250D02*
X120701250Y-85761250D01*
D52*
X128488750Y-87761250D02*
X125988750Y-90261250D01*
X128488750Y-64761250D02*
X128488750Y-87761250D01*
X110787150Y-61809250D02*
X125536750Y-61809250D01*
X122488750Y-90261250D02*
X121988750Y-89761250D01*
X121988750Y-87048750D02*
X120651250Y-85711250D01*
X121988750Y-89761250D02*
X121988750Y-87048750D01*
X125988750Y-90261250D02*
X122488750Y-90261250D01*
X125536750Y-61809250D02*
X128488750Y-64761250D01*
X104653750Y-67942650D02*
X110787150Y-61809250D01*
D48*
%TO.N,Net-(Q2-D)*%
X127151250Y-84711250D02*
X127151250Y-83211250D01*
X125151250Y-86711250D02*
X127151250Y-84711250D01*
D52*
%TO.N,Net-(U7A-+)*%
X166903750Y-115724850D02*
X166268750Y-115089850D01*
X169793750Y-115724850D02*
X166903750Y-115724850D01*
X170452350Y-115724850D02*
X171722350Y-116994850D01*
X166268750Y-117089850D02*
X166268750Y-115089850D01*
X171722350Y-116994850D02*
X174743750Y-116994850D01*
%TO.N,Net-(R16-Pad2)*%
X209823750Y-125361250D02*
X200223750Y-125361250D01*
X210523750Y-126061250D02*
X209823750Y-125361250D01*
X210523750Y-126761250D02*
X210523750Y-126061250D01*
X200223750Y-125361250D02*
X195323750Y-130261250D01*
X195323750Y-130261250D02*
X194488750Y-130261250D01*
%TO.N,Net-(R17-Pad2)*%
X232373750Y-135761250D02*
X236988750Y-135761250D01*
X227123750Y-125626250D02*
X227123750Y-130511250D01*
X227123750Y-130511250D02*
X232373750Y-135761250D01*
%TO.N,Net-(U5-nSHDN)*%
X157518750Y-114541250D02*
X157238750Y-114261250D01*
X154047350Y-114261250D02*
X153468750Y-114839850D01*
X157238750Y-114261250D02*
X154047350Y-114261250D01*
X157518750Y-115739850D02*
X157518750Y-114541250D01*
%TO.N,Net-(U5-PGOOD)*%
X155518750Y-111989850D02*
X153618750Y-111989850D01*
%TO.N,VDD*%
X208623750Y-116011250D02*
X208623750Y-114623750D01*
X177738750Y-99361250D02*
X177738750Y-101011250D01*
X233763750Y-102236250D02*
X233738750Y-102261250D01*
X230833750Y-99416250D02*
X230988750Y-99261250D01*
X228813750Y-99416250D02*
X230833750Y-99416250D01*
X146751250Y-99821250D02*
X148298750Y-99821250D01*
X209238750Y-103281250D02*
X209238750Y-104761250D01*
X148298750Y-99821250D02*
X148725036Y-100247536D01*
X174908750Y-98091250D02*
X174988750Y-98011250D01*
X220723750Y-114276250D02*
X221000000Y-114000000D01*
X151701250Y-101091250D02*
X151701250Y-102473750D01*
X205988750Y-102011250D02*
X206488750Y-101511250D01*
X151701250Y-102473750D02*
X151738750Y-102511250D01*
X204288750Y-102011250D02*
X205988750Y-102011250D01*
X208623750Y-114623750D02*
X208000000Y-114000000D01*
X220723750Y-116011250D02*
X220723750Y-114276250D01*
X172788750Y-98091250D02*
X174908750Y-98091250D01*
X233763750Y-100686250D02*
X233763750Y-102236250D01*
%TO.N,Net-(U8-nCE)*%
X179828750Y-95551250D02*
X177738750Y-95551250D01*
%TO.N,Net-(U9-nCE)*%
X154123750Y-97646250D02*
X153738750Y-97261250D01*
X151701250Y-97281250D02*
X153861250Y-97281250D01*
%TO.N,Net-(U9-A0)*%
X146751250Y-97281250D02*
X144591250Y-97281250D01*
%TO.N,Net-(U13-nCE)*%
X236763750Y-96876250D02*
X233763750Y-96876250D01*
%TO.N,Net-(U17-A0)*%
X204288750Y-99471250D02*
X201898750Y-99471250D01*
%TO.N,Net-(U17-nCE)*%
X211763750Y-99336250D02*
X209373750Y-99336250D01*
D48*
%TO.N,Net-(R62-Pad1)*%
X121427750Y-152351650D02*
X119049750Y-149973650D01*
%TO.N,Net-(R63-Pad1)*%
X116767750Y-156351650D02*
X114719750Y-154303650D01*
%TO.N,Net-(J8-Pin_2)*%
X139488750Y-149761250D02*
X142988750Y-153261250D01*
X160000000Y-161000000D02*
X146016060Y-161000000D01*
X145000000Y-155272500D02*
X142988750Y-153261250D01*
X139488750Y-144761250D02*
X139488750Y-149761250D01*
X165000000Y-156000000D02*
X160000000Y-161000000D01*
X146016060Y-161000000D02*
X145000000Y-159983940D01*
X145000000Y-159983940D02*
X145000000Y-155272500D01*
%TO.N,Net-(J9-Pin_2)*%
X160213750Y-153261250D02*
X165000000Y-148475000D01*
X153988750Y-145261250D02*
X153988750Y-149461250D01*
X157788750Y-153261250D02*
X160213750Y-153261250D01*
X153988750Y-149461250D02*
X157788750Y-153261250D01*
%TO.N,/SCL0*%
X97033750Y-86307923D02*
X98460057Y-87734230D01*
X98460057Y-87734230D02*
X100234230Y-87734230D01*
D52*
X174988750Y-92261250D02*
X175738750Y-93011250D01*
X175738750Y-93011250D02*
X177738750Y-93011250D01*
X149718750Y-94741250D02*
X149488750Y-94511250D01*
D48*
X100234230Y-87734230D02*
X100500000Y-88000000D01*
X97033750Y-83182650D02*
X97033750Y-86307923D01*
D52*
X151701250Y-94741250D02*
X149718750Y-94741250D01*
%TO.N,/SDA0*%
X149738750Y-96011250D02*
X149488750Y-95761250D01*
X175488750Y-95261250D02*
X176468750Y-94281250D01*
X176468750Y-94281250D02*
X177738750Y-94281250D01*
D48*
X96234230Y-87734230D02*
X96500000Y-88000000D01*
X94493750Y-83182650D02*
X94493750Y-87267923D01*
D52*
X151701250Y-96011250D02*
X149738750Y-96011250D01*
D48*
X94960057Y-87734230D02*
X96234230Y-87734230D01*
D52*
%TO.N,/SDA1*%
X207178750Y-98201250D02*
X206988750Y-98011250D01*
D48*
X91953750Y-83182650D02*
X91953750Y-87240537D01*
D52*
X233763750Y-95606250D02*
X231643750Y-95606250D01*
D48*
X92734230Y-87734230D02*
X93000000Y-88000000D01*
D52*
X209238750Y-98201250D02*
X207178750Y-98201250D01*
D48*
X91953750Y-87240537D02*
X91460057Y-87734230D01*
X91460057Y-87734230D02*
X92734230Y-87734230D01*
D52*
X231643750Y-95606250D02*
X231488750Y-95761250D01*
%TO.N,/SCL1*%
X207408750Y-96931250D02*
X207238750Y-96761250D01*
X231413750Y-94336250D02*
X231238750Y-94511250D01*
D48*
X88210057Y-87734230D02*
X88210057Y-84386343D01*
D52*
X233763750Y-94336250D02*
X231413750Y-94336250D01*
D48*
X88210057Y-87734230D02*
X86765770Y-87734230D01*
X88210057Y-84386343D02*
X89413750Y-83182650D01*
D52*
X209238750Y-96931250D02*
X207408750Y-96931250D01*
D48*
X86765770Y-87734230D02*
X86000000Y-88500000D01*
%TO.N,Net-(R73-Pad1)*%
X109267750Y-154973650D02*
X108597750Y-154303650D01*
X109267750Y-158351650D02*
X109267750Y-154973650D01*
%TO.N,Net-(R74-Pad1)*%
X104267750Y-149973650D02*
X102267750Y-151973650D01*
X102267750Y-151973650D02*
X102267750Y-152851650D01*
%TO.N,Net-(R75-Pad1)*%
X100767750Y-145351650D02*
X102767750Y-145351650D01*
X102767750Y-145351650D02*
X104267750Y-143851650D01*
%TO.N,Net-(R76-Pad1)*%
X106427750Y-137351650D02*
X108597750Y-139521650D01*
X105767750Y-137351650D02*
X106427750Y-137351650D01*
%TO.N,Net-(R77-Pad1)*%
X116389750Y-137851650D02*
X114719750Y-139521650D01*
X117767750Y-137851650D02*
X116389750Y-137851650D01*
D52*
%TO.N,Net-(U6A-+)*%
X172788750Y-96821250D02*
X169978750Y-96821250D01*
X177778750Y-85051250D02*
X178238750Y-85511250D01*
X169988750Y-89011250D02*
X169288750Y-89711250D01*
X176288750Y-85051250D02*
X177778750Y-85051250D01*
X178238750Y-87011250D02*
X176238750Y-89011250D01*
X169978750Y-96821250D02*
X169288750Y-97511250D01*
X176238750Y-89011250D02*
X169988750Y-89011250D01*
X178238750Y-85511250D02*
X178238750Y-87011250D01*
X169288750Y-89711250D02*
X169288750Y-97511250D01*
%TO.N,Net-(U13-W0)*%
X225288750Y-87086250D02*
X228363750Y-84011250D01*
X225288750Y-97741250D02*
X225288750Y-87086250D01*
X228813750Y-98146250D02*
X225693750Y-98146250D01*
X228363750Y-84011250D02*
X229338750Y-84011250D01*
%TO.N,Net-(U6B-+)*%
X181288750Y-98741250D02*
X183008750Y-98741250D01*
X178798750Y-96821250D02*
X180718750Y-98741250D01*
X185738750Y-96011250D02*
X185738750Y-90821250D01*
X177738750Y-96821250D02*
X178798750Y-96821250D01*
X185738750Y-90821250D02*
X181238750Y-86321250D01*
X183008750Y-98741250D02*
X185738750Y-96011250D01*
%TO.N,Net-(U13-W1)*%
X239266884Y-88761250D02*
X242238750Y-91733116D01*
X237460616Y-88761250D02*
X239266884Y-88761250D01*
X240008750Y-99241250D02*
X237288750Y-99241250D01*
X234288750Y-85281250D02*
X234288750Y-85589384D01*
X236193750Y-98146250D02*
X233763750Y-98146250D01*
X242238750Y-91733116D02*
X242238750Y-97011250D01*
X242238750Y-97011250D02*
X240008750Y-99241250D01*
X237288750Y-99241250D02*
X236193750Y-98146250D01*
X234288750Y-85589384D02*
X237460616Y-88761250D01*
%TO.N,Net-(U10A-+)*%
X139988750Y-94511250D02*
X143988750Y-90511250D01*
X139988750Y-99761250D02*
X139988750Y-94511250D01*
X150238750Y-87011250D02*
X149508750Y-86281250D01*
X141198750Y-100971250D02*
X139988750Y-99761250D01*
X150238750Y-89011250D02*
X150238750Y-87011250D01*
X145171250Y-98551250D02*
X142751250Y-100971250D01*
X146751250Y-98551250D02*
X145171250Y-98551250D01*
X143988750Y-90511250D02*
X148738750Y-90511250D01*
X142751250Y-100971250D02*
X141198750Y-100971250D01*
X148738750Y-90511250D02*
X150238750Y-89011250D01*
%TO.N,Net-(U16A-+)*%
X199238750Y-102011250D02*
X199938750Y-102011250D01*
X205213750Y-82781250D02*
X207400000Y-84967500D01*
X197738750Y-100511250D02*
X199238750Y-102011250D01*
X204238750Y-82781250D02*
X205213750Y-82781250D01*
X204288750Y-100741250D02*
X202858750Y-100741250D01*
X207400000Y-87100000D02*
X197738750Y-96761250D01*
X199938750Y-102011250D02*
X200763750Y-102836250D01*
X202858750Y-100741250D02*
X200763750Y-102836250D01*
X207400000Y-84967500D02*
X207400000Y-87100000D01*
X197738750Y-96761250D02*
X197738750Y-100511250D01*
%TO.N,Net-(U10B-+)*%
X157278750Y-100971250D02*
X159488750Y-98761250D01*
X159488750Y-98761250D02*
X159488750Y-92011250D01*
X155028750Y-87551250D02*
X153701250Y-87551250D01*
X155251250Y-100971250D02*
X157278750Y-100971250D01*
X151701250Y-98551250D02*
X152831250Y-98551250D01*
X159488750Y-92011250D02*
X155028750Y-87551250D01*
X152831250Y-98551250D02*
X155251250Y-100971250D01*
%TO.N,Net-(U16B-+)*%
X217238750Y-100761250D02*
X217238750Y-93261250D01*
X212488750Y-102011250D02*
X215988750Y-102011250D01*
X211218750Y-100741250D02*
X212488750Y-102011250D01*
X208000000Y-85240000D02*
X209188750Y-84051250D01*
X208000000Y-89772500D02*
X208000000Y-85240000D01*
X216488750Y-92511250D02*
X210738750Y-92511250D01*
X210738750Y-92511250D02*
X208000000Y-89772500D01*
X215988750Y-102011250D02*
X217238750Y-100761250D01*
X217238750Y-93261250D02*
X216488750Y-92511250D01*
X209238750Y-100741250D02*
X211218750Y-100741250D01*
D49*
%TO.N,Net-(D1-K)*%
X69250000Y-46462500D02*
X74792500Y-46462500D01*
X75000000Y-42750000D02*
X75000000Y-46670000D01*
X74792500Y-46462500D02*
X75050000Y-46720000D01*
%TD*%
%TA.AperFunction,Conductor*%
%TO.N,+5V*%
G36*
X118643039Y-82019685D02*
G01*
X118688794Y-82072489D01*
X118700000Y-82124000D01*
X118700000Y-91500000D01*
X127376000Y-91500000D01*
X127443039Y-91519685D01*
X127488794Y-91572489D01*
X127500000Y-91624000D01*
X127500000Y-98000000D01*
X123000000Y-98000000D01*
X123000000Y-103000000D01*
X113624000Y-103000000D01*
X113556961Y-102980315D01*
X113511206Y-102927511D01*
X113500000Y-102876000D01*
X113500000Y-88812858D01*
X113519685Y-88745819D01*
X113572489Y-88700064D01*
X113641647Y-88690120D01*
X113696884Y-88712539D01*
X113719823Y-88729205D01*
X113719827Y-88729208D01*
X113892749Y-88806199D01*
X113892754Y-88806201D01*
X114077911Y-88845557D01*
X114077912Y-88845557D01*
X114267201Y-88845557D01*
X114267203Y-88845557D01*
X114452360Y-88806201D01*
X114625287Y-88729208D01*
X114778428Y-88617945D01*
X114905090Y-88477273D01*
X114999736Y-88313341D01*
X115058231Y-88133313D01*
X115078017Y-87945057D01*
X115058231Y-87756801D01*
X114999736Y-87576773D01*
X114937430Y-87468856D01*
X114920958Y-87400958D01*
X114943811Y-87334931D01*
X114973565Y-87307085D01*
X114973044Y-87306425D01*
X114978711Y-87301943D01*
X114978710Y-87301943D01*
X114978713Y-87301942D01*
X115102769Y-87177886D01*
X115104809Y-87174577D01*
X115106802Y-87172785D01*
X115107250Y-87172219D01*
X115107346Y-87172295D01*
X115156751Y-87127853D01*
X115225713Y-87116625D01*
X115289797Y-87144464D01*
X115315886Y-87174569D01*
X115317738Y-87177571D01*
X115317740Y-87177574D01*
X115441711Y-87301545D01*
X115590932Y-87393586D01*
X115590937Y-87393588D01*
X115757359Y-87448735D01*
X115757366Y-87448736D01*
X115860076Y-87459229D01*
X115997556Y-87459229D01*
X115997557Y-87459228D01*
X115997557Y-86484230D01*
X116497557Y-86484230D01*
X116497557Y-87459229D01*
X116635029Y-87459229D01*
X116635043Y-87459228D01*
X116737754Y-87448735D01*
X116904176Y-87393588D01*
X116904181Y-87393586D01*
X117053402Y-87301545D01*
X117177372Y-87177575D01*
X117269413Y-87028354D01*
X117269415Y-87028349D01*
X117324562Y-86861927D01*
X117324563Y-86861920D01*
X117335056Y-86759216D01*
X117335057Y-86759203D01*
X117335057Y-86484230D01*
X116497557Y-86484230D01*
X115997557Y-86484230D01*
X115997557Y-85009230D01*
X116497557Y-85009230D01*
X116497557Y-85984230D01*
X117335056Y-85984230D01*
X117335056Y-85709258D01*
X117335055Y-85709243D01*
X117324562Y-85606532D01*
X117269415Y-85440110D01*
X117269413Y-85440105D01*
X117177372Y-85290884D01*
X117053402Y-85166914D01*
X116904181Y-85074873D01*
X116904176Y-85074871D01*
X116737754Y-85019724D01*
X116737747Y-85019723D01*
X116635043Y-85009230D01*
X116497557Y-85009230D01*
X115997557Y-85009230D01*
X115860084Y-85009230D01*
X115860069Y-85009231D01*
X115757359Y-85019724D01*
X115590937Y-85074871D01*
X115590932Y-85074873D01*
X115441711Y-85166914D01*
X115317740Y-85290885D01*
X115317736Y-85290890D01*
X115315883Y-85293895D01*
X115314075Y-85295520D01*
X115313259Y-85296553D01*
X115313082Y-85296413D01*
X115263931Y-85340615D01*
X115194968Y-85351831D01*
X115130888Y-85323982D01*
X115104810Y-85293883D01*
X115104794Y-85293858D01*
X115102769Y-85290574D01*
X114978713Y-85166518D01*
X114859795Y-85093169D01*
X114829393Y-85074417D01*
X114829388Y-85074415D01*
X114772982Y-85055724D01*
X114662854Y-85019231D01*
X114662852Y-85019230D01*
X114560067Y-85008730D01*
X113785055Y-85008730D01*
X113785037Y-85008731D01*
X113682260Y-85019230D01*
X113682258Y-85019231D01*
X113663002Y-85025612D01*
X113593173Y-85028012D01*
X113533132Y-84992279D01*
X113501941Y-84929758D01*
X113500000Y-84907905D01*
X113500000Y-83966179D01*
X113519685Y-83899140D01*
X113572489Y-83853385D01*
X113641647Y-83843441D01*
X113705203Y-83872466D01*
X113725576Y-83895057D01*
X113734723Y-83908122D01*
X113734724Y-83908122D01*
X114287820Y-83355025D01*
X114290634Y-83368565D01*
X114360192Y-83502806D01*
X114463388Y-83613302D01*
X114592569Y-83691859D01*
X114643752Y-83706199D01*
X114088276Y-84261675D01*
X114088276Y-84261676D01*
X114161262Y-84312781D01*
X114161266Y-84312783D01*
X114367423Y-84408915D01*
X114367432Y-84408919D01*
X114587139Y-84467789D01*
X114587150Y-84467791D01*
X114813748Y-84487616D01*
X114813752Y-84487616D01*
X115040349Y-84467791D01*
X115040360Y-84467789D01*
X115260067Y-84408919D01*
X115260081Y-84408914D01*
X115466228Y-84312786D01*
X115539222Y-84261675D01*
X114985318Y-83707771D01*
X115102208Y-83656999D01*
X115219489Y-83561584D01*
X115306678Y-83438065D01*
X115337104Y-83352451D01*
X115892775Y-83908122D01*
X115943886Y-83835128D01*
X116040014Y-83628981D01*
X116040019Y-83628967D01*
X116098889Y-83409260D01*
X116098891Y-83409249D01*
X116118716Y-83182652D01*
X116118716Y-83182647D01*
X116098891Y-82956050D01*
X116098889Y-82956039D01*
X116040019Y-82736332D01*
X116040015Y-82736323D01*
X115943883Y-82530166D01*
X115943881Y-82530162D01*
X115892776Y-82457176D01*
X115892775Y-82457176D01*
X115339679Y-83010272D01*
X115336866Y-82996735D01*
X115267308Y-82862494D01*
X115164112Y-82751998D01*
X115034931Y-82673441D01*
X114983746Y-82659099D01*
X115550480Y-82092365D01*
X115555718Y-82066306D01*
X115604334Y-82016124D01*
X115665479Y-82000000D01*
X118576000Y-82000000D01*
X118643039Y-82019685D01*
G37*
%TD.AperFunction*%
%TA.AperFunction,Conductor*%
G36*
X114029059Y-82019685D02*
G01*
X114074814Y-82072489D01*
X114078491Y-82093838D01*
X114642182Y-82657528D01*
X114525292Y-82708301D01*
X114408011Y-82803716D01*
X114320822Y-82927235D01*
X114290395Y-83012848D01*
X113734723Y-82457176D01*
X113734723Y-82457177D01*
X113725575Y-82470242D01*
X113670998Y-82513866D01*
X113601499Y-82521059D01*
X113539145Y-82489537D01*
X113503731Y-82429307D01*
X113500000Y-82399118D01*
X113500000Y-82124000D01*
X113519685Y-82056961D01*
X113572489Y-82011206D01*
X113624000Y-82000000D01*
X113962020Y-82000000D01*
X114029059Y-82019685D01*
G37*
%TD.AperFunction*%
%TD*%
%TA.AperFunction,Conductor*%
%TO.N,Earth*%
G36*
X87693039Y-42769685D02*
G01*
X87738794Y-42822489D01*
X87750000Y-42874000D01*
X87750000Y-56564047D01*
X87730315Y-56631086D01*
X87713681Y-56651728D01*
X84901729Y-59463681D01*
X84840406Y-59497166D01*
X84814048Y-59500000D01*
X80000000Y-59500000D01*
X80000000Y-52500000D01*
X77500000Y-52500000D01*
X77500000Y-52056751D01*
X77519685Y-51989712D01*
X77572489Y-51943957D01*
X77641647Y-51934013D01*
X77705203Y-51963038D01*
X77729539Y-51991654D01*
X77807683Y-52118346D01*
X77931653Y-52242316D01*
X78080874Y-52334357D01*
X78080879Y-52334359D01*
X78247302Y-52389506D01*
X78247300Y-52389506D01*
X78306134Y-52395516D01*
X78317124Y-52400000D01*
X78346858Y-52400000D01*
X78353163Y-52400321D01*
X78363462Y-52401373D01*
X78371419Y-52400000D01*
X78401375Y-52400000D01*
X78401384Y-52399999D01*
X79425000Y-52399999D01*
X79425000Y-50775000D01*
X79925000Y-50775000D01*
X79925000Y-52399999D01*
X81100000Y-52399999D01*
X81100000Y-50775000D01*
X81600000Y-50775000D01*
X81600000Y-52399999D01*
X82774999Y-52399999D01*
X82775000Y-52399998D01*
X82775000Y-50775000D01*
X83275000Y-50775000D01*
X83275000Y-52399999D01*
X84349974Y-52399999D01*
X84349988Y-52399998D01*
X84452699Y-52389505D01*
X84619120Y-52334359D01*
X84619125Y-52334357D01*
X84768346Y-52242316D01*
X84892316Y-52118346D01*
X84984357Y-51969125D01*
X84984359Y-51969120D01*
X85039505Y-51802698D01*
X85049999Y-51699988D01*
X85050000Y-51699975D01*
X85050000Y-50775000D01*
X83275000Y-50775000D01*
X82775000Y-50775000D01*
X81600000Y-50775000D01*
X81100000Y-50775000D01*
X79925000Y-50775000D01*
X79425000Y-50775000D01*
X79425000Y-47725000D01*
X79925000Y-47725000D01*
X79925000Y-50275000D01*
X81100000Y-50275000D01*
X81100000Y-49250000D01*
X81600000Y-49250000D01*
X81600000Y-50275000D01*
X82775000Y-50275000D01*
X82775000Y-49250000D01*
X83275000Y-49250000D01*
X83275000Y-50275000D01*
X85049999Y-50275000D01*
X85049999Y-49250000D01*
X83275000Y-49250000D01*
X82775000Y-49250000D01*
X81600000Y-49250000D01*
X81100000Y-49250000D01*
X81100000Y-47725000D01*
X81600000Y-47725000D01*
X81600000Y-48750000D01*
X82775000Y-48750000D01*
X82775000Y-47725000D01*
X83275000Y-47725000D01*
X83275000Y-48750000D01*
X85049999Y-48750000D01*
X85049999Y-48653023D01*
X85050000Y-48653002D01*
X85050000Y-47725000D01*
X83275000Y-47725000D01*
X82775000Y-47725000D01*
X81600000Y-47725000D01*
X81100000Y-47725000D01*
X79925000Y-47725000D01*
X79425000Y-47725000D01*
X79425000Y-45600000D01*
X79925000Y-45600000D01*
X79925000Y-47225000D01*
X81100000Y-47225000D01*
X81100000Y-45600000D01*
X81600000Y-45600000D01*
X81600000Y-47225000D01*
X82775000Y-47225000D01*
X82775000Y-45600000D01*
X83275000Y-45600000D01*
X83275000Y-47225000D01*
X85049999Y-47225000D01*
X85049999Y-46300028D01*
X85049998Y-46300013D01*
X85039827Y-46200448D01*
X85039741Y-46198761D01*
X85039505Y-46197300D01*
X84984359Y-46030879D01*
X84984357Y-46030874D01*
X84892316Y-45881653D01*
X84768346Y-45757683D01*
X84619125Y-45665642D01*
X84619120Y-45665640D01*
X84452698Y-45610494D01*
X84349988Y-45600000D01*
X83275000Y-45600000D01*
X82775000Y-45600000D01*
X81600000Y-45600000D01*
X81100000Y-45600000D01*
X79925000Y-45600000D01*
X79425000Y-45600000D01*
X78349608Y-45600000D01*
X78348183Y-45600188D01*
X78247300Y-45610494D01*
X78080879Y-45665640D01*
X78080874Y-45665642D01*
X77931653Y-45757683D01*
X77807682Y-45881654D01*
X77807679Y-45881658D01*
X77729538Y-46008345D01*
X77677591Y-46055070D01*
X77608628Y-46066291D01*
X77544546Y-46038448D01*
X77505690Y-45980379D01*
X77500000Y-45943248D01*
X77500000Y-42874000D01*
X77519685Y-42806961D01*
X77572489Y-42761206D01*
X77624000Y-42750000D01*
X87626000Y-42750000D01*
X87693039Y-42769685D01*
G37*
%TD.AperFunction*%
%TD*%
%TA.AperFunction,Conductor*%
%TO.N,Earth*%
G36*
X80000000Y-59500000D02*
G01*
X77614126Y-59500000D01*
X77547087Y-59480315D01*
X77501332Y-59427511D01*
X77491388Y-59358353D01*
X77508587Y-59310904D01*
X77534354Y-59269128D01*
X77534358Y-59269119D01*
X77589505Y-59102697D01*
X77589506Y-59102690D01*
X77599999Y-58999986D01*
X77600000Y-58999973D01*
X77600000Y-58750000D01*
X76374000Y-58750000D01*
X76306961Y-58730315D01*
X76261206Y-58677511D01*
X76250000Y-58626000D01*
X76250000Y-58250000D01*
X76750000Y-58250000D01*
X77599999Y-58250000D01*
X77599999Y-58000028D01*
X77599998Y-58000013D01*
X77589505Y-57897302D01*
X77534358Y-57730880D01*
X77534356Y-57730875D01*
X77442315Y-57581654D01*
X77318345Y-57457684D01*
X77185164Y-57375537D01*
X77138439Y-57323589D01*
X77127218Y-57254626D01*
X77155061Y-57190544D01*
X77188843Y-57164556D01*
X77187975Y-57163149D01*
X77343345Y-57067315D01*
X77467315Y-56943345D01*
X77559356Y-56794124D01*
X77559358Y-56794119D01*
X77614505Y-56627697D01*
X77614506Y-56627690D01*
X77624999Y-56524986D01*
X77625000Y-56524973D01*
X77625000Y-56250000D01*
X76787500Y-56250000D01*
X76787500Y-57211138D01*
X76767815Y-57278177D01*
X76751181Y-57298819D01*
X76750000Y-57300000D01*
X76750000Y-58250000D01*
X76250000Y-58250000D01*
X76250000Y-57313861D01*
X76269685Y-57246822D01*
X76286319Y-57226180D01*
X76287500Y-57224999D01*
X76287500Y-54000000D01*
X76787500Y-54000000D01*
X76787500Y-55750000D01*
X77624999Y-55750000D01*
X77624999Y-55475028D01*
X77624998Y-55475013D01*
X77614505Y-55372302D01*
X77559358Y-55205880D01*
X77559356Y-55205875D01*
X77467315Y-55056654D01*
X77373342Y-54962681D01*
X77339857Y-54901358D01*
X77344841Y-54831666D01*
X77373342Y-54787319D01*
X77467315Y-54693345D01*
X77559356Y-54544124D01*
X77559358Y-54544119D01*
X77614505Y-54377697D01*
X77614506Y-54377690D01*
X77624999Y-54274986D01*
X77625000Y-54274973D01*
X77625000Y-54000000D01*
X76787500Y-54000000D01*
X76287500Y-54000000D01*
X76287500Y-53624000D01*
X76307185Y-53556961D01*
X76359989Y-53511206D01*
X76411500Y-53500000D01*
X77624999Y-53500000D01*
X77624999Y-53225028D01*
X77624998Y-53225013D01*
X77614505Y-53122302D01*
X77559358Y-52955880D01*
X77559356Y-52955875D01*
X77467315Y-52806654D01*
X77372342Y-52711681D01*
X77338857Y-52650358D01*
X77343841Y-52580666D01*
X77385713Y-52524733D01*
X77451177Y-52500316D01*
X77460023Y-52500000D01*
X77500000Y-52500000D01*
X80000000Y-52500000D01*
X80000000Y-59500000D01*
G37*
%TD.AperFunction*%
%TD*%
%TA.AperFunction,Conductor*%
%TO.N,+12V*%
G36*
X73447703Y-50519685D02*
G01*
X73493458Y-50572489D01*
X73503402Y-50641647D01*
X73498370Y-50663004D01*
X73460494Y-50777302D01*
X73460493Y-50777309D01*
X73450000Y-50880013D01*
X73450000Y-51030000D01*
X75176000Y-51030000D01*
X75243039Y-51049685D01*
X75288794Y-51102489D01*
X75300000Y-51154000D01*
X75300000Y-51406000D01*
X75280315Y-51473039D01*
X75227511Y-51518794D01*
X75176000Y-51530000D01*
X73450001Y-51530000D01*
X73450001Y-51679986D01*
X73460494Y-51782697D01*
X73515641Y-51949119D01*
X73515643Y-51949124D01*
X73607684Y-52098345D01*
X73731654Y-52222315D01*
X73880875Y-52314356D01*
X73880882Y-52314359D01*
X73905049Y-52322367D01*
X73962494Y-52362139D01*
X73989318Y-52426654D01*
X73977004Y-52495430D01*
X73929461Y-52546631D01*
X73905051Y-52557779D01*
X73805878Y-52590642D01*
X73805875Y-52590643D01*
X73656654Y-52682684D01*
X73532684Y-52806654D01*
X73440643Y-52955875D01*
X73440641Y-52955880D01*
X73385494Y-53122302D01*
X73385493Y-53122309D01*
X73375000Y-53225013D01*
X73375000Y-53500000D01*
X74588500Y-53500000D01*
X74655539Y-53519685D01*
X74701294Y-53572489D01*
X74712500Y-53624000D01*
X74712500Y-56126000D01*
X74692815Y-56193039D01*
X74640011Y-56238794D01*
X74588500Y-56250000D01*
X73375001Y-56250000D01*
X73375001Y-56524986D01*
X73385494Y-56627697D01*
X73440641Y-56794119D01*
X73440643Y-56794124D01*
X73532684Y-56943345D01*
X73627658Y-57038319D01*
X73661143Y-57099642D01*
X73656159Y-57169334D01*
X73614287Y-57225267D01*
X73548823Y-57249684D01*
X73539977Y-57250000D01*
X71238307Y-57250000D01*
X71171268Y-57230315D01*
X71125513Y-57177511D01*
X71115569Y-57108353D01*
X71134498Y-57058178D01*
X71235484Y-56903606D01*
X71328682Y-56691135D01*
X71385638Y-56466218D01*
X71404798Y-56235005D01*
X71404798Y-56234994D01*
X71385638Y-56003781D01*
X71328682Y-55778864D01*
X71316021Y-55750000D01*
X73375000Y-55750000D01*
X74212500Y-55750000D01*
X74212500Y-54000000D01*
X73375001Y-54000000D01*
X73375001Y-54274986D01*
X73385494Y-54377697D01*
X73440641Y-54544119D01*
X73440643Y-54544124D01*
X73532684Y-54693345D01*
X73626658Y-54787319D01*
X73660143Y-54848642D01*
X73655159Y-54918334D01*
X73626658Y-54962681D01*
X73532684Y-55056654D01*
X73440643Y-55205875D01*
X73440641Y-55205880D01*
X73385494Y-55372302D01*
X73385493Y-55372309D01*
X73375000Y-55475013D01*
X73375000Y-55750000D01*
X71316021Y-55750000D01*
X71235483Y-55566390D01*
X71151186Y-55437364D01*
X70444449Y-56144100D01*
X70443673Y-56133735D01*
X70394113Y-56007459D01*
X70309535Y-55901401D01*
X70197453Y-55824984D01*
X70089700Y-55791747D01*
X70798799Y-55082648D01*
X70798799Y-55082647D01*
X70768349Y-55058949D01*
X70564302Y-54948523D01*
X70564293Y-54948520D01*
X70344860Y-54873188D01*
X70116007Y-54835000D01*
X69883993Y-54835000D01*
X69655139Y-54873188D01*
X69435706Y-54948520D01*
X69435698Y-54948523D01*
X69231644Y-55058952D01*
X69201200Y-55082646D01*
X69201200Y-55082647D01*
X69911768Y-55793215D01*
X69865862Y-55800135D01*
X69743643Y-55858993D01*
X69644202Y-55951260D01*
X69576375Y-56068740D01*
X69558500Y-56147053D01*
X68848812Y-55437365D01*
X68764516Y-55566391D01*
X68764514Y-55566395D01*
X68671317Y-55778864D01*
X68614361Y-56003781D01*
X68595202Y-56234994D01*
X68595202Y-56235005D01*
X68614361Y-56466218D01*
X68671317Y-56691135D01*
X68764515Y-56903606D01*
X68865502Y-57058178D01*
X68885689Y-57125068D01*
X68866509Y-57192253D01*
X68814051Y-57238404D01*
X68761693Y-57250000D01*
X67374000Y-57250000D01*
X67306961Y-57230315D01*
X67261206Y-57177511D01*
X67250000Y-57126000D01*
X67250000Y-54293124D01*
X69310426Y-54293124D01*
X69372611Y-54336666D01*
X69372613Y-54336667D01*
X69570840Y-54429101D01*
X69570849Y-54429105D01*
X69782105Y-54485710D01*
X69782115Y-54485712D01*
X69999999Y-54504775D01*
X70000001Y-54504775D01*
X70217884Y-54485712D01*
X70217894Y-54485710D01*
X70429150Y-54429105D01*
X70429159Y-54429101D01*
X70627387Y-54336666D01*
X70689572Y-54293124D01*
X70000001Y-53603553D01*
X70000000Y-53603553D01*
X69310426Y-54293124D01*
X67250000Y-54293124D01*
X67250000Y-53250000D01*
X68745225Y-53250000D01*
X68764287Y-53467884D01*
X68764289Y-53467894D01*
X68820894Y-53679150D01*
X68820898Y-53679159D01*
X68913335Y-53877391D01*
X68956873Y-53939571D01*
X68956875Y-53939572D01*
X69617145Y-53279302D01*
X69646372Y-53279302D01*
X69675047Y-53392538D01*
X69738936Y-53490327D01*
X69831115Y-53562072D01*
X69941595Y-53600000D01*
X70029005Y-53600000D01*
X70115216Y-53585614D01*
X70217947Y-53530019D01*
X70297060Y-53444079D01*
X70343982Y-53337108D01*
X70351200Y-53250000D01*
X70353553Y-53250000D01*
X71043124Y-53939572D01*
X71086666Y-53877387D01*
X71179101Y-53679159D01*
X71179105Y-53679150D01*
X71235710Y-53467894D01*
X71235712Y-53467884D01*
X71254775Y-53250000D01*
X71254775Y-53249999D01*
X71235712Y-53032115D01*
X71235710Y-53032105D01*
X71179105Y-52820849D01*
X71179101Y-52820840D01*
X71086668Y-52622615D01*
X71043123Y-52560428D01*
X70353553Y-53249999D01*
X70353553Y-53250000D01*
X70351200Y-53250000D01*
X70353628Y-53220698D01*
X70324953Y-53107462D01*
X70261064Y-53009673D01*
X70168885Y-52937928D01*
X70058405Y-52900000D01*
X69970995Y-52900000D01*
X69884784Y-52914386D01*
X69782053Y-52969981D01*
X69702940Y-53055921D01*
X69656018Y-53162892D01*
X69646372Y-53279302D01*
X69617145Y-53279302D01*
X69646447Y-53250000D01*
X69646447Y-53249999D01*
X68956875Y-52560427D01*
X68956875Y-52560428D01*
X68913333Y-52622612D01*
X68913332Y-52622614D01*
X68820898Y-52820840D01*
X68820894Y-52820849D01*
X68764289Y-53032105D01*
X68764287Y-53032115D01*
X68745225Y-53249999D01*
X68745225Y-53250000D01*
X67250000Y-53250000D01*
X67250000Y-52206875D01*
X69310427Y-52206875D01*
X70000000Y-52896447D01*
X70000001Y-52896447D01*
X70689572Y-52206875D01*
X70689571Y-52206873D01*
X70627391Y-52163335D01*
X70429159Y-52070898D01*
X70429150Y-52070894D01*
X70217894Y-52014289D01*
X70217884Y-52014287D01*
X70000001Y-51995225D01*
X69999999Y-51995225D01*
X69782115Y-52014287D01*
X69782105Y-52014289D01*
X69570849Y-52070894D01*
X69570840Y-52070898D01*
X69372614Y-52163332D01*
X69372612Y-52163333D01*
X69310428Y-52206875D01*
X69310427Y-52206875D01*
X67250000Y-52206875D01*
X67250000Y-50624000D01*
X67269685Y-50556961D01*
X67322489Y-50511206D01*
X67374000Y-50500000D01*
X73380664Y-50500000D01*
X73447703Y-50519685D01*
G37*
%TD.AperFunction*%
%TD*%
%TA.AperFunction,Conductor*%
%TO.N,+3.3V*%
G36*
X90242593Y-89019685D02*
G01*
X90288348Y-89072489D01*
X90298292Y-89141647D01*
X90293260Y-89163004D01*
X90270551Y-89231532D01*
X90270550Y-89231539D01*
X90260057Y-89334243D01*
X90260057Y-89484230D01*
X92660056Y-89484230D01*
X92660056Y-89334258D01*
X92660055Y-89334243D01*
X92649563Y-89231534D01*
X92626854Y-89163005D01*
X92624452Y-89093177D01*
X92660183Y-89033134D01*
X92722703Y-89001941D01*
X92744560Y-89000000D01*
X93675554Y-89000000D01*
X93742593Y-89019685D01*
X93788348Y-89072489D01*
X93798292Y-89141647D01*
X93793260Y-89163004D01*
X93770551Y-89231532D01*
X93770550Y-89231539D01*
X93760057Y-89334243D01*
X93760057Y-89484230D01*
X96160056Y-89484230D01*
X96160056Y-89334258D01*
X96160055Y-89334243D01*
X96149563Y-89231534D01*
X96126854Y-89163005D01*
X96124452Y-89093177D01*
X96160183Y-89033134D01*
X96222703Y-89001941D01*
X96244560Y-89000000D01*
X97175554Y-89000000D01*
X97242593Y-89019685D01*
X97288348Y-89072489D01*
X97298292Y-89141647D01*
X97293260Y-89163004D01*
X97270551Y-89231532D01*
X97270550Y-89231539D01*
X97260057Y-89334243D01*
X97260057Y-89484230D01*
X99660056Y-89484230D01*
X99660056Y-89334258D01*
X99660055Y-89334243D01*
X99649563Y-89231534D01*
X99626854Y-89163005D01*
X99624452Y-89093177D01*
X99660183Y-89033134D01*
X99722703Y-89001941D01*
X99744560Y-89000000D01*
X102718529Y-89000000D01*
X102785568Y-89019685D01*
X102825263Y-89060882D01*
X102829778Y-89068517D01*
X102838335Y-89085985D01*
X102845745Y-89104701D01*
X102873229Y-89142529D01*
X102876437Y-89147413D01*
X102900234Y-89187652D01*
X102900240Y-89187660D01*
X102914469Y-89201888D01*
X102927109Y-89216687D01*
X102938934Y-89232964D01*
X102938936Y-89232965D01*
X102938937Y-89232967D01*
X102974957Y-89262765D01*
X102979268Y-89266687D01*
X103565167Y-89852586D01*
X104136181Y-90423600D01*
X104169666Y-90484923D01*
X104172500Y-90511281D01*
X104172500Y-94403534D01*
X104152815Y-94470573D01*
X104140650Y-94486506D01*
X104067466Y-94567785D01*
X103972821Y-94731715D01*
X103972818Y-94731722D01*
X103914327Y-94911740D01*
X103914326Y-94911744D01*
X103894540Y-95100000D01*
X103914326Y-95288256D01*
X103914327Y-95288259D01*
X103972818Y-95468277D01*
X103972821Y-95468284D01*
X104067467Y-95632216D01*
X104194129Y-95772888D01*
X104347265Y-95884148D01*
X104347270Y-95884151D01*
X104520192Y-95961142D01*
X104520197Y-95961144D01*
X104705354Y-96000500D01*
X104705355Y-96000500D01*
X104894644Y-96000500D01*
X104894646Y-96000500D01*
X105079803Y-95961144D01*
X105252730Y-95884151D01*
X105405871Y-95772888D01*
X105532533Y-95632216D01*
X105627179Y-95468284D01*
X105685674Y-95288256D01*
X105705460Y-95100000D01*
X105685674Y-94911744D01*
X105627179Y-94731716D01*
X105532533Y-94567784D01*
X105459350Y-94486506D01*
X105429120Y-94423515D01*
X105427500Y-94403534D01*
X105427500Y-90282964D01*
X105429228Y-90267313D01*
X105428946Y-90267287D01*
X105429680Y-90259524D01*
X105427500Y-90190140D01*
X105427500Y-90160530D01*
X105427500Y-90160524D01*
X105426626Y-90153607D01*
X105426169Y-90147792D01*
X105424701Y-90101057D01*
X105419084Y-90081727D01*
X105415138Y-90062668D01*
X105412617Y-90042711D01*
X105412616Y-90042709D01*
X105412616Y-90042707D01*
X105406537Y-90027354D01*
X109270483Y-90027354D01*
X109332668Y-90070896D01*
X109332670Y-90070897D01*
X109530897Y-90163331D01*
X109530906Y-90163335D01*
X109742162Y-90219940D01*
X109742172Y-90219942D01*
X109960056Y-90239005D01*
X109960058Y-90239005D01*
X110177941Y-90219942D01*
X110177951Y-90219940D01*
X110389207Y-90163335D01*
X110389216Y-90163331D01*
X110587444Y-90070896D01*
X110649629Y-90027354D01*
X109960058Y-89337783D01*
X109960057Y-89337783D01*
X109270483Y-90027354D01*
X105406537Y-90027354D01*
X105395403Y-89999234D01*
X105393514Y-89993713D01*
X105380467Y-89948807D01*
X105370225Y-89931489D01*
X105361662Y-89914011D01*
X105354253Y-89895297D01*
X105354253Y-89895296D01*
X105326771Y-89857472D01*
X105323567Y-89852596D01*
X105299763Y-89812344D01*
X105299761Y-89812342D01*
X105299759Y-89812339D01*
X105285531Y-89798112D01*
X105272896Y-89783320D01*
X105261063Y-89767033D01*
X105261060Y-89767031D01*
X105261060Y-89767030D01*
X105261059Y-89767029D01*
X105225035Y-89737228D01*
X105220713Y-89733294D01*
X104699100Y-89211681D01*
X104665615Y-89150358D01*
X104670599Y-89080666D01*
X104712471Y-89024733D01*
X104777935Y-89000316D01*
X104786781Y-89000000D01*
X108593037Y-89000000D01*
X108660076Y-89019685D01*
X108705831Y-89072489D01*
X108716565Y-89113193D01*
X108724344Y-89202113D01*
X108724346Y-89202124D01*
X108780951Y-89413380D01*
X108780955Y-89413389D01*
X108873392Y-89611621D01*
X108916930Y-89673801D01*
X108916931Y-89673802D01*
X109590733Y-89000000D01*
X109607550Y-89000000D01*
X109606429Y-89013532D01*
X109635104Y-89126768D01*
X109698993Y-89224557D01*
X109791172Y-89296302D01*
X109901652Y-89334230D01*
X109989062Y-89334230D01*
X110075273Y-89319844D01*
X110178004Y-89264249D01*
X110257117Y-89178309D01*
X110304039Y-89071338D01*
X110309950Y-89000000D01*
X110329379Y-89000000D01*
X111003181Y-89673802D01*
X111046723Y-89611617D01*
X111139158Y-89413389D01*
X111139162Y-89413380D01*
X111195767Y-89202124D01*
X111195769Y-89202113D01*
X111203549Y-89113193D01*
X111229001Y-89048124D01*
X111285592Y-89007145D01*
X111327077Y-89000000D01*
X111876000Y-89000000D01*
X111943039Y-89019685D01*
X111988794Y-89072489D01*
X112000000Y-89124000D01*
X112000000Y-101376000D01*
X111980315Y-101443039D01*
X111927511Y-101488794D01*
X111876000Y-101500000D01*
X111395023Y-101500000D01*
X111327984Y-101480315D01*
X111282229Y-101427511D01*
X111272285Y-101358353D01*
X111301310Y-101294797D01*
X111307342Y-101288319D01*
X111382315Y-101213345D01*
X111474356Y-101064124D01*
X111474358Y-101064119D01*
X111529505Y-100897697D01*
X111529506Y-100897690D01*
X111539999Y-100794986D01*
X111540000Y-100794973D01*
X111540000Y-100645000D01*
X109140001Y-100645000D01*
X109140001Y-100794986D01*
X109150494Y-100897697D01*
X109205641Y-101064119D01*
X109205643Y-101064124D01*
X109297684Y-101213345D01*
X109372658Y-101288319D01*
X109406143Y-101349642D01*
X109401159Y-101419334D01*
X109359287Y-101475267D01*
X109293823Y-101499684D01*
X109284977Y-101500000D01*
X108906216Y-101500000D01*
X108839177Y-101480315D01*
X108812837Y-101456432D01*
X108812819Y-101456451D01*
X108812448Y-101456080D01*
X108808944Y-101452903D01*
X108807714Y-101451347D01*
X108807712Y-101451344D01*
X108683656Y-101327288D01*
X108534334Y-101235186D01*
X108367797Y-101180001D01*
X108367795Y-101180000D01*
X108265010Y-101169500D01*
X107489998Y-101169500D01*
X107489980Y-101169501D01*
X107387203Y-101180000D01*
X107387200Y-101180001D01*
X107220668Y-101235185D01*
X107220663Y-101235187D01*
X107071342Y-101327289D01*
X106947290Y-101451341D01*
X106946056Y-101452903D01*
X106944935Y-101453696D01*
X106942181Y-101456451D01*
X106941710Y-101455980D01*
X106889038Y-101493284D01*
X106848784Y-101500000D01*
X106831216Y-101500000D01*
X106764177Y-101480315D01*
X106737837Y-101456432D01*
X106737819Y-101456451D01*
X106737448Y-101456080D01*
X106733944Y-101452903D01*
X106732714Y-101451347D01*
X106732712Y-101451344D01*
X106608656Y-101327288D01*
X106459334Y-101235186D01*
X106292797Y-101180001D01*
X106292795Y-101180000D01*
X106190010Y-101169500D01*
X105414998Y-101169500D01*
X105414980Y-101169501D01*
X105312203Y-101180000D01*
X105312200Y-101180001D01*
X105145668Y-101235185D01*
X105145663Y-101235187D01*
X104996342Y-101327289D01*
X104872290Y-101451341D01*
X104871056Y-101452903D01*
X104869935Y-101453696D01*
X104867181Y-101456451D01*
X104866710Y-101455980D01*
X104814038Y-101493284D01*
X104773784Y-101500000D01*
X103823553Y-101500000D01*
X103797780Y-101497291D01*
X103784646Y-101494500D01*
X103595354Y-101494500D01*
X103582219Y-101497291D01*
X103556447Y-101500000D01*
X102000000Y-101500000D01*
X102000000Y-104445852D01*
X101980315Y-104512891D01*
X101927511Y-104558646D01*
X101901782Y-104567142D01*
X101870196Y-104573856D01*
X101870192Y-104573857D01*
X101697270Y-104650848D01*
X101697265Y-104650851D01*
X101544129Y-104762111D01*
X101417466Y-104902785D01*
X101322821Y-105066715D01*
X101322818Y-105066722D01*
X101264327Y-105246740D01*
X101264326Y-105246744D01*
X101244540Y-105435000D01*
X101264326Y-105623256D01*
X101264327Y-105623259D01*
X101322818Y-105803277D01*
X101322821Y-105803284D01*
X101417467Y-105967216D01*
X101532532Y-106095008D01*
X101544129Y-106107888D01*
X101697265Y-106219148D01*
X101697270Y-106219151D01*
X101856417Y-106290009D01*
X101870197Y-106296144D01*
X101901783Y-106302857D01*
X101963262Y-106336049D01*
X101997039Y-106397211D01*
X102000000Y-106424147D01*
X102000000Y-124000000D01*
X93500000Y-124000000D01*
X93500000Y-102000000D01*
X90425644Y-102000000D01*
X90358605Y-101980315D01*
X90312850Y-101927511D01*
X90312015Y-101925386D01*
X90309815Y-101920669D01*
X90309814Y-101920668D01*
X90309814Y-101920666D01*
X90217712Y-101771344D01*
X90123695Y-101677327D01*
X90090210Y-101616004D01*
X90095194Y-101546312D01*
X90123695Y-101501964D01*
X90217317Y-101408342D01*
X90309356Y-101259124D01*
X90309358Y-101259119D01*
X90364505Y-101092697D01*
X90364506Y-101092690D01*
X90374999Y-100989986D01*
X90375000Y-100989973D01*
X90375000Y-100840000D01*
X87975001Y-100840000D01*
X87975001Y-100989986D01*
X87985494Y-101092697D01*
X88040641Y-101259119D01*
X88040643Y-101259124D01*
X88132684Y-101408345D01*
X88226304Y-101501965D01*
X88259789Y-101563288D01*
X88254805Y-101632980D01*
X88226305Y-101677327D01*
X88132288Y-101771344D01*
X88057861Y-101892011D01*
X88049481Y-101905597D01*
X87997533Y-101952321D01*
X87943942Y-101964500D01*
X87880301Y-101964500D01*
X87813262Y-101944815D01*
X87767507Y-101892011D01*
X87762595Y-101879504D01*
X87734814Y-101795666D01*
X87642712Y-101646344D01*
X87518656Y-101522288D01*
X87369334Y-101430186D01*
X87202797Y-101375001D01*
X87202794Y-101375000D01*
X87111397Y-101365663D01*
X87046705Y-101339267D01*
X87006554Y-101282086D01*
X87000000Y-101242305D01*
X87000000Y-100340000D01*
X87975000Y-100340000D01*
X88925000Y-100340000D01*
X88925000Y-99490000D01*
X89425000Y-99490000D01*
X89425000Y-100340000D01*
X90374999Y-100340000D01*
X90374999Y-100190028D01*
X90374998Y-100190013D01*
X90370399Y-100145000D01*
X109140000Y-100145000D01*
X110090000Y-100145000D01*
X110090000Y-99295000D01*
X110590000Y-99295000D01*
X110590000Y-100145000D01*
X111539999Y-100145000D01*
X111539999Y-99995028D01*
X111539998Y-99995013D01*
X111529505Y-99892302D01*
X111474358Y-99725880D01*
X111474356Y-99725875D01*
X111382315Y-99576654D01*
X111258345Y-99452684D01*
X111109124Y-99360643D01*
X111109119Y-99360641D01*
X110942697Y-99305494D01*
X110942690Y-99305493D01*
X110839986Y-99295000D01*
X110590000Y-99295000D01*
X110090000Y-99295000D01*
X109840029Y-99295000D01*
X109840012Y-99295001D01*
X109737302Y-99305494D01*
X109570880Y-99360641D01*
X109570875Y-99360643D01*
X109421654Y-99452684D01*
X109297684Y-99576654D01*
X109205643Y-99725875D01*
X109205641Y-99725880D01*
X109150494Y-99892302D01*
X109150493Y-99892309D01*
X109140000Y-99995013D01*
X109140000Y-100145000D01*
X90370399Y-100145000D01*
X90364505Y-100087302D01*
X90309358Y-99920880D01*
X90309356Y-99920875D01*
X90217315Y-99771654D01*
X90093345Y-99647684D01*
X89944124Y-99555643D01*
X89944119Y-99555641D01*
X89777697Y-99500494D01*
X89777690Y-99500493D01*
X89674986Y-99490000D01*
X89425000Y-99490000D01*
X88925000Y-99490000D01*
X88675029Y-99490000D01*
X88675012Y-99490001D01*
X88572302Y-99500494D01*
X88405880Y-99555641D01*
X88405875Y-99555643D01*
X88256654Y-99647684D01*
X88132684Y-99771654D01*
X88040643Y-99920875D01*
X88040641Y-99920880D01*
X87985494Y-100087302D01*
X87985493Y-100087309D01*
X87975000Y-100190013D01*
X87975000Y-100340000D01*
X87000000Y-100340000D01*
X87000000Y-90684196D01*
X87019685Y-90617157D01*
X87072489Y-90571402D01*
X87141647Y-90561458D01*
X87205203Y-90590483D01*
X87211681Y-90596515D01*
X87291711Y-90676545D01*
X87440932Y-90768586D01*
X87440937Y-90768588D01*
X87607359Y-90823735D01*
X87607366Y-90823736D01*
X87710076Y-90834229D01*
X87960056Y-90834229D01*
X87960057Y-90834228D01*
X87960057Y-89984230D01*
X88460057Y-89984230D01*
X88460057Y-90834229D01*
X88710029Y-90834229D01*
X88710043Y-90834228D01*
X88812754Y-90823735D01*
X88979176Y-90768588D01*
X88979181Y-90768586D01*
X89128402Y-90676545D01*
X89252372Y-90552575D01*
X89344413Y-90403354D01*
X89344415Y-90403349D01*
X89399562Y-90236927D01*
X89399563Y-90236920D01*
X89410056Y-90134216D01*
X89410057Y-90134203D01*
X89410057Y-89984230D01*
X90260058Y-89984230D01*
X90260058Y-90134216D01*
X90270551Y-90236927D01*
X90325698Y-90403349D01*
X90325700Y-90403354D01*
X90417741Y-90552575D01*
X90541711Y-90676545D01*
X90690932Y-90768586D01*
X90690937Y-90768588D01*
X90857359Y-90823735D01*
X90857366Y-90823736D01*
X90960076Y-90834229D01*
X91210056Y-90834229D01*
X91210057Y-90834228D01*
X91210057Y-89984230D01*
X91710057Y-89984230D01*
X91710057Y-90834229D01*
X91960029Y-90834229D01*
X91960043Y-90834228D01*
X92062754Y-90823735D01*
X92229176Y-90768588D01*
X92229181Y-90768586D01*
X92378402Y-90676545D01*
X92502372Y-90552575D01*
X92594413Y-90403354D01*
X92594415Y-90403349D01*
X92649562Y-90236927D01*
X92649563Y-90236920D01*
X92660056Y-90134216D01*
X92660057Y-90134203D01*
X92660057Y-89984230D01*
X93760058Y-89984230D01*
X93760058Y-90134216D01*
X93770551Y-90236927D01*
X93825698Y-90403349D01*
X93825700Y-90403354D01*
X93917741Y-90552575D01*
X94041711Y-90676545D01*
X94190932Y-90768586D01*
X94190937Y-90768588D01*
X94357359Y-90823735D01*
X94357366Y-90823736D01*
X94460076Y-90834229D01*
X94710056Y-90834229D01*
X94710057Y-90834228D01*
X94710057Y-89984230D01*
X95210057Y-89984230D01*
X95210057Y-90834229D01*
X95460029Y-90834229D01*
X95460043Y-90834228D01*
X95562754Y-90823735D01*
X95729176Y-90768588D01*
X95729181Y-90768586D01*
X95878402Y-90676545D01*
X96002372Y-90552575D01*
X96094413Y-90403354D01*
X96094415Y-90403349D01*
X96149562Y-90236927D01*
X96149563Y-90236920D01*
X96160056Y-90134216D01*
X96160057Y-90134203D01*
X96160057Y-89984230D01*
X97260058Y-89984230D01*
X97260058Y-90134216D01*
X97270551Y-90236927D01*
X97325698Y-90403349D01*
X97325700Y-90403354D01*
X97417741Y-90552575D01*
X97541711Y-90676545D01*
X97690932Y-90768586D01*
X97690937Y-90768588D01*
X97857359Y-90823735D01*
X97857366Y-90823736D01*
X97960076Y-90834229D01*
X98210056Y-90834229D01*
X98210057Y-90834228D01*
X98210057Y-89984230D01*
X98710057Y-89984230D01*
X98710057Y-90834229D01*
X98960029Y-90834229D01*
X98960043Y-90834228D01*
X99062754Y-90823735D01*
X99229176Y-90768588D01*
X99229181Y-90768586D01*
X99378402Y-90676545D01*
X99502372Y-90552575D01*
X99594413Y-90403354D01*
X99594415Y-90403349D01*
X99649562Y-90236927D01*
X99649563Y-90236920D01*
X99660056Y-90134216D01*
X99660057Y-90134203D01*
X99660057Y-89984230D01*
X98710057Y-89984230D01*
X98210057Y-89984230D01*
X97260058Y-89984230D01*
X96160057Y-89984230D01*
X95210057Y-89984230D01*
X94710057Y-89984230D01*
X93760058Y-89984230D01*
X92660057Y-89984230D01*
X91710057Y-89984230D01*
X91210057Y-89984230D01*
X90260058Y-89984230D01*
X89410057Y-89984230D01*
X88460057Y-89984230D01*
X87960057Y-89984230D01*
X87960057Y-89608230D01*
X87979742Y-89541191D01*
X88032546Y-89495436D01*
X88084057Y-89484230D01*
X89410056Y-89484230D01*
X89410056Y-89334258D01*
X89410055Y-89334243D01*
X89399563Y-89231534D01*
X89376854Y-89163005D01*
X89374452Y-89093177D01*
X89410183Y-89033134D01*
X89472703Y-89001941D01*
X89494560Y-89000000D01*
X90175554Y-89000000D01*
X90242593Y-89019685D01*
G37*
%TD.AperFunction*%
%TD*%
%TA.AperFunction,Conductor*%
%TO.N,VDD*%
G36*
X180431789Y-110030935D02*
G01*
X180477544Y-110083739D01*
X180488750Y-110135250D01*
X180488750Y-112511250D01*
X179307659Y-112511250D01*
X179296141Y-112503185D01*
X179097909Y-112410748D01*
X179097900Y-112410744D01*
X178886644Y-112354139D01*
X178886634Y-112354137D01*
X178668751Y-112335075D01*
X178668749Y-112335075D01*
X178450865Y-112354137D01*
X178450855Y-112354139D01*
X178239599Y-112410744D01*
X178239590Y-112410748D01*
X178041364Y-112503182D01*
X178041362Y-112503183D01*
X178029841Y-112511250D01*
X176238750Y-112511250D01*
X176238750Y-110135250D01*
X176258435Y-110068211D01*
X176311239Y-110022456D01*
X176362750Y-110011250D01*
X180364750Y-110011250D01*
X180431789Y-110030935D01*
G37*
%TD.AperFunction*%
%TD*%
%TA.AperFunction,Conductor*%
%TO.N,+3.3V*%
G36*
X93500000Y-124000000D02*
G01*
X102000000Y-124000000D01*
X102000000Y-123500000D01*
X126876000Y-123500000D01*
X126943039Y-123519685D01*
X126988794Y-123572489D01*
X127000000Y-123624000D01*
X127000000Y-130700000D01*
X121000000Y-130700000D01*
X121000000Y-133000000D01*
X87965529Y-133000000D01*
X87898490Y-132980315D01*
X87852735Y-132927511D01*
X87842791Y-132858353D01*
X87859990Y-132810903D01*
X87944356Y-132674124D01*
X87944358Y-132674119D01*
X87999505Y-132507697D01*
X87999506Y-132507690D01*
X88009999Y-132404986D01*
X88010000Y-132404973D01*
X88010000Y-132255000D01*
X86684000Y-132255000D01*
X86616961Y-132235315D01*
X86571206Y-132182511D01*
X86560000Y-132131000D01*
X86560000Y-130905000D01*
X87060000Y-130905000D01*
X87060000Y-131755000D01*
X88009999Y-131755000D01*
X88009999Y-131605028D01*
X88009998Y-131605013D01*
X87999505Y-131502302D01*
X87944358Y-131335880D01*
X87944356Y-131335875D01*
X87852315Y-131186654D01*
X87728345Y-131062684D01*
X87579124Y-130970643D01*
X87579119Y-130970641D01*
X87412697Y-130915494D01*
X87412690Y-130915493D01*
X87309986Y-130905000D01*
X87060000Y-130905000D01*
X86560000Y-130905000D01*
X86310029Y-130905000D01*
X86310012Y-130905001D01*
X86207301Y-130915494D01*
X86163003Y-130930173D01*
X86093175Y-130932575D01*
X86033133Y-130896843D01*
X86001941Y-130834322D01*
X86000000Y-130812467D01*
X86000000Y-127000000D01*
X122394551Y-127000000D01*
X122414317Y-127251151D01*
X122473126Y-127496110D01*
X122569533Y-127728859D01*
X122701160Y-127943653D01*
X122701161Y-127943656D01*
X122701164Y-127943659D01*
X122864776Y-128135224D01*
X123013066Y-128261875D01*
X123056343Y-128298838D01*
X123056346Y-128298839D01*
X123271140Y-128430466D01*
X123503889Y-128526873D01*
X123748852Y-128585683D01*
X123904950Y-128597968D01*
X123937116Y-128600500D01*
X123937118Y-128600500D01*
X124062884Y-128600500D01*
X124092518Y-128598167D01*
X124251148Y-128585683D01*
X124496111Y-128526873D01*
X124728859Y-128430466D01*
X124943659Y-128298836D01*
X125135224Y-128135224D01*
X125298836Y-127943659D01*
X125430466Y-127728859D01*
X125526873Y-127496111D01*
X125585683Y-127251148D01*
X125605449Y-127000000D01*
X125585683Y-126748852D01*
X125526873Y-126503889D01*
X125430466Y-126271141D01*
X125430466Y-126271140D01*
X125298839Y-126056346D01*
X125298838Y-126056343D01*
X125261875Y-126013066D01*
X125135224Y-125864776D01*
X125008571Y-125756604D01*
X124943656Y-125701161D01*
X124943653Y-125701160D01*
X124728859Y-125569533D01*
X124496110Y-125473126D01*
X124251150Y-125414317D01*
X124062884Y-125399500D01*
X124062882Y-125399500D01*
X123937118Y-125399500D01*
X123937116Y-125399500D01*
X123748849Y-125414317D01*
X123503889Y-125473126D01*
X123271140Y-125569533D01*
X123056346Y-125701160D01*
X123056343Y-125701161D01*
X122864776Y-125864776D01*
X122701161Y-126056343D01*
X122701160Y-126056346D01*
X122569533Y-126271140D01*
X122473126Y-126503889D01*
X122414317Y-126748848D01*
X122394551Y-127000000D01*
X86000000Y-127000000D01*
X86000000Y-123624000D01*
X86019685Y-123556961D01*
X86072489Y-123511206D01*
X86124000Y-123500000D01*
X93500000Y-123500000D01*
X93500000Y-124000000D01*
G37*
%TD.AperFunction*%
%TD*%
%TA.AperFunction,Conductor*%
%TO.N,+5V*%
G36*
X128443039Y-98019685D02*
G01*
X128488794Y-98072489D01*
X128500000Y-98124000D01*
X128500000Y-114876000D01*
X128480315Y-114943039D01*
X128427511Y-114988794D01*
X128376000Y-115000000D01*
X123124000Y-115000000D01*
X123056961Y-114980315D01*
X123011206Y-114927511D01*
X123000000Y-114876000D01*
X123000000Y-112564850D01*
X125400001Y-112564850D01*
X125400001Y-113439836D01*
X125410494Y-113542546D01*
X125410494Y-113542548D01*
X125465640Y-113708969D01*
X125465645Y-113708980D01*
X125557680Y-113858190D01*
X125557683Y-113858194D01*
X125681655Y-113982166D01*
X125681659Y-113982169D01*
X125830869Y-114074204D01*
X125830880Y-114074209D01*
X125997302Y-114129355D01*
X126100019Y-114139849D01*
X126349999Y-114139849D01*
X126350000Y-114139848D01*
X126350000Y-112564850D01*
X126850000Y-112564850D01*
X126850000Y-114139849D01*
X127099972Y-114139849D01*
X127099986Y-114139848D01*
X127202696Y-114129355D01*
X127202698Y-114129355D01*
X127369119Y-114074209D01*
X127369130Y-114074204D01*
X127518340Y-113982169D01*
X127518344Y-113982166D01*
X127642316Y-113858194D01*
X127642319Y-113858190D01*
X127734354Y-113708980D01*
X127734359Y-113708969D01*
X127789505Y-113542547D01*
X127799999Y-113439836D01*
X127800000Y-113439823D01*
X127800000Y-112564850D01*
X126850000Y-112564850D01*
X126350000Y-112564850D01*
X125400001Y-112564850D01*
X123000000Y-112564850D01*
X123000000Y-112064850D01*
X125400000Y-112064850D01*
X126350000Y-112064850D01*
X126350000Y-110489850D01*
X126850000Y-110489850D01*
X126850000Y-112064850D01*
X127799999Y-112064850D01*
X127799999Y-111189878D01*
X127799998Y-111189863D01*
X127789505Y-111087153D01*
X127789505Y-111087151D01*
X127734359Y-110920730D01*
X127734354Y-110920719D01*
X127642319Y-110771509D01*
X127642316Y-110771505D01*
X127518344Y-110647533D01*
X127518340Y-110647530D01*
X127369130Y-110555495D01*
X127369119Y-110555490D01*
X127202697Y-110500344D01*
X127099986Y-110489850D01*
X126850000Y-110489850D01*
X126350000Y-110489850D01*
X126100029Y-110489850D01*
X126100012Y-110489851D01*
X125997303Y-110500344D01*
X125997301Y-110500344D01*
X125830880Y-110555490D01*
X125830869Y-110555495D01*
X125681659Y-110647530D01*
X125681655Y-110647533D01*
X125557683Y-110771505D01*
X125557680Y-110771509D01*
X125465645Y-110920719D01*
X125465640Y-110920730D01*
X125410494Y-111087152D01*
X125400000Y-111189863D01*
X125400000Y-112064850D01*
X123000000Y-112064850D01*
X123000000Y-103000000D01*
X123000000Y-98000000D01*
X127500000Y-98000000D01*
X128376000Y-98000000D01*
X128443039Y-98019685D01*
G37*
%TD.AperFunction*%
%TD*%
%TA.AperFunction,Conductor*%
%TO.N,VCC*%
G36*
X168442965Y-106769725D02*
G01*
X168488758Y-106822496D01*
X168500000Y-106874088D01*
X168500000Y-112532291D01*
X168480315Y-112599330D01*
X168463681Y-112619972D01*
X168450673Y-112632979D01*
X168450667Y-112632987D01*
X168367005Y-112774453D01*
X168367004Y-112774456D01*
X168321152Y-112932276D01*
X168321151Y-112932282D01*
X168318250Y-112969154D01*
X168318250Y-113400546D01*
X168321151Y-113437417D01*
X168321152Y-113437423D01*
X168367004Y-113595243D01*
X168367005Y-113595246D01*
X168367006Y-113595248D01*
X168401677Y-113653874D01*
X168450667Y-113736712D01*
X168455452Y-113742881D01*
X168453006Y-113744777D01*
X168479607Y-113793492D01*
X168474623Y-113863184D01*
X168453819Y-113895553D01*
X168455452Y-113896819D01*
X168450667Y-113902987D01*
X168367005Y-114044453D01*
X168367004Y-114044456D01*
X168321152Y-114202276D01*
X168321151Y-114202282D01*
X168318250Y-114239154D01*
X168318250Y-114670546D01*
X168321151Y-114707417D01*
X168321152Y-114707423D01*
X168367004Y-114865243D01*
X168367005Y-114865246D01*
X168367006Y-114865248D01*
X168388604Y-114901769D01*
X168393608Y-114910229D01*
X168410791Y-114977953D01*
X168388631Y-115044215D01*
X168334165Y-115087979D01*
X168286876Y-115097350D01*
X167593250Y-115097350D01*
X167526211Y-115077665D01*
X167480456Y-115024861D01*
X167469250Y-114973350D01*
X167469249Y-114689849D01*
X167469248Y-114689830D01*
X167458749Y-114587053D01*
X167458748Y-114587050D01*
X167448700Y-114556728D01*
X167403564Y-114420516D01*
X167311462Y-114271194D01*
X167217445Y-114177177D01*
X167183960Y-114115854D01*
X167188944Y-114046162D01*
X167217445Y-114001814D01*
X167311067Y-113908192D01*
X167403106Y-113758974D01*
X167403108Y-113758969D01*
X167458255Y-113592547D01*
X167458256Y-113592540D01*
X167468749Y-113489836D01*
X167468750Y-113489823D01*
X167468750Y-113339850D01*
X165082612Y-113339850D01*
X165015573Y-113320165D01*
X164994931Y-113303531D01*
X164993750Y-113302350D01*
X162543751Y-113302350D01*
X162543751Y-113439836D01*
X162554244Y-113542547D01*
X162609391Y-113708969D01*
X162609393Y-113708974D01*
X162701434Y-113858195D01*
X162825405Y-113982166D01*
X162825409Y-113982169D01*
X162828406Y-113984018D01*
X162830029Y-113985822D01*
X162831073Y-113986648D01*
X162830931Y-113986826D01*
X162875131Y-114035966D01*
X162886352Y-114104929D01*
X162858509Y-114169011D01*
X162828411Y-114195091D01*
X162825099Y-114197133D01*
X162825093Y-114197138D01*
X162701039Y-114321192D01*
X162608937Y-114470513D01*
X162608936Y-114470516D01*
X162553751Y-114637053D01*
X162553751Y-114637054D01*
X162553750Y-114637054D01*
X162543250Y-114739833D01*
X162543250Y-115514851D01*
X162543251Y-115514869D01*
X162553750Y-115617646D01*
X162553751Y-115617649D01*
X162608935Y-115784181D01*
X162608937Y-115784186D01*
X162643819Y-115840738D01*
X162701038Y-115933506D01*
X162825094Y-116057562D01*
X162926887Y-116120348D01*
X162938494Y-116127507D01*
X162985218Y-116179455D01*
X162996441Y-116248418D01*
X162980785Y-116295045D01*
X162941570Y-116362968D01*
X162941568Y-116362972D01*
X162883077Y-116542990D01*
X162883076Y-116542994D01*
X162863290Y-116731250D01*
X162876007Y-116852250D01*
X162878324Y-116874289D01*
X162865754Y-116943018D01*
X162818022Y-116994042D01*
X162755003Y-117011250D01*
X159740250Y-117011250D01*
X159673211Y-116991565D01*
X159627456Y-116938761D01*
X159616250Y-116887250D01*
X159616250Y-113542814D01*
X159617978Y-113527163D01*
X159617696Y-113527137D01*
X159618430Y-113519374D01*
X159616250Y-113449990D01*
X159616250Y-113420380D01*
X159616250Y-113420374D01*
X159615376Y-113413457D01*
X159614919Y-113407642D01*
X159614428Y-113392018D01*
X159613451Y-113360907D01*
X159607834Y-113341577D01*
X159603888Y-113322518D01*
X159601367Y-113302561D01*
X159601366Y-113302559D01*
X159601366Y-113302557D01*
X159584153Y-113259084D01*
X159582264Y-113253563D01*
X159569217Y-113208657D01*
X159558975Y-113191339D01*
X159550412Y-113173861D01*
X159543003Y-113155147D01*
X159543003Y-113155146D01*
X159515521Y-113117322D01*
X159512317Y-113112446D01*
X159488513Y-113072194D01*
X159488511Y-113072192D01*
X159488509Y-113072189D01*
X159474281Y-113057962D01*
X159461646Y-113043170D01*
X159454831Y-113033790D01*
X159431352Y-112967986D01*
X159447177Y-112899932D01*
X159497282Y-112851237D01*
X159504675Y-112847644D01*
X159606407Y-112802350D01*
X162543750Y-112802350D01*
X163518750Y-112802350D01*
X163518750Y-111964850D01*
X164018750Y-111964850D01*
X164018750Y-112802350D01*
X164979888Y-112802350D01*
X165046927Y-112822035D01*
X165067569Y-112838669D01*
X165068750Y-112839850D01*
X166018750Y-112839850D01*
X166018750Y-111989850D01*
X166518750Y-111989850D01*
X166518750Y-112839850D01*
X167468749Y-112839850D01*
X167468749Y-112689878D01*
X167468748Y-112689863D01*
X167458255Y-112587152D01*
X167403108Y-112420730D01*
X167403106Y-112420725D01*
X167311065Y-112271504D01*
X167187095Y-112147534D01*
X167037874Y-112055493D01*
X167037869Y-112055491D01*
X166871447Y-112000344D01*
X166871440Y-112000343D01*
X166768736Y-111989850D01*
X166518750Y-111989850D01*
X166018750Y-111989850D01*
X165768779Y-111989850D01*
X165768762Y-111989851D01*
X165666052Y-112000344D01*
X165499630Y-112055491D01*
X165499625Y-112055493D01*
X165350404Y-112147534D01*
X165226433Y-112271505D01*
X165226430Y-112271509D01*
X165144286Y-112404685D01*
X165092338Y-112451410D01*
X165023376Y-112462631D01*
X164959294Y-112434788D01*
X164933305Y-112401007D01*
X164931899Y-112401875D01*
X164836065Y-112246504D01*
X164712095Y-112122534D01*
X164562874Y-112030493D01*
X164562869Y-112030491D01*
X164396447Y-111975344D01*
X164396440Y-111975343D01*
X164293736Y-111964850D01*
X164018750Y-111964850D01*
X163518750Y-111964850D01*
X163243779Y-111964850D01*
X163243762Y-111964851D01*
X163141052Y-111975344D01*
X162974630Y-112030491D01*
X162974625Y-112030493D01*
X162825404Y-112122534D01*
X162701434Y-112246504D01*
X162609393Y-112395725D01*
X162609391Y-112395730D01*
X162554244Y-112562152D01*
X162554243Y-112562159D01*
X162543750Y-112664863D01*
X162543750Y-112802350D01*
X159606407Y-112802350D01*
X159670080Y-112774001D01*
X159823221Y-112662738D01*
X159949883Y-112522066D01*
X160044529Y-112358134D01*
X160103024Y-112178106D01*
X160122810Y-111989850D01*
X160103024Y-111801594D01*
X160044529Y-111621566D01*
X159949883Y-111457634D01*
X159823221Y-111316962D01*
X159816422Y-111312022D01*
X159670084Y-111205701D01*
X159670079Y-111205698D01*
X159497157Y-111128707D01*
X159497152Y-111128705D01*
X159349045Y-111097225D01*
X159311996Y-111089350D01*
X159122704Y-111089350D01*
X159090247Y-111096248D01*
X158937547Y-111128705D01*
X158937542Y-111128707D01*
X158764620Y-111205698D01*
X158764616Y-111205701D01*
X158720771Y-111237556D01*
X158654965Y-111261035D01*
X158586911Y-111245209D01*
X158542349Y-111202334D01*
X158461462Y-111071194D01*
X158337406Y-110947138D01*
X158244638Y-110889919D01*
X158188086Y-110855037D01*
X158188081Y-110855035D01*
X158186612Y-110854548D01*
X158021547Y-110799851D01*
X158021545Y-110799850D01*
X157918760Y-110789350D01*
X157118748Y-110789350D01*
X157118730Y-110789351D01*
X157015953Y-110799850D01*
X157015950Y-110799851D01*
X156849418Y-110855035D01*
X156849413Y-110855037D01*
X156700092Y-110947139D01*
X156606431Y-111040801D01*
X156545108Y-111074286D01*
X156475416Y-111069302D01*
X156431069Y-111040801D01*
X156337407Y-110947139D01*
X156337406Y-110947138D01*
X156244638Y-110889919D01*
X156188086Y-110855037D01*
X156188081Y-110855035D01*
X156186612Y-110854548D01*
X156021547Y-110799851D01*
X156021545Y-110799850D01*
X155918760Y-110789350D01*
X155118748Y-110789350D01*
X155118730Y-110789351D01*
X155015953Y-110799850D01*
X155015950Y-110799851D01*
X154849418Y-110855035D01*
X154849413Y-110855037D01*
X154700092Y-110947139D01*
X154576039Y-111071192D01*
X154540564Y-111128707D01*
X154495152Y-111202333D01*
X154487444Y-111214829D01*
X154435496Y-111261553D01*
X154366533Y-111272776D01*
X154302451Y-111244932D01*
X154265723Y-111193065D01*
X154237547Y-111117521D01*
X154237543Y-111117514D01*
X154177543Y-111037366D01*
X154151296Y-111002304D01*
X154066217Y-110938614D01*
X154024348Y-110882682D01*
X154019364Y-110812990D01*
X154052849Y-110751667D01*
X154114173Y-110718183D01*
X154140529Y-110715349D01*
X154193758Y-110715349D01*
X154193766Y-110715348D01*
X154193769Y-110715348D01*
X154271212Y-110707437D01*
X154296547Y-110704849D01*
X154463084Y-110649664D01*
X154612406Y-110557562D01*
X154736462Y-110433506D01*
X154828564Y-110284184D01*
X154855682Y-110202344D01*
X154895455Y-110144901D01*
X154959970Y-110118078D01*
X154973388Y-110117350D01*
X155015403Y-110117350D01*
X155082442Y-110137035D01*
X155107549Y-110158373D01*
X155111479Y-110162738D01*
X155111482Y-110162741D01*
X155111485Y-110162743D01*
X155264615Y-110273998D01*
X155264620Y-110274001D01*
X155437542Y-110350992D01*
X155437547Y-110350994D01*
X155622704Y-110390350D01*
X155622705Y-110390350D01*
X155811994Y-110390350D01*
X155811996Y-110390350D01*
X155997153Y-110350994D01*
X156170080Y-110274001D01*
X156323221Y-110162738D01*
X156449883Y-110022066D01*
X156544529Y-109858134D01*
X156603024Y-109678106D01*
X156622810Y-109489850D01*
X156603024Y-109301594D01*
X156544529Y-109121566D01*
X156449883Y-108957634D01*
X156323221Y-108816962D01*
X156323220Y-108816961D01*
X156170084Y-108705701D01*
X156170079Y-108705698D01*
X155997157Y-108628707D01*
X155997152Y-108628705D01*
X155844378Y-108596233D01*
X155811996Y-108589350D01*
X155622704Y-108589350D01*
X155590322Y-108596233D01*
X155437547Y-108628705D01*
X155437542Y-108628707D01*
X155264620Y-108705698D01*
X155264615Y-108705701D01*
X155111485Y-108816956D01*
X155111482Y-108816958D01*
X155109525Y-108819131D01*
X155107550Y-108821324D01*
X155048064Y-108857971D01*
X155015403Y-108862350D01*
X154973388Y-108862350D01*
X154906349Y-108842665D01*
X154860594Y-108789861D01*
X154855682Y-108777354D01*
X154840782Y-108732388D01*
X154828564Y-108695516D01*
X154736462Y-108546194D01*
X154612406Y-108422138D01*
X154463084Y-108330036D01*
X154296547Y-108274851D01*
X154296545Y-108274850D01*
X154193760Y-108264350D01*
X153418748Y-108264350D01*
X153418730Y-108264351D01*
X153315953Y-108274850D01*
X153315950Y-108274851D01*
X153149418Y-108330035D01*
X153149413Y-108330037D01*
X153000092Y-108422139D01*
X152876038Y-108546193D01*
X152876033Y-108546199D01*
X152873991Y-108549511D01*
X152871997Y-108551303D01*
X152871557Y-108551861D01*
X152871461Y-108551785D01*
X152822041Y-108596233D01*
X152753078Y-108607452D01*
X152688997Y-108579605D01*
X152662918Y-108549506D01*
X152661069Y-108546509D01*
X152661066Y-108546505D01*
X152537095Y-108422534D01*
X152387874Y-108330493D01*
X152387869Y-108330491D01*
X152221447Y-108275344D01*
X152221440Y-108275343D01*
X152118736Y-108264850D01*
X151981250Y-108264850D01*
X151981250Y-109615850D01*
X151961565Y-109682889D01*
X151908761Y-109728644D01*
X151857250Y-109739850D01*
X150643751Y-109739850D01*
X150643751Y-110014836D01*
X150654244Y-110117547D01*
X150709391Y-110283969D01*
X150709393Y-110283974D01*
X150801434Y-110433195D01*
X150925404Y-110557165D01*
X151074625Y-110649206D01*
X151074632Y-110649209D01*
X151081117Y-110651358D01*
X151138562Y-110691130D01*
X151165386Y-110755646D01*
X151153071Y-110824421D01*
X151105529Y-110875622D01*
X151085448Y-110885246D01*
X151001661Y-110916496D01*
X151001656Y-110916499D01*
X150886562Y-111002659D01*
X150886559Y-111002662D01*
X150800399Y-111117756D01*
X150800395Y-111117763D01*
X150750153Y-111252470D01*
X150750151Y-111252477D01*
X150743750Y-111312005D01*
X150743750Y-111889850D01*
X152393750Y-111889850D01*
X152393750Y-111312022D01*
X152393749Y-111312005D01*
X152387348Y-111252477D01*
X152387346Y-111252470D01*
X152337104Y-111117763D01*
X152337100Y-111117756D01*
X152250940Y-111002662D01*
X152250937Y-111002659D01*
X152151031Y-110927869D01*
X152109160Y-110871935D01*
X152104176Y-110802244D01*
X152137662Y-110740921D01*
X152198985Y-110707437D01*
X152212743Y-110705245D01*
X152221446Y-110704356D01*
X152387869Y-110649208D01*
X152387874Y-110649206D01*
X152537095Y-110557165D01*
X152661068Y-110433192D01*
X152662915Y-110430198D01*
X152664719Y-110428574D01*
X152665548Y-110427527D01*
X152665726Y-110427668D01*
X152714860Y-110383471D01*
X152783823Y-110372246D01*
X152847906Y-110400086D01*
X152873993Y-110430191D01*
X152876038Y-110433506D01*
X152876039Y-110433507D01*
X153000094Y-110557562D01*
X153122735Y-110633207D01*
X153169460Y-110685155D01*
X153180683Y-110754117D01*
X153152840Y-110818200D01*
X153094771Y-110857056D01*
X153070895Y-110862035D01*
X153036269Y-110865757D01*
X152901421Y-110916052D01*
X152901414Y-110916056D01*
X152786205Y-111002302D01*
X152786202Y-111002305D01*
X152699956Y-111117514D01*
X152699952Y-111117521D01*
X152649658Y-111252367D01*
X152643251Y-111311966D01*
X152643250Y-111311985D01*
X152643250Y-112967720D01*
X152643251Y-112967726D01*
X152649658Y-113027333D01*
X152699952Y-113162178D01*
X152699956Y-113162185D01*
X152786202Y-113277394D01*
X152786205Y-113277397D01*
X152864600Y-113336084D01*
X152906471Y-113392018D01*
X152911455Y-113461709D01*
X152877969Y-113523032D01*
X152816646Y-113556516D01*
X152790289Y-113559350D01*
X152246376Y-113559350D01*
X152179337Y-113539665D01*
X152133582Y-113486861D01*
X152123638Y-113417703D01*
X152152663Y-113354147D01*
X152172065Y-113336083D01*
X152250941Y-113277036D01*
X152337100Y-113161943D01*
X152337104Y-113161936D01*
X152387346Y-113027229D01*
X152387348Y-113027222D01*
X152393749Y-112967694D01*
X152393750Y-112967677D01*
X152393750Y-112389850D01*
X150743750Y-112389850D01*
X150743750Y-112967694D01*
X150750151Y-113027222D01*
X150750153Y-113027229D01*
X150800395Y-113161936D01*
X150800399Y-113161943D01*
X150886559Y-113277037D01*
X150886562Y-113277040D01*
X151001656Y-113363200D01*
X151001665Y-113363205D01*
X151029002Y-113373401D01*
X151084936Y-113415271D01*
X151109354Y-113480735D01*
X151094503Y-113549009D01*
X151045098Y-113598414D01*
X151029004Y-113605765D01*
X151001420Y-113616053D01*
X151001414Y-113616056D01*
X150886205Y-113702302D01*
X150886202Y-113702305D01*
X150799956Y-113817514D01*
X150799952Y-113817521D01*
X150749658Y-113952367D01*
X150743251Y-114011966D01*
X150743250Y-114011985D01*
X150743250Y-114497480D01*
X150731791Y-114549544D01*
X150728467Y-114556728D01*
X150687250Y-114743980D01*
X150687250Y-116887250D01*
X150667565Y-116954289D01*
X150614761Y-117000044D01*
X150563250Y-117011250D01*
X147542076Y-117011250D01*
X147475037Y-116991565D01*
X147429282Y-116938761D01*
X147419338Y-116869603D01*
X147438267Y-116819428D01*
X147504234Y-116718456D01*
X147597432Y-116505985D01*
X147654388Y-116281068D01*
X147673548Y-116049855D01*
X147673548Y-116049844D01*
X147654388Y-115818631D01*
X147597432Y-115593714D01*
X147504233Y-115381240D01*
X147419936Y-115252214D01*
X146713199Y-115958950D01*
X146712423Y-115948585D01*
X146662863Y-115822309D01*
X146578285Y-115716251D01*
X146466203Y-115639834D01*
X146358450Y-115606597D01*
X147067549Y-114897498D01*
X147067549Y-114897497D01*
X147037099Y-114873799D01*
X146833052Y-114763373D01*
X146833043Y-114763370D01*
X146613610Y-114688038D01*
X146384757Y-114649850D01*
X146152743Y-114649850D01*
X145923889Y-114688038D01*
X145704456Y-114763370D01*
X145704448Y-114763373D01*
X145500394Y-114873802D01*
X145469950Y-114897496D01*
X145469950Y-114897497D01*
X146180518Y-115608065D01*
X146134612Y-115614985D01*
X146012393Y-115673843D01*
X145912952Y-115766110D01*
X145845125Y-115883590D01*
X145827250Y-115961903D01*
X145117562Y-115252215D01*
X145033266Y-115381241D01*
X145033264Y-115381245D01*
X144940067Y-115593714D01*
X144883111Y-115818631D01*
X144863952Y-116049844D01*
X144863952Y-116049855D01*
X144883111Y-116281068D01*
X144940067Y-116505985D01*
X145033265Y-116718456D01*
X145099233Y-116819428D01*
X145119420Y-116886318D01*
X145100240Y-116953504D01*
X145047782Y-116999654D01*
X144995424Y-117011250D01*
X130123864Y-117011250D01*
X130056825Y-116991565D01*
X130011070Y-116938761D01*
X129999864Y-116887386D01*
X129999850Y-116874289D01*
X129996327Y-113664793D01*
X130015938Y-113597733D01*
X130068692Y-113551920D01*
X130137839Y-113541901D01*
X130201427Y-113570856D01*
X130238033Y-113625655D01*
X130265639Y-113708967D01*
X130265645Y-113708980D01*
X130357680Y-113858190D01*
X130357683Y-113858194D01*
X130481655Y-113982166D01*
X130481659Y-113982169D01*
X130630869Y-114074204D01*
X130630880Y-114074209D01*
X130797302Y-114129355D01*
X130900019Y-114139849D01*
X131149999Y-114139849D01*
X131150000Y-114139848D01*
X131150000Y-112564850D01*
X131650000Y-112564850D01*
X131650000Y-114139849D01*
X131899972Y-114139849D01*
X131899986Y-114139848D01*
X132002696Y-114129355D01*
X132002698Y-114129355D01*
X132169119Y-114074209D01*
X132169130Y-114074204D01*
X132318340Y-113982169D01*
X132318344Y-113982166D01*
X132442316Y-113858194D01*
X132442319Y-113858190D01*
X132534354Y-113708980D01*
X132534359Y-113708969D01*
X132589505Y-113542547D01*
X132599999Y-113439836D01*
X132600000Y-113439823D01*
X132600000Y-112564850D01*
X131650000Y-112564850D01*
X131150000Y-112564850D01*
X131150000Y-110489850D01*
X131650000Y-110489850D01*
X131650000Y-112064850D01*
X132599999Y-112064850D01*
X132599999Y-111189878D01*
X132599998Y-111189863D01*
X132589505Y-111087153D01*
X132589505Y-111087151D01*
X132534359Y-110920730D01*
X132534354Y-110920719D01*
X132442319Y-110771509D01*
X132442316Y-110771505D01*
X132318344Y-110647533D01*
X132318340Y-110647530D01*
X132169130Y-110555495D01*
X132169119Y-110555490D01*
X132002697Y-110500344D01*
X131899986Y-110489850D01*
X131650000Y-110489850D01*
X131150000Y-110489850D01*
X130900029Y-110489850D01*
X130900012Y-110489851D01*
X130797303Y-110500344D01*
X130797301Y-110500344D01*
X130630880Y-110555490D01*
X130630869Y-110555495D01*
X130481659Y-110647530D01*
X130481655Y-110647533D01*
X130357683Y-110771505D01*
X130357680Y-110771509D01*
X130265645Y-110920719D01*
X130265641Y-110920728D01*
X130235079Y-111012958D01*
X130195306Y-111070402D01*
X130130790Y-111097225D01*
X130062014Y-111084910D01*
X130010814Y-111037366D01*
X129993373Y-110974092D01*
X129991902Y-109632974D01*
X148079176Y-109632974D01*
X148141361Y-109676516D01*
X148141363Y-109676517D01*
X148339590Y-109768951D01*
X148339599Y-109768955D01*
X148550855Y-109825560D01*
X148550865Y-109825562D01*
X148768749Y-109844625D01*
X148768751Y-109844625D01*
X148986634Y-109825562D01*
X148986644Y-109825560D01*
X149197900Y-109768955D01*
X149197909Y-109768951D01*
X149396137Y-109676516D01*
X149458322Y-109632974D01*
X148768751Y-108943403D01*
X148768750Y-108943403D01*
X148079176Y-109632974D01*
X129991902Y-109632974D01*
X129990757Y-108589850D01*
X147513975Y-108589850D01*
X147533037Y-108807734D01*
X147533039Y-108807744D01*
X147589644Y-109019000D01*
X147589648Y-109019009D01*
X147682085Y-109217241D01*
X147725623Y-109279421D01*
X147725625Y-109279422D01*
X148385895Y-108619152D01*
X148415122Y-108619152D01*
X148443797Y-108732388D01*
X148507686Y-108830177D01*
X148599865Y-108901922D01*
X148710345Y-108939850D01*
X148797755Y-108939850D01*
X148883966Y-108925464D01*
X148986697Y-108869869D01*
X149065810Y-108783929D01*
X149112732Y-108676958D01*
X149119950Y-108589850D01*
X149122303Y-108589850D01*
X149811874Y-109279422D01*
X149839582Y-109239850D01*
X150643750Y-109239850D01*
X151481250Y-109239850D01*
X151481250Y-108264850D01*
X151343777Y-108264850D01*
X151343762Y-108264851D01*
X151241052Y-108275344D01*
X151074630Y-108330491D01*
X151074625Y-108330493D01*
X150925404Y-108422534D01*
X150801434Y-108546504D01*
X150709393Y-108695725D01*
X150709391Y-108695730D01*
X150654244Y-108862152D01*
X150654243Y-108862159D01*
X150643750Y-108964863D01*
X150643750Y-109239850D01*
X149839582Y-109239850D01*
X149855416Y-109217237D01*
X149947851Y-109019009D01*
X149947855Y-109019000D01*
X150004460Y-108807744D01*
X150004462Y-108807734D01*
X150023525Y-108589850D01*
X150023525Y-108589849D01*
X150004462Y-108371965D01*
X150004460Y-108371955D01*
X149947855Y-108160699D01*
X149947851Y-108160690D01*
X149855418Y-107962465D01*
X149811873Y-107900278D01*
X149122303Y-108589849D01*
X149122303Y-108589850D01*
X149119950Y-108589850D01*
X149122378Y-108560548D01*
X149093703Y-108447312D01*
X149029814Y-108349523D01*
X148937635Y-108277778D01*
X148827155Y-108239850D01*
X148739745Y-108239850D01*
X148653534Y-108254236D01*
X148550803Y-108309831D01*
X148471690Y-108395771D01*
X148424768Y-108502742D01*
X148415122Y-108619152D01*
X148385895Y-108619152D01*
X148415197Y-108589850D01*
X148415197Y-108589849D01*
X147725625Y-107900277D01*
X147725625Y-107900278D01*
X147682083Y-107962462D01*
X147682082Y-107962464D01*
X147589648Y-108160690D01*
X147589644Y-108160699D01*
X147533039Y-108371955D01*
X147533037Y-108371965D01*
X147513975Y-108589849D01*
X147513975Y-108589850D01*
X129990757Y-108589850D01*
X129989612Y-107546725D01*
X148079177Y-107546725D01*
X148768750Y-108236297D01*
X148768751Y-108236297D01*
X149458322Y-107546725D01*
X149458321Y-107546723D01*
X149396141Y-107503185D01*
X149197909Y-107410748D01*
X149197900Y-107410744D01*
X148986644Y-107354139D01*
X148986634Y-107354137D01*
X148768751Y-107335075D01*
X148768749Y-107335075D01*
X148550865Y-107354137D01*
X148550855Y-107354139D01*
X148339599Y-107410744D01*
X148339590Y-107410748D01*
X148141364Y-107503182D01*
X148141362Y-107503183D01*
X148079178Y-107546725D01*
X148079177Y-107546725D01*
X129989612Y-107546725D01*
X129988886Y-106885385D01*
X130008497Y-106818325D01*
X130061251Y-106772512D01*
X130112886Y-106761250D01*
X152738750Y-106761250D01*
X168375912Y-106750088D01*
X168442965Y-106769725D01*
G37*
%TD.AperFunction*%
%TD*%
%TA.AperFunction,Conductor*%
%TO.N,-12V*%
G36*
X60943039Y-54019685D02*
G01*
X60988794Y-54072489D01*
X61000000Y-54124000D01*
X61000000Y-58000000D01*
X61212500Y-58000000D01*
X61212500Y-62224999D01*
X61349972Y-62224999D01*
X61349986Y-62224998D01*
X61452697Y-62214505D01*
X61619119Y-62159358D01*
X61619124Y-62159356D01*
X61768345Y-62067315D01*
X61788319Y-62047342D01*
X61849642Y-62013857D01*
X61919334Y-62018841D01*
X61975267Y-62060713D01*
X61999684Y-62126177D01*
X62000000Y-62135023D01*
X62000000Y-63476000D01*
X61980315Y-63543039D01*
X61927511Y-63588794D01*
X61876000Y-63600000D01*
X61475000Y-63600000D01*
X61475000Y-64625810D01*
X61422453Y-64589984D01*
X61292827Y-64550000D01*
X61191276Y-64550000D01*
X61090862Y-64565135D01*
X60975000Y-64620931D01*
X60975000Y-63600000D01*
X60277155Y-63600000D01*
X60217627Y-63606401D01*
X60217620Y-63606403D01*
X60082913Y-63656645D01*
X60082906Y-63656649D01*
X59967812Y-63742809D01*
X59967809Y-63742812D01*
X59881649Y-63857906D01*
X59881645Y-63857913D01*
X59831403Y-63992620D01*
X59831401Y-63992627D01*
X59825000Y-64052155D01*
X59825000Y-64750000D01*
X60849722Y-64750000D01*
X60801375Y-64833740D01*
X60771190Y-64965992D01*
X60781327Y-65101265D01*
X60830887Y-65227541D01*
X60848797Y-65250000D01*
X59825000Y-65250000D01*
X59825000Y-65876000D01*
X59805315Y-65943039D01*
X59752511Y-65988794D01*
X59701000Y-66000000D01*
X57300667Y-66000000D01*
X57233628Y-65980315D01*
X57187873Y-65927511D01*
X57176667Y-65876000D01*
X57176667Y-61250000D01*
X59875001Y-61250000D01*
X59875001Y-61524986D01*
X59885494Y-61627697D01*
X59940641Y-61794119D01*
X59940643Y-61794124D01*
X60032684Y-61943345D01*
X60156654Y-62067315D01*
X60305875Y-62159356D01*
X60305880Y-62159358D01*
X60472302Y-62214505D01*
X60472309Y-62214506D01*
X60575019Y-62224999D01*
X60712499Y-62224999D01*
X60712500Y-62224998D01*
X60712500Y-61250000D01*
X59875001Y-61250000D01*
X57176667Y-61250000D01*
X57176667Y-60750000D01*
X59875000Y-60750000D01*
X60712500Y-60750000D01*
X60712500Y-58750000D01*
X59875001Y-58750000D01*
X59875001Y-59024986D01*
X59885494Y-59127697D01*
X59940641Y-59294119D01*
X59940643Y-59294124D01*
X60032684Y-59443345D01*
X60156655Y-59567316D01*
X60156659Y-59567319D01*
X60281726Y-59644462D01*
X60328451Y-59696410D01*
X60339672Y-59765372D01*
X60311829Y-59829454D01*
X60281726Y-59855538D01*
X60156659Y-59932680D01*
X60156655Y-59932683D01*
X60032684Y-60056654D01*
X59940643Y-60205875D01*
X59940641Y-60205880D01*
X59885494Y-60372302D01*
X59885493Y-60372309D01*
X59875000Y-60475013D01*
X59875000Y-60750000D01*
X57176667Y-60750000D01*
X57176667Y-58250000D01*
X59875000Y-58250000D01*
X60712500Y-58250000D01*
X60712500Y-57490000D01*
X60709797Y-57487297D01*
X60651961Y-57470315D01*
X60606206Y-57417511D01*
X60595000Y-57366000D01*
X60595000Y-56225000D01*
X60045000Y-56225000D01*
X60045000Y-56865644D01*
X60047899Y-56902489D01*
X60047900Y-56902495D01*
X60093716Y-57060193D01*
X60093717Y-57060196D01*
X60177314Y-57201552D01*
X60177317Y-57201556D01*
X60201495Y-57225733D01*
X60234981Y-57287056D01*
X60229997Y-57356748D01*
X60188127Y-57412682D01*
X60178914Y-57418953D01*
X60156659Y-57432680D01*
X60156655Y-57432683D01*
X60032684Y-57556654D01*
X59940643Y-57705875D01*
X59940641Y-57705880D01*
X59885494Y-57872302D01*
X59885493Y-57872309D01*
X59875000Y-57975013D01*
X59875000Y-58250000D01*
X57176667Y-58250000D01*
X57176667Y-55725000D01*
X60045000Y-55725000D01*
X60595000Y-55725000D01*
X60595000Y-54502703D01*
X60592503Y-54502900D01*
X60434806Y-54548716D01*
X60434803Y-54548717D01*
X60293447Y-54632314D01*
X60293438Y-54632321D01*
X60177321Y-54748438D01*
X60177314Y-54748447D01*
X60093717Y-54889803D01*
X60093716Y-54889806D01*
X60047900Y-55047504D01*
X60047899Y-55047510D01*
X60045000Y-55084356D01*
X60045000Y-55725000D01*
X57176667Y-55725000D01*
X57176667Y-54124000D01*
X57196352Y-54056961D01*
X57249156Y-54011206D01*
X57300667Y-54000000D01*
X60876000Y-54000000D01*
X60943039Y-54019685D01*
G37*
%TD.AperFunction*%
%TD*%
%TA.AperFunction,Conductor*%
%TO.N,VDD*%
G36*
X172952028Y-112280935D02*
G01*
X172982558Y-112312621D01*
X172984207Y-112311343D01*
X172988990Y-112317510D01*
X173003219Y-112331738D01*
X173015859Y-112346537D01*
X173027684Y-112362814D01*
X173027686Y-112362815D01*
X173027687Y-112362817D01*
X173053716Y-112384350D01*
X173063707Y-112392615D01*
X173068018Y-112396537D01*
X173185130Y-112513649D01*
X173296905Y-112625424D01*
X173330390Y-112686747D01*
X173325406Y-112756439D01*
X173318953Y-112769952D01*
X173317004Y-112774457D01*
X173271152Y-112932276D01*
X173271151Y-112932282D01*
X173268250Y-112969154D01*
X173268250Y-113400546D01*
X173271151Y-113437417D01*
X173271152Y-113437423D01*
X173317004Y-113595243D01*
X173317004Y-113595244D01*
X173400667Y-113736712D01*
X173405452Y-113742881D01*
X173403119Y-113744690D01*
X173429960Y-113793845D01*
X173424976Y-113863537D01*
X173404220Y-113895871D01*
X173405847Y-113897133D01*
X173401063Y-113903299D01*
X173317468Y-114044651D01*
X173271649Y-114202363D01*
X173271454Y-114204848D01*
X173271455Y-114204850D01*
X176216045Y-114204850D01*
X176216045Y-114204848D01*
X176215850Y-114202363D01*
X176170031Y-114044651D01*
X176086435Y-113903297D01*
X176081650Y-113897128D01*
X176084116Y-113895214D01*
X176057552Y-113846626D01*
X176062499Y-113776932D01*
X176083606Y-113744082D01*
X176082051Y-113742876D01*
X176086827Y-113736718D01*
X176086831Y-113736715D01*
X176170494Y-113595248D01*
X176170494Y-113595246D01*
X176170496Y-113595244D01*
X176170495Y-113595243D01*
X176172063Y-113589850D01*
X177413975Y-113589850D01*
X177433037Y-113807734D01*
X177433039Y-113807744D01*
X177489644Y-114019000D01*
X177489648Y-114019009D01*
X177582085Y-114217241D01*
X177625623Y-114279421D01*
X177625625Y-114279422D01*
X178285895Y-113619152D01*
X178315122Y-113619152D01*
X178343797Y-113732388D01*
X178407686Y-113830177D01*
X178499865Y-113901922D01*
X178610345Y-113939850D01*
X178697755Y-113939850D01*
X178783966Y-113925464D01*
X178886697Y-113869869D01*
X178965810Y-113783929D01*
X179012732Y-113676958D01*
X179019950Y-113589850D01*
X179022303Y-113589850D01*
X179711874Y-114279422D01*
X179755416Y-114217237D01*
X179847851Y-114019009D01*
X179847855Y-114019000D01*
X179904460Y-113807744D01*
X179904462Y-113807734D01*
X179923525Y-113589850D01*
X179923525Y-113589849D01*
X179904462Y-113371965D01*
X179904460Y-113371955D01*
X179847855Y-113160699D01*
X179847851Y-113160690D01*
X179755418Y-112962465D01*
X179711873Y-112900278D01*
X179022303Y-113589849D01*
X179022303Y-113589850D01*
X179019950Y-113589850D01*
X179022378Y-113560548D01*
X178993703Y-113447312D01*
X178929814Y-113349523D01*
X178837635Y-113277778D01*
X178727155Y-113239850D01*
X178639745Y-113239850D01*
X178553534Y-113254236D01*
X178450803Y-113309831D01*
X178371690Y-113395771D01*
X178324768Y-113502742D01*
X178315122Y-113619152D01*
X178285895Y-113619152D01*
X178315197Y-113589850D01*
X178315197Y-113589849D01*
X177625625Y-112900277D01*
X177625625Y-112900278D01*
X177582083Y-112962462D01*
X177582082Y-112962464D01*
X177489648Y-113160690D01*
X177489644Y-113160699D01*
X177433039Y-113371955D01*
X177433037Y-113371965D01*
X177413975Y-113589849D01*
X177413975Y-113589850D01*
X176172063Y-113589850D01*
X176172063Y-113589849D01*
X176216348Y-113437419D01*
X176219250Y-113400544D01*
X176219250Y-112969156D01*
X176218723Y-112962465D01*
X176216348Y-112932282D01*
X176216347Y-112932276D01*
X176170495Y-112774456D01*
X176170494Y-112774453D01*
X176170494Y-112774452D01*
X176086831Y-112632985D01*
X176086829Y-112632983D01*
X176086826Y-112632979D01*
X175970620Y-112516773D01*
X175970614Y-112516768D01*
X175953358Y-112506563D01*
X175928701Y-112491981D01*
X175881019Y-112440914D01*
X175868515Y-112372172D01*
X175895160Y-112307583D01*
X175952495Y-112267652D01*
X175991823Y-112261250D01*
X176238750Y-112261250D01*
X176238750Y-112511250D01*
X178029841Y-112511250D01*
X177979178Y-112546725D01*
X177979177Y-112546725D01*
X178668750Y-113236297D01*
X178668751Y-113236297D01*
X179358322Y-112546725D01*
X179358321Y-112546723D01*
X179307659Y-112511250D01*
X180488750Y-112511250D01*
X180488750Y-116887250D01*
X180469065Y-116954289D01*
X180416261Y-117000044D01*
X180364750Y-117011250D01*
X178963836Y-117011250D01*
X178896797Y-116991565D01*
X178851042Y-116938761D01*
X178841098Y-116869603D01*
X178858297Y-116822153D01*
X178928106Y-116708974D01*
X178928108Y-116708969D01*
X178983255Y-116542547D01*
X178983256Y-116542540D01*
X178993749Y-116439836D01*
X178993750Y-116439823D01*
X178993750Y-116302350D01*
X176581212Y-116302350D01*
X176514173Y-116282665D01*
X176493531Y-116266031D01*
X176488750Y-116261250D01*
X176298520Y-116261250D01*
X176231481Y-116241565D01*
X176185726Y-116188761D01*
X176175782Y-116119603D01*
X176179443Y-116102656D01*
X176215850Y-115977338D01*
X176216045Y-115974851D01*
X176216045Y-115974850D01*
X173271455Y-115974850D01*
X173271454Y-115974851D01*
X173271649Y-115977338D01*
X173308057Y-116102656D01*
X173307857Y-116172525D01*
X173269914Y-116231195D01*
X173206276Y-116260038D01*
X173188980Y-116261250D01*
X171927531Y-116261250D01*
X171860492Y-116241565D01*
X171839850Y-116224931D01*
X171525069Y-115910150D01*
X171491584Y-115848827D01*
X171488750Y-115822469D01*
X171488750Y-115802350D01*
X176543750Y-115802350D01*
X177518750Y-115802350D01*
X177518750Y-114964850D01*
X177243779Y-114964850D01*
X177243762Y-114964851D01*
X177141052Y-114975344D01*
X176974630Y-115030491D01*
X176974625Y-115030493D01*
X176825404Y-115122534D01*
X176701434Y-115246504D01*
X176609393Y-115395725D01*
X176609391Y-115395730D01*
X176554244Y-115562152D01*
X176554243Y-115562159D01*
X176543750Y-115664863D01*
X176543750Y-115802350D01*
X171488750Y-115802350D01*
X171488750Y-115474848D01*
X173271454Y-115474848D01*
X173271455Y-115474850D01*
X174493750Y-115474850D01*
X174493750Y-114704850D01*
X174993750Y-114704850D01*
X174993750Y-115474850D01*
X176216045Y-115474850D01*
X176216045Y-115474848D01*
X176215850Y-115472363D01*
X176170031Y-115314651D01*
X176086435Y-115173297D01*
X176081650Y-115167128D01*
X176084002Y-115165303D01*
X176057195Y-115116255D01*
X176062152Y-115046562D01*
X176083215Y-115013786D01*
X176081650Y-115012572D01*
X176086435Y-115006402D01*
X176170031Y-114865048D01*
X176215850Y-114707336D01*
X176216045Y-114704851D01*
X176216045Y-114704850D01*
X174993750Y-114704850D01*
X174493750Y-114704850D01*
X173271455Y-114704850D01*
X173271454Y-114704851D01*
X173271649Y-114707336D01*
X173317468Y-114865048D01*
X173401064Y-115006402D01*
X173405850Y-115012572D01*
X173403503Y-115014392D01*
X173430314Y-115063492D01*
X173425330Y-115133184D01*
X173404291Y-115165919D01*
X173405850Y-115167128D01*
X173401064Y-115173297D01*
X173317468Y-115314651D01*
X173271649Y-115472363D01*
X173271454Y-115474848D01*
X171488750Y-115474848D01*
X171488750Y-115011250D01*
X171342709Y-115011250D01*
X171275670Y-114991565D01*
X171229915Y-114938761D01*
X171219971Y-114869603D01*
X171223632Y-114852655D01*
X171265850Y-114707336D01*
X171266045Y-114704851D01*
X171266045Y-114704850D01*
X169667750Y-114704850D01*
X169600711Y-114685165D01*
X169555487Y-114632974D01*
X177979176Y-114632974D01*
X178041361Y-114676516D01*
X178041363Y-114676517D01*
X178152772Y-114728468D01*
X178205211Y-114774640D01*
X178224363Y-114841834D01*
X178204147Y-114908715D01*
X178150982Y-114954049D01*
X178100367Y-114964850D01*
X178018750Y-114964850D01*
X178018750Y-115802350D01*
X178993749Y-115802350D01*
X178993749Y-115664878D01*
X178993748Y-115664863D01*
X178983255Y-115562152D01*
X178928108Y-115395730D01*
X178928106Y-115395725D01*
X178836065Y-115246504D01*
X178712095Y-115122534D01*
X178630617Y-115072278D01*
X178583893Y-115020330D01*
X178572670Y-114951367D01*
X178600514Y-114887285D01*
X178658583Y-114848429D01*
X178684907Y-114843211D01*
X178886633Y-114825562D01*
X178886644Y-114825560D01*
X179097900Y-114768955D01*
X179097909Y-114768951D01*
X179296137Y-114676516D01*
X179358322Y-114632974D01*
X178668751Y-113943403D01*
X178668750Y-113943403D01*
X177979176Y-114632974D01*
X169555487Y-114632974D01*
X169554956Y-114632361D01*
X169543750Y-114580850D01*
X169543750Y-113434850D01*
X170043750Y-113434850D01*
X170043750Y-114204850D01*
X171266045Y-114204850D01*
X171266045Y-114204848D01*
X171265850Y-114202363D01*
X171220031Y-114044651D01*
X171136435Y-113903297D01*
X171131650Y-113897128D01*
X171134002Y-113895303D01*
X171107195Y-113846255D01*
X171112152Y-113776562D01*
X171133215Y-113743786D01*
X171131650Y-113742572D01*
X171136435Y-113736402D01*
X171220031Y-113595048D01*
X171265850Y-113437336D01*
X171266045Y-113434851D01*
X171266045Y-113434850D01*
X170043750Y-113434850D01*
X169543750Y-113434850D01*
X169543750Y-113058850D01*
X169563435Y-112991811D01*
X169616239Y-112946056D01*
X169667750Y-112934850D01*
X171266045Y-112934850D01*
X171266045Y-112934848D01*
X171265850Y-112932363D01*
X171220031Y-112774651D01*
X171136435Y-112633297D01*
X171136428Y-112633288D01*
X171020311Y-112517171D01*
X171020302Y-112517164D01*
X170977721Y-112491982D01*
X170930037Y-112440913D01*
X170917534Y-112372171D01*
X170944180Y-112307582D01*
X171001515Y-112267652D01*
X171040842Y-112261250D01*
X172884989Y-112261250D01*
X172952028Y-112280935D01*
G37*
%TD.AperFunction*%
%TD*%
%TA.AperFunction,Conductor*%
%TO.N,Net-(D5-A)*%
G36*
X67443039Y-39269685D02*
G01*
X67488794Y-39322489D01*
X67500000Y-39374000D01*
X67500000Y-44626000D01*
X67480315Y-44693039D01*
X67427511Y-44738794D01*
X67376000Y-44750000D01*
X64500000Y-44750000D01*
X64500000Y-45080264D01*
X64480315Y-45147303D01*
X64427511Y-45193058D01*
X64358353Y-45203002D01*
X64310904Y-45185803D01*
X64156628Y-45090645D01*
X64156619Y-45090641D01*
X63990197Y-45035494D01*
X63990190Y-45035493D01*
X63887486Y-45025000D01*
X63750000Y-45025000D01*
X63750000Y-47426138D01*
X63730315Y-47493177D01*
X63713681Y-47513819D01*
X63712500Y-47515000D01*
X63712500Y-49641000D01*
X63692815Y-49708039D01*
X63670239Y-49727601D01*
X63671319Y-49728681D01*
X63635000Y-49765000D01*
X63635000Y-52497295D01*
X63642571Y-52504293D01*
X63684650Y-52513134D01*
X63734406Y-52562187D01*
X63750000Y-52622387D01*
X63750000Y-54377604D01*
X63730315Y-54444643D01*
X63677511Y-54490398D01*
X63641421Y-54496769D01*
X63635000Y-54502703D01*
X63635000Y-56101000D01*
X63615315Y-56168039D01*
X63562511Y-56213794D01*
X63511000Y-56225000D01*
X61989000Y-56225000D01*
X61921961Y-56205315D01*
X61876206Y-56152511D01*
X61865000Y-56101000D01*
X61865000Y-55725000D01*
X62365000Y-55725000D01*
X63135000Y-55725000D01*
X63135000Y-54502703D01*
X63132503Y-54502900D01*
X62974806Y-54548716D01*
X62974803Y-54548717D01*
X62833447Y-54632314D01*
X62827278Y-54637100D01*
X62825457Y-54634753D01*
X62776358Y-54661564D01*
X62706666Y-54656580D01*
X62673930Y-54635541D01*
X62672722Y-54637100D01*
X62666552Y-54632314D01*
X62525196Y-54548717D01*
X62525193Y-54548716D01*
X62367494Y-54502900D01*
X62367497Y-54502900D01*
X62365000Y-54502703D01*
X62365000Y-55725000D01*
X61865000Y-55725000D01*
X61865000Y-54502703D01*
X61857410Y-54495690D01*
X61815392Y-54486880D01*
X61765617Y-54437847D01*
X61750000Y-54377604D01*
X61750000Y-52622387D01*
X61769685Y-52555348D01*
X61822489Y-52509593D01*
X61858601Y-52503210D01*
X61865000Y-52497295D01*
X61865000Y-51275000D01*
X62365000Y-51275000D01*
X62365000Y-52497295D01*
X62365001Y-52497295D01*
X62367486Y-52497100D01*
X62525198Y-52451281D01*
X62666552Y-52367685D01*
X62672722Y-52362900D01*
X62674546Y-52365252D01*
X62723595Y-52338445D01*
X62793288Y-52343402D01*
X62826063Y-52364465D01*
X62827278Y-52362900D01*
X62833447Y-52367685D01*
X62974801Y-52451281D01*
X63132514Y-52497100D01*
X63132511Y-52497100D01*
X63134998Y-52497295D01*
X63135000Y-52497295D01*
X63135000Y-51275000D01*
X62365000Y-51275000D01*
X61865000Y-51275000D01*
X61865000Y-50775000D01*
X62365000Y-50775000D01*
X63135000Y-50775000D01*
X63135000Y-49634000D01*
X63154685Y-49566961D01*
X63177260Y-49547398D01*
X63176181Y-49546319D01*
X63212500Y-49510000D01*
X63212500Y-48750000D01*
X62375001Y-48750000D01*
X62375001Y-49024986D01*
X62385494Y-49127697D01*
X62440641Y-49294119D01*
X62440645Y-49294128D01*
X62483914Y-49364278D01*
X62502354Y-49431670D01*
X62481431Y-49498334D01*
X62427789Y-49543103D01*
X62368599Y-49552988D01*
X62365000Y-49552703D01*
X62365000Y-50775000D01*
X61865000Y-50775000D01*
X61865000Y-49552703D01*
X61857410Y-49545690D01*
X61815392Y-49536880D01*
X61765617Y-49487847D01*
X61750000Y-49427604D01*
X61750000Y-48250000D01*
X62375000Y-48250000D01*
X63212500Y-48250000D01*
X63212500Y-47323862D01*
X63232185Y-47256823D01*
X63248819Y-47236181D01*
X63250000Y-47235000D01*
X63250000Y-46500000D01*
X62412501Y-46500000D01*
X62412501Y-46774986D01*
X62422994Y-46877697D01*
X62478141Y-47044119D01*
X62478143Y-47044124D01*
X62570184Y-47193345D01*
X62645407Y-47268568D01*
X62678892Y-47329891D01*
X62673908Y-47399583D01*
X62645408Y-47443929D01*
X62532684Y-47556654D01*
X62440643Y-47705875D01*
X62440641Y-47705880D01*
X62385494Y-47872302D01*
X62385493Y-47872309D01*
X62375000Y-47975013D01*
X62375000Y-48250000D01*
X61750000Y-48250000D01*
X61750000Y-46000000D01*
X62412500Y-46000000D01*
X63250000Y-46000000D01*
X63250000Y-45025000D01*
X63112527Y-45025000D01*
X63112512Y-45025001D01*
X63009802Y-45035494D01*
X62843380Y-45090641D01*
X62843375Y-45090643D01*
X62694154Y-45182684D01*
X62570184Y-45306654D01*
X62478143Y-45455875D01*
X62478141Y-45455880D01*
X62422994Y-45622302D01*
X62422993Y-45622309D01*
X62412500Y-45725013D01*
X62412500Y-46000000D01*
X61750000Y-46000000D01*
X61750000Y-42000000D01*
X63350001Y-42000000D01*
X63350001Y-43299986D01*
X63360494Y-43402697D01*
X63415641Y-43569119D01*
X63415643Y-43569124D01*
X63507684Y-43718345D01*
X63631654Y-43842315D01*
X63780875Y-43934356D01*
X63780880Y-43934358D01*
X63947302Y-43989505D01*
X63947309Y-43989506D01*
X64050019Y-43999999D01*
X64499999Y-43999999D01*
X64500000Y-43999998D01*
X64500000Y-42000000D01*
X65000000Y-42000000D01*
X65000000Y-43999999D01*
X65449972Y-43999999D01*
X65449986Y-43999998D01*
X65552697Y-43989505D01*
X65719119Y-43934358D01*
X65719124Y-43934356D01*
X65868345Y-43842315D01*
X65992315Y-43718345D01*
X66084356Y-43569124D01*
X66084358Y-43569119D01*
X66139505Y-43402697D01*
X66139506Y-43402690D01*
X66149999Y-43299986D01*
X66150000Y-43299973D01*
X66150000Y-42000000D01*
X65000000Y-42000000D01*
X64500000Y-42000000D01*
X63350001Y-42000000D01*
X61750000Y-42000000D01*
X61750000Y-41500000D01*
X63350000Y-41500000D01*
X64500000Y-41500000D01*
X64500000Y-39500000D01*
X65000000Y-39500000D01*
X65000000Y-41500000D01*
X66149999Y-41500000D01*
X66149999Y-40200028D01*
X66149998Y-40200013D01*
X66139505Y-40097302D01*
X66084358Y-39930880D01*
X66084356Y-39930875D01*
X65992315Y-39781654D01*
X65868345Y-39657684D01*
X65719124Y-39565643D01*
X65719119Y-39565641D01*
X65552697Y-39510494D01*
X65552690Y-39510493D01*
X65449986Y-39500000D01*
X65000000Y-39500000D01*
X64500000Y-39500000D01*
X64050028Y-39500000D01*
X64050012Y-39500001D01*
X63947302Y-39510494D01*
X63780880Y-39565641D01*
X63780875Y-39565643D01*
X63631654Y-39657684D01*
X63507684Y-39781654D01*
X63415643Y-39930875D01*
X63415641Y-39930880D01*
X63360494Y-40097302D01*
X63360493Y-40097309D01*
X63350000Y-40200013D01*
X63350000Y-41500000D01*
X61750000Y-41500000D01*
X61750000Y-39374000D01*
X61769685Y-39306961D01*
X61822489Y-39261206D01*
X61874000Y-39250000D01*
X67376000Y-39250000D01*
X67443039Y-39269685D01*
G37*
%TD.AperFunction*%
%TD*%
%TA.AperFunction,Conductor*%
%TO.N,+3.3V*%
G36*
X127000000Y-143715424D02*
G01*
X126980315Y-143782463D01*
X126927511Y-143828218D01*
X126908094Y-143835199D01*
X126729425Y-143883073D01*
X126729418Y-143883076D01*
X126531111Y-143975548D01*
X126531107Y-143975550D01*
X126351871Y-144101052D01*
X126197152Y-144255771D01*
X126107175Y-144384273D01*
X126052598Y-144427898D01*
X126005600Y-144437150D01*
X124483250Y-144437150D01*
X124416211Y-144417465D01*
X124370456Y-144364661D01*
X124359250Y-144313150D01*
X124359249Y-143662648D01*
X124359248Y-143662630D01*
X124348749Y-143559853D01*
X124348748Y-143559850D01*
X124293564Y-143393316D01*
X124201462Y-143243994D01*
X124107445Y-143149977D01*
X124073960Y-143088654D01*
X124078944Y-143018962D01*
X124107445Y-142974614D01*
X124201067Y-142880992D01*
X124293106Y-142731774D01*
X124293108Y-142731769D01*
X124348255Y-142565347D01*
X124348256Y-142565340D01*
X124358749Y-142462636D01*
X124358750Y-142462623D01*
X124358750Y-142312650D01*
X121958751Y-142312650D01*
X121958751Y-142462636D01*
X121969244Y-142565347D01*
X122024391Y-142731769D01*
X122024393Y-142731774D01*
X122116434Y-142880995D01*
X122210054Y-142974615D01*
X122243539Y-143035938D01*
X122238555Y-143105630D01*
X122210055Y-143149977D01*
X122116037Y-143243995D01*
X122023937Y-143393313D01*
X122023936Y-143393316D01*
X121968751Y-143559853D01*
X121968751Y-143559854D01*
X121968750Y-143559854D01*
X121958250Y-143662633D01*
X121958250Y-144462651D01*
X121958251Y-144462669D01*
X121968750Y-144565446D01*
X121968751Y-144565449D01*
X121991242Y-144633320D01*
X122023936Y-144731984D01*
X122072614Y-144810904D01*
X122091054Y-144878296D01*
X122070131Y-144944959D01*
X122016489Y-144989729D01*
X121967075Y-145000000D01*
X121124000Y-145000000D01*
X121056961Y-144980315D01*
X121011206Y-144927511D01*
X121000000Y-144876000D01*
X121000000Y-141812650D01*
X121958750Y-141812650D01*
X122908750Y-141812650D01*
X122908750Y-140962650D01*
X123408750Y-140962650D01*
X123408750Y-141812650D01*
X124358749Y-141812650D01*
X124358749Y-141662678D01*
X124358748Y-141662663D01*
X124348255Y-141559952D01*
X124293108Y-141393530D01*
X124293106Y-141393525D01*
X124201065Y-141244304D01*
X124077095Y-141120334D01*
X123927874Y-141028293D01*
X123927869Y-141028291D01*
X123761447Y-140973144D01*
X123761440Y-140973143D01*
X123658736Y-140962650D01*
X123408750Y-140962650D01*
X122908750Y-140962650D01*
X122658779Y-140962650D01*
X122658762Y-140962651D01*
X122556052Y-140973144D01*
X122389630Y-141028291D01*
X122389625Y-141028293D01*
X122240404Y-141120334D01*
X122116434Y-141244304D01*
X122024393Y-141393525D01*
X122024391Y-141393530D01*
X121969244Y-141559952D01*
X121969243Y-141559959D01*
X121958750Y-141662663D01*
X121958750Y-141812650D01*
X121000000Y-141812650D01*
X121000000Y-138840723D01*
X121019685Y-138773684D01*
X121072489Y-138727929D01*
X121141647Y-138717985D01*
X121149782Y-138719433D01*
X121303704Y-138752150D01*
X121303705Y-138752150D01*
X121492994Y-138752150D01*
X121492996Y-138752150D01*
X121678153Y-138712794D01*
X121851080Y-138635801D01*
X122004221Y-138524538D01*
X122130883Y-138383866D01*
X122225529Y-138219934D01*
X122284024Y-138039906D01*
X122303810Y-137851650D01*
X122284024Y-137663394D01*
X122225529Y-137483366D01*
X122130883Y-137319434D01*
X122004221Y-137178762D01*
X122004220Y-137178761D01*
X121851084Y-137067501D01*
X121851079Y-137067498D01*
X121678157Y-136990507D01*
X121678152Y-136990505D01*
X121532351Y-136959515D01*
X121492996Y-136951150D01*
X121303704Y-136951150D01*
X121187653Y-136975816D01*
X121149780Y-136983867D01*
X121080113Y-136978550D01*
X121024380Y-136936412D01*
X121000275Y-136870832D01*
X121000000Y-136862576D01*
X121000000Y-133000000D01*
X121000000Y-130700000D01*
X127000000Y-130700000D01*
X127000000Y-143715424D01*
G37*
%TD.AperFunction*%
%TD*%
M02*
